<svg xmlns:svg="http://www.w3.org/2000/svg" xmlns="http://www.w3.org/2000/svg" preserveAspectRatio="xMidYMid meet" version="1.1" xmlns:xlink="http://www.w3.org/1999/xlink" xmlns:ev="http://www.w3.org/2001/xml-events" viewBox="0 0 1000 1001" max-index="2196000"><path d="m 495.3,598.6 -36,-0.2 -4.3,1.7 -3.5,-0.3 -5.1,1.9 -1.1,2.7 6,8.7 2.4,9.3 3.6,13.4 -3.8,5.5 -0.6,2.8 2.9,8.3 3.1,8.4 3.6,5 0.6,7.8 -1.4,10.3 -4,6.1 -7.1,9.1 -2.9,5.6 -4.1,12.5 -0.8,5.9 -4.3,12.7 -1.9,12.2 1,8.7 5.9,-2.7 7.2,-2.3 7.8,0.4 7.1,6.3 1.9,-1 48.8,-0.6 8.2,6.6 29.1,2 22.4,-5.7 -7.6,-8.6 -7.8,-11.3 1.6,-44 25.3,0.1 -1,-4.7 2,-5.2 -2,-6.5 1.5,-6.7 -1.2,-4.3 -5.5,-0.8 -7.6,2 -5.3,-0.3 -3,1.3 0.9,-16.5 -3.9,-5.1 -0.8,-8.5 1.9,-8.4 -2.4,-5.3 -0.1,-8.7 -14.8,0.1 1.1,-5 -6.2,0.1 -0.7,2.4 -7.6,0.5 -3.1,8.1 -1.9,3.4 -6.7,-1.9 -4,1.9 -8.1,1.1 -4.6,-7.2 -2.7,-4.5 -3.5,-8.3 -2.9,-10.3 z m -47.4,-2.7 0.4,-6 2,-3.5 4.5,-2.9 -4.6,-4.8 -3.7,2.3 -5,6 3.3,10.4 3.1,-1.5 z" title="Angola" data-confirmed="39,958" data-deaths="935" data-recovered="34,327" data-active="4,696" data-index="1"/><path d="m 669,556.1 -0.6,-5.4 0,0 -6.5,-0.9 -3.8,7.9 -7.4,-1.1 3,6.3 0.1,2.4 4.3,13.2 0,0.6 1.2,-0.2 4.5,-5 4.9,-7.2 3,-2.9 -0.1,-4.5 -2.6,-3.2 z" title="Burundi" data-confirmed="5,608" data-deaths="8" data-recovered="773" data-active="4,827" data-index="1"/><path d="m 340,356 -9.3,-8 -4.3,0.1 -4.1,4 -2.6,4.2 -6,1.2 -2.5,6.1 -4.1,1.6 -1.6,7.2 3.7,4.1 4.3,4.9 0.4,6.8 2.5,2.8 -0.5,31.8 3,9.5 10.1,-1.6 0.6,-22.3 -0.3,-8.8 2.3,-8.7 3.7,-4.3 5.9,-8.5 -1.3,-3.7 2.4,-5.6 -2.8,-8.2 0.5,-4.6 z" title="Benin" data-confirmed="8,227" data-deaths="105" data-recovered="8,000" data-active="122" data-index="1"/><path d="m 300.7,310.8 -7.8,0 -3,-2.6 -6.7,1.9 -11.3,5.8 -2.3,4.3 -9.4,6.2 -1.7,3.6 -5.1,2.8 -5.8,-1.9 -3.4,3.4 -1.8,9.5 -9.7,11.4 0.3,4.7 -3.4,5.9 0.8,8 5.5,3 2.1,4.6 5.4,2.9 4.3,-3.4 5.7,-0.6 8.3,3.6 -1.6,-10.4 0.3,-7.9 21.1,-0.6 5.4,1 3.9,-2.2 5.6,1.1 10.7,0.3 4.1,-1.6 2.5,-6.1 6,-1.2 2.6,-4.2 0.3,-9.5 -14,-3.1 -0.4,-6.7 -6.9,-9 -1.6,-6.3 1,-6.7 z" title="Burkina Faso" data-confirmed="13,509" data-deaths="168" data-recovered="13,317" data-active="24" data-index="1"/><path d="m 600.6,762.7 -2.2,-1 -6.9,3.1 -3.6,0 -7.9,5.4 -4.4,-5.7 -18.7,4.9 -9,0.4 -1.9,49.3 -11.8,0.5 -1.4,40.4 3.2,2 6.5,13.2 -1.5,8.4 2.5,4.9 8.5,-1.4 6.2,-6.2 5.8,-4.2 3.2,-6.6 6,-3.2 4.9,1.7 5.5,3.9 9.6,0.6 7.8,-3.2 1.4,-4.3 2.4,-6.6 6.5,-1.1 3.9,-5.2 4.4,-9.3 11.2,-10.3 17.3,-10.2 -7.3,-6.2 -9.2,-2.1 -3.1,-8.8 0.2,-4.9 -5.1,-1.5 -13,-15.2 -3.5,-8 -2.3,-2.4 -4.2,-11.1 z" title="Botswana" data-confirmed="75,388" data-deaths="1,202" data-recovered="69,914" data-active="4,272" data-index="1"/><path d="m 587,398.1 -1,-0.7 -4.2,-4 -0.9,-4.3 1.9,-5.7 -0.1,-5.7 -7.2,-8.6 -1.5,-5.9 -7.7,2.3 -6,5.6 -8.6,15.1 -11.3,6.4 -11.8,-0.8 -3.4,1.2 1.2,4.9 -6.3,4.8 -5.1,5.4 -15.3,5.3 -3,-3.1 -2.1,-0.3 -2.2,3.6 -10,1 -6.1,14 -2.9,2.6 -0.8,10.7 1.2,5.8 -0.9,4.1 5.8,7.3 1,4.9 4.6,7.2 5.6,4.4 0.6,6.3 1.3,4 6.3,-12.8 7.3,-7.4 8.2,2.4 7.9,0.7 1,-9.6 4.7,-7.1 6.5,-4.4 10.1,4.7 7.8,5.1 9,1.4 9.1,2.7 3.6,-8.4 1.6,-1.1 5.6,1.4 13.5,-6.9 4.9,3 3.9,-0.5 1.8,-3.3 4.5,-1.2 9.2,1.4 7.9,0.4 4,-1.5 -2,-4.4 -9.2,-5.5 -3.2,-8.3 -5.2,-6 -8.3,-7.2 -0.1,-4.5 -6.8,-5.5 -8.4,-5.4 z" title="Central African Rep." data-confirmed="7,142" data-deaths="98" data-recovered="6,859" data-active="185" data-index="1"/><path d="m 230.4,373.8 -5,2.1 -2.9,1.7 -1.8,-5.9 -3.5,1.6 -2.1,-0.3 -2.3,4 -9.4,-0.1 -3.3,-2.1 -1.6,1.3 -2.5,1.1 -1,4.7 2.8,5.7 3,11.1 -4.6,1.6 -1.1,1.9 0.9,2.7 -0.8,6.1 -1.9,0 -0.6,4 1.2,6.7 -2.7,6.1 3.6,3.8 3.8,0.9 5.2,5.8 0.3,5.5 -1.1,1.7 -1,11.4 2.3,0.4 12.1,-5.1 8.5,-4 14.5,-2.4 7.8,-0.2 8.5,2.7 5.6,-0.1 0.5,-5.5 -5.2,-11.9 3.2,-15.6 5.1,-11.6 -3.2,-19.7 -8.3,-3.6 -5.7,0.6 -4.3,3.4 -5.4,-2.9 -2.1,-4.6 -5.5,-3 z" title="Côte d'Ivoire" data-confirmed="0" data-deaths="0" data-recovered="0" data-active="0" data-index="0"/><path d="m 477.5,366.6 0.4,-9.2 -1,-9.1 -4.9,-8.9 -3.4,0.8 -0.4,4.4 4.9,5.5 -1.3,2.5 -0.5,4.6 -10.2,10.7 -3.1,8.8 -1.6,7.2 -2.6,3.1 -2.4,9.7 -6.4,5.7 -1.9,7 -2.7,5.6 -1.1,5.7 -8.3,4.7 -6.9,-5.7 -4.6,0.2 -7.2,8.1 -3.6,0.1 -5.7,13.4 -3.1,9.8 -0.1,3.8 3.1,2 2.5,6.2 5.6,2.3 4.8,9.2 -1.8,10.9 19.9,0.3 5.8,-0.9 7.4,1.9 7.3,-1.8 1.5,0.7 15.4,0.6 9.9,3.6 9.7,3.3 0.9,-7.5 -1.3,-4 -0.6,-6.3 -5.6,-4.4 -4.6,-7.2 -1,-4.9 -5.8,-7.3 0.9,-4.1 -1.2,-5.8 0.8,-10.7 2.9,-2.6 6.1,-14 1.8,-3.7 -3.9,-9.6 -1.8,-5.7 -5.3,-2.3 -7.2,-8.1 2.5,-6.5 5.6,1.3 3.4,-0.9 6.8,0.1 -6.8,-12.6 z" title="Cameroon" data-confirmed="80,858" data-deaths="1,324" data-recovered="57,008" data-active="22,526" data-index="1"/><path d="m 618.3,446 -9.2,-1.4 -4.5,1.2 -1.8,3.3 -3.9,0.5 -4.9,-3 -13.5,6.9 -5.6,-1.4 -1.6,1.1 -3.6,8.4 -9.1,-2.7 -9,-1.4 -7.8,-5.1 -10.1,-4.7 -6.5,4.4 -4.7,7.1 -1,9.6 -0.7,8.4 -3.6,7.4 -2.4,8.6 -1.5,12.3 0.7,7.8 -2,4.8 -0.3,5.1 -1.4,4.4 -8.1,6.7 -5.6,7.1 -5.3,13.4 0.3,11.4 -3.1,4.4 -7.2,6.8 -7.2,8.7 -4.5,-2.5 -0.8,-3.9 -6.6,-0.1 -4.2,5.3 -3.2,-1.4 -4.5,2.9 -2,3.5 -0.4,6 -3.1,1.5 1.6,4.3 5.1,-1.9 3.5,0.3 4.3,-1.7 36,0.2 2.9,10.3 3.5,8.3 2.7,4.5 4.6,7.2 8.1,-1.1 4,-1.9 6.7,1.9 1.9,-3.4 3.1,-8.1 7.6,-0.5 0.7,-2.4 6.2,-0.1 -1.1,5 14.8,-0.1 0.1,8.7 2.4,5.3 -1.9,8.4 0.8,8.5 3.9,5.1 -0.9,16.5 3,-1.3 5.3,0.3 7.6,-2 5.5,0.8 4.2,0.3 0.6,4.3 5.7,-0.3 7.7,1.3 3.9,6.2 9.7,2 7.5,-4.4 2.6,7.3 9.2,1.9 4.3,5.9 4.8,7.6 9.3,0.1 -0.6,-14.9 -3.4,2.5 -8.4,-5.4 -3.2,-2.4 1.9,-13.9 2.5,-16.4 -2.6,-6.1 3.6,-8.8 3.3,-1.7 16.4,-2.3 2.1,0.6 0.6,-2.3 -3.4,-3.7 -1.5,-7.6 -7.3,-7.6 -4.1,-9.9 2.3,-5.8 -3.2,-7.8 2.4,-22.1 0.1,0.2 -0.1,-2.4 -3,-6.3 1.2,-7.6 1.7,-1 0.5,-8.3 3.5,-3.8 0.1,-10.5 2.9,-5.3 0.6,-11.1 2.6,-6.4 4.6,-7.2 4.7,-3.7 3.9,-4.9 -4.9,-1.9 0.6,-16.1 0,0 -10.9,-9.2 -2.9,-5.9 -6.8,2.9 -5.7,-0.9 -3.2,2.3 -5.5,-1.7 -7.5,-11.4 -4,1.5 -7.9,-0.4 z" title="Dem. Rep. Congo" data-confirmed="0" data-deaths="0" data-recovered="0" data-active="0" data-index="0"/><path d="m 521.5,468.8 -7.9,-0.7 -8.2,-2.4 -7.3,7.4 -6.3,12.8 -0.9,7.5 -9.7,-3.3 -9.9,-3.6 -15.4,-0.6 -0.9,6.1 3.4,7.1 9.1,-1.1 3.1,2.7 -5.3,16.1 5.8,8.2 1.3,10.8 -1.6,9.2 -3.7,6.5 -10.8,-0.6 -6.5,-6.6 -1,6.1 -8.3,1.7 -4.2,3.5 4.6,9.1 -9.3,7.7 9.9,14.6 5,-6 3.7,-2.3 4.6,4.8 3.2,1.4 4.2,-5.3 6.6,0.1 0.8,3.9 4.5,2.5 7.2,-8.7 7.2,-6.8 3.1,-4.4 -0.3,-11.4 5.3,-13.4 5.6,-7.1 8.1,-6.7 1.4,-4.4 0.3,-5.1 2,-4.8 -0.7,-7.8 1.5,-12.3 2.4,-8.6 3.6,-7.4 0.7,-8.4 z" title="Congo" data-confirmed="12,790" data-deaths="167" data-recovered="8,208" data-active="4,415" data-index="1"/><path d="m 820.3,358.7 -5.3,-3.8 6.8,-3.3 0.1,-5.7 -3,-4.3 -3.6,3.4 -5.2,-1.2 -4,6.1 -3.9,6.5 1.1,3.8 0.3,4.2 6.8,0.2 2.9,-0.9 2.8,2.4 4.2,-7.4 z" title="Djibouti" data-confirmed="11,615" data-deaths="155" data-recovered="11,451" data-active="9" data-index="1"/><path d="M 392.4,5.7 384.6,6.5 379.8,3.3 367.6,3.4 357,8.9 351.2,6.8 332.3,8 l -19.4,2.5 -11,4.3 -7.2,5.8 -12.4,2.4 -11.1,7.7 4.2,9 0.7,8.4 3.9,14.7 3.1,2.9 -2.2,5.4 -15.2,2.3 -5.4,5.1 -6.7,1.2 -0.6,10.2 -13.8,5.4 -4.6,7 -9.6,3.7 -11.8,2.1 -19.2,10.2 -0.2,16.3 0,1 -0.3,2.7 44.1,33.5 40,30.2 40.4,30.2 2.9,6.4 7.5,4 5.5,2.2 0.2,8.8 13.3,-1.3 16.9,-6.2 34.5,-27.1 40.5,-26.4 -5.4,-8.7 -9.6,-6.4 -5.5,2.5 -4.3,-7.7 -0.6,-5.9 -7.2,-10.1 4.6,-5.8 -1.3,-8.7 1.4,-7.6 -1,-6.3 1.8,-11.3 -0.8,-6.4 -4.1,-12.2 -5.7,-24.7 -7.3,-5.6 -0.2,-3.3 -9.7,-8.3 -1.3,-10.4 7,-7.8 2.4,-11.6 -2.3,-13.4 2.2,-7.2 z" title="Algeria" data-confirmed="146,064" data-deaths="3,836" data-recovered="101,430" data-active="40,798" data-index="2"/><path d="m 628.8,88.1 -11.9,-4 -11.5,-3.7 -15.6,0.2 -3.7,6.6 2.2,5.9 -2.4,8.5 4.2,11.2 2.9,49.2 2.2,50.9 48.1,0 46.4,0 47.4,0 -2.2,-2.8 -14.7,-12.4 -0.9,-9 2.2,-2.4 -11.6,-15.3 -4.4,-7.9 -4.9,-7.5 -10.5,-21.6 -8.4,-13.9 -6.1,-14.5 1.1,-1.3 10.1,19.8 5.8,6.2 4.3,4.4 2.5,-2.4 2.7,-7.2 1.6,-10.4 2.8,-5.6 -1.5,-3.5 -8.5,-20.1 0,0 -5.4,3.4 -9.2,-0.8 -9.6,-3.2 -2.3,4.5 -3.8,-6.8 -8.5,-1.8 -10.2,1.2 -4.5,3.9 -8.6,4.4 -5.6,-2.2 z" title="Egypt" data-confirmed="283,102" data-deaths="16,396" data-recovered="218,412" data-active="48,294" data-index="3"/><path d="m 777.6,303.8 -7,-6.8 -4,-12.7 -7.8,-16 -5.7,7.9 -8.8,2.3 -3.6,4.2 -0.7,9.2 -4.3,20.3 1.5,5.6 14.3,2.9 3.3,-10.4 7.6,6.3 7,-3.2 3,2.9 8.3,0.1 10.8,5.6 3.4,4.8 5.5,4.4 5.4,8.1 4.3,4.5 5.2,1.2 3.6,-3.4 -6.2,-4.2 -4,-4.7 -6.9,-8 -7.1,-7.9 -17.1,-13 z" title="Eritrea" data-confirmed="6,284" data-deaths="29" data-recovered="5,842" data-active="413" data-index="1"/><path d="m 754.8,310.3 -3.3,10.4 -14.3,-2.9 -1.4,11.9 -4.5,13.6 -7.1,6.8 -4.8,10.6 -1.1,5.7 -5.6,3.8 -3.3,14.5 0.1,1.7 0.4,10.8 -1.8,4.2 -6.4,0.3 -4,7.9 7.5,1 6.3,6.7 2.2,5.6 5.7,3.2 7.4,15 6.4,2.4 0.1,7.7 4.2,4.6 8.5,0 15.7,11.7 3.8,0.2 2.9,-0.4 2.7,1.6 8.2,1.1 3.5,-5.8 11.1,-5.8 4.9,4.7 8.4,0 3.3,-4.4 7.8,-0.2 10.7,-9.8 15.9,-0.6 33.5,-41.5 -10.3,0.1 -40.3,-16.4 -4.8,-5 -4.6,-6.6 -4.8,-7.7 2.5,-4.9 -2.8,-2.4 -2.9,0.9 -6.8,-0.2 -0.3,-4.2 -1.1,-3.8 3.9,-6.5 4,-6.1 -4.3,-4.5 -5.4,-8.1 -5.5,-4.4 -3.4,-4.8 -10.8,-5.6 -8.3,-0.1 -3,-2.9 -7,3.2 -7.6,-6.3 z" title="Ethiopia" data-confirmed="277,071" data-deaths="4,343" data-recovered="261,989" data-active="10,739" data-index="3"/><path d="m 455.9,485.9 -1.5,-0.7 -7.3,1.8 -7.4,-1.9 -5.8,0.9 0.1,16.7 -17.7,-0.2 -4.2,0.8 -2.4,10.3 -3,10.1 -2.7,4.4 -0.3,4.6 7.3,14.3 8.1,11.4 12.5,14 9.3,-7.7 -4.6,-9.1 4.2,-3.5 8.3,-1.7 1,-6.1 6.5,6.6 10.8,0.6 3.7,-6.5 1.6,-9.2 -1.3,-10.8 -5.8,-8.2 5.3,-16.1 -3.1,-2.7 -9.1,1.1 -3.4,-7.1 0.9,-6.1 z" title="Gabon" data-confirmed="25,164" data-deaths="162" data-recovered="24,898" data-active="104" data-index="1"/><path d="m 296.4,364.9 -5.6,-1.1 -3.9,2.2 -5.4,-1 -21.1,0.6 -0.3,7.9 1.6,10.4 3.2,19.7 -5.1,11.6 -3.2,15.6 5.2,11.9 -0.5,5.5 10.9,3.9 11,-4 6.7,-4.7 19.2,-8.1 -2.8,-4.9 -3.2,-8.8 -1,-6.8 2.7,-12.5 -3,-5 -1.2,-10.9 0,-10.1 -5.1,-7.1 0.9,-4.3 z" title="Ghana" data-confirmed="97,585" data-deaths="801" data-recovered="94,537" data-active="2,247" data-index="1"/><path d="m 156.4,345.2 -1.8,0.7 -6.6,-1.1 -0.9,1.6 -2.7,0.3 -8.7,-3.4 -5.8,-0.1 -0.3,4.7 -1.3,1.4 0.9,4.6 -1.9,1.8 -2.7,0.1 -3.2,2.3 -3.7,-0.3 -5.5,6.8 3.6,2.2 1.7,3.1 1.3,6.1 3,2.7 3.1,1.8 4.7,5.4 5.3,8.2 6.5,-6.1 1.5,-3.8 2.1,-3 3.3,-0.3 2.9,-2.6 9.7,0 3.3,5 2.6,5.8 -0.4,4 1.9,3.6 -0.1,5.1 3.3,-0.8 2.6,-0.3 3.2,-1.6 5.1,8.5 -0.9,5.6 2.4,2.9 3.4,0.1 2.6,-5.6 3.4,0.4 1.9,0 0.8,-6.1 -0.9,-2.7 1.1,-1.9 4.6,-1.6 -3,-11.1 -2.8,-5.7 1,-4.7 2.5,-1.1 -3.7,-4 0.7,-4.1 -1.6,-1.6 -2.6,1.3 0.6,-4.5 2.5,-3.5 -5,-5.8 -1.4,-3.8 -2.7,-3.1 -2.4,-0.3 -2.9,1.9 -4,1.8 -3.3,3 -5.2,-1.1 -3.3,-3.5 -2,-0.4 -3.2,1.8 -2,0 -0.6,-5 z" title="Guinea" data-confirmed="24,134" data-deaths="179" data-recovered="23,379" data-active="576" data-index="1"/><path d="m 91.9,335.4 11,0.2 3,-1.9 2.2,-0.1 4.5,-3.2 5.2,2.9 5.2,0.3 5.3,-3.1 -2.4,-4 -4,2.3 -3.8,-0.1 -4.7,-3.4 -3.8,0.2 -2.8,3.3 -13.2,0.4 -1.7,6.2 z" title="Gambia" data-confirmed="6,282" data-deaths="185" data-recovered="5,906" data-active="191" data-index="1"/><path d="m 129.9,343.2 -22.4,-0.6 -3.3,1.6 -4,-0.5 -6.5,2.3 0.7,2.9 3.7,3 -0.1,2.1 2.7,3.9 5.1,0.9 6.4,5.8 5.5,-6.8 3.7,0.3 3.2,-2.3 2.7,-0.1 1.9,-1.8 -0.9,-4.6 1.3,-1.4 0.3,-4.7 z" title="Guinea-Bissau" data-confirmed="3,947" data-deaths="70" data-recovered="3,632" data-active="245" data-index="1"/><path d="m 433.9,486 -19.9,-0.3 -4.1,15.5 2.2,2.1 4.2,-0.8 17.7,0.2 -0.1,-16.7 z" title="Eq. Guinea" data-confirmed="8,790" data-deaths="122" data-recovered="8,572" data-active="96" data-index="1"/><path d="m 807.2,463.1 -8.4,0 -4.9,-4.7 -11.1,5.8 -3.5,5.8 -8.2,-1.1 -2.7,-1.6 -2.9,0.4 -3.8,-0.2 -15.7,-11.7 -8.5,0 -4.2,-4.6 -0.1,-7.7 -6.4,-2.4 -8.1,9.1 -7.4,8.3 5.9,9.6 1.5,7 5.5,15.8 -4.4,10.1 -5.9,9.2 -3.5,5.6 0,0.7 2.9,5.2 -0.8,10.3 44.1,28.2 0.7,8 17.3,13.8 5,-4.6 2.5,-9.2 4,-5.5 1.9,-9.8 4.6,-1 3.1,-5.8 8.6,-5.5 -7.2,-11.4 -0.4,-50.4 10.5,-15.7 z" title="Kenya" data-confirmed="188,754" data-deaths="3,722" data-recovered="179,520" data-active="5,512" data-index="2"/><path d="m 193.3,411 -3.4,-0.4 -2.6,5.6 -3.4,-0.1 -2.4,-2.9 0.9,-5.6 -5.1,-8.5 -3.2,1.6 -2.6,0.3 -5.7,6.5 -5.5,7.5 -0.7,4 -2.9,4.4 8.1,8.9 10.4,7.6 11,10.5 12.6,6.6 3.2,-0.1 1,-11.4 1.1,-1.7 -0.3,-5.5 -5.2,-5.8 -3.8,-0.9 -3.6,-3.8 2.7,-6.1 -1.2,-6.7 0.6,-4 z" title="Liberia" data-confirmed="5,102" data-deaths="144" data-recovered="2,588" data-active="2,370" data-index="1"/><path d="m 589.8,80.6 -3.1,-4.5 -11.7,-1.6 -3.9,-2.4 -4.4,0 -4.4,-6.2 -15.9,-2.8 -7.9,1.8 -7.9,6.5 -3.3,6.7 3.4,10.6 -5.3,6.3 -5.5,3.6 L 507,91.7 490.3,86 479.7,83.3 473.6,71 l -15.7,-6.1 -9.8,-2.3 -4.8,1.2 -13.8,-4.8 -0.3,10.6 -5.6,4 -3.4,4.4 -7.9,5.3 1.5,5.7 -0.9,5.8 -5.6,3.2 4.1,12.2 0.8,6.4 -1.8,11.3 1,6.3 -1.4,7.6 1.3,8.7 -4.6,5.8 7.2,10.1 0.6,5.9 4.3,7.7 5.5,-2.5 9.6,6.4 5.4,8.7 19,6 6.9,7.5 8.3,-5.1 11.9,-7.6 48.4,26.5 48.7,26.5 -0.1,-5.8 13.8,0 -1,-27.7 -2.2,-50.9 -2.9,-49.2 -4.2,-11.2 2.4,-8.5 -2.2,-5.9 3.7,-6.6 z" title="Libya" data-confirmed="204,090" data-deaths="3,240" data-recovered="180,860" data-active="19,990" data-index="2"/><path d="m 625.3,939.9 2.5,-4.4 6.7,-2.2 2.4,-4.5 4.1,-6.7 -3.8,-4.2 -4.8,-4.2 -5.7,2.8 -6.8,5.4 -6.9,8.7 8,10.6 4.3,-1.3 z" title="Lesotho" data-confirmed="11,903" data-deaths="335" data-recovered="6,593" data-active="4,975" data-index="1"/><path d="m 271.2,30.7 -5,-0.1 -11.9,-3.1 -11,0.9 -6.8,-5.9 -8.5,-0.1 -3.8,8.6 -8,14.5 -8.7,5.7 -11.8,6.4 -7.7,9.3 -1.8,7.3 -4.8,11.8 2.5,17.2 -10.1,11.5 -6,3.7 -9.6,9.4 -11,1.6 -6.1,5.3 -0.2,0.2 -7.9,14.1 -8.1,5.1 -4.5,8.5 -0.5,7.4 -3.4,8.1 -4,2.2 -6.9,8.8 -4.4,9.8 0.7,4.6 -4.1,7.3 -4.7,3.7 -0.8,6.4 0.2,0.1 27,-1.1 1.6,-5 5,-6.2 4.4,-19.1 16.9,-15 6,-17.4 3.7,-1.1 4.2,-10.8 10,-1.4 4.2,1.8 5.4,0 3.9,-3.2 7.3,-0.4 -0.1,-7.5 0,0 1.8,0 0.2,-16.3 19.2,-10.2 11.8,-2.1 9.6,-3.7 4.6,-7 13.8,-5.4 0.6,-10.2 6.7,-1.2 5.4,-5.1 15.2,-2.3 2.2,-5.4 -3.1,-2.9 -3.9,-14.7 -0.7,-8.4 -4.2,-9 z" title="Morocco" data-confirmed="542,462" data-deaths="9,369" data-recovered="524,826" data-active="8,267" data-index="5"/><path d="m 902.9,704.8 -2.5,-9.1 -3,-5.9 -3.9,-5.9 -4.3,6.2 -0.7,8.3 -7.1,9.6 -5.1,-1.7 1.3,6 -4,6.9 -10.4,8.5 -7.3,7.9 -5.4,0.2 -4.6,2.5 -6.9,2.8 -6,0.6 -2.2,8.7 -4.7,7.8 0.2,12.7 1.7,8.7 2.4,6.6 -1.7,8.8 -6.4,10.5 -0.3,4.6 -5.7,2.4 -2.8,10 0.4,9.9 3.4,11 -0.1,12.3 2.6,7.3 9.1,5 6.5,3.5 10.9,-5.8 9.9,-3.3 6.8,-16.1 6.1,-19.2 9.3,-26.2 7.3,-19.1 5.9,-16.1 1.6,-11.7 3.5,-3.2 1.5,-5.9 -1.7,-10.2 2.6,-4.1 3.5,8.1 2.4,-4.1 1.7,-6.6 -2.8,-6.5 -1,-16.7 z" title="Madagascar" data-confirmed="42,431" data-deaths="930" data-recovered="40,798" data-active="703" data-index="1"/><path d="m 347.4,252.3 -13.3,1.3 -0.2,-8.8 -5.5,-2.2 -7.5,-4 -2.9,-6.4 -40.4,-30.2 -40,-30.2 -18.2,0.2 5.1,59.7 5.4,59.7 2,1.8 -2.7,9.6 -48.5,0.2 -1.9,3.1 -4.6,-0.9 -6.9,2.7 -8.4,-3.8 -3.8,0.3 -2.2,8.2 -4.1,2.5 0.4,8.6 2.3,7.9 4.5,3.9 1,5.3 -0.6,4.4 0.6,5 2,0 3.2,-1.8 2,0.4 3.3,3.5 5.2,1.1 3.3,-3 4,-1.8 2.9,-1.9 2.4,0.3 2.7,3.1 1.4,3.8 5,5.8 -2.5,3.5 -0.6,4.5 2.6,-1.3 1.6,1.6 -0.7,4.1 3.7,4 1.6,-1.3 3.3,2.1 9.4,0.1 2.3,-4 2.1,0.3 3.5,-1.6 1.8,5.9 2.9,-1.7 5,-2.1 -0.8,-8 3.4,-5.9 -0.3,-4.7 9.7,-11.4 1.8,-9.5 3.4,-3.4 5.8,1.9 5.1,-2.8 1.7,-3.6 9.4,-6.2 2.3,-4.3 11.3,-5.8 6.7,-1.9 3,2.6 7.8,0 7.7,-0.6 4.5,-4.9 16.5,-1.2 10.7,-2.2 1,-8.5 6.6,-9.2 -0.3,-31.9 z" title="Mali" data-confirmed="14,463" data-deaths="528" data-recovered="10,102" data-active="3,833" data-index="1"/><path d="m 788.2,666.2 -1.7,-6.2 0,0 0,0 -10,8.1 -13.4,5.3 -7.3,-0.2 -4.5,4.2 -8.4,0.3 -3.3,1.8 -14.4,-3.9 -4.7,0.5 -3.3,13.1 1.4,15.8 0.7,0 4.2,4.4 4.6,10 0.3,17.8 -5.4,3 -4.1,9.6 -7.5,-8.6 -0.5,-9.7 2.9,-6.5 -0.5,-5.5 -4.7,-3.5 -3.3,1.2 -6.8,-6.6 -37.1,11.4 0.8,9.9 0.6,5.1 10,-0.3 5.5,3 2.5,3.4 5.7,1 6.1,4.4 -0.8,17.5 -2.8,9.6 -1,10.4 1.7,4.1 -1.7,8.1 -1.9,1.3 -3.6,9.9 -13.4,15.7 4.7,19.5 2.5,9.9 -3,15.4 0.7,5 1.3,6.2 0.6,6.1 9,0.1 1.5,-7.3 -2.9,-0.9 -0.6,-5.8 5.5,-5.2 14.8,-7.5 10.1,-4.6 5.3,-5 2.1,-5.7 -2.7,-2.4 2.4,-6.4 1.1,-13.6 -2.2,0.7 0.1,-4.1 -1.9,-8.1 -5.2,-10.5 1.6,-9.9 5.1,-3.2 8.9,-9.8 4.7,-2.5 14.4,-14.9 14,-6.7 11.3,-5.3 8.1,-8.5 5.2,-9.6 4.1,-9.9 -1.8,-6.8 0.4,-21.6 -1,-12.2 0.9,-13.8 z" title="Mozambique" data-confirmed="88,868" data-deaths="982" data-recovered="73,617" data-active="14,269" data-index="1"/><path d="m 237.6,171.8 -44.1,-33.5 -0.5,20.9 -38.9,-0.7 -0.4,35.4 -11.2,1.3 -3.1,7.1 1.9,20 -46.9,-0.1 -2.7,4.6 6.1,6 3,6.5 -1.4,6.9 1.3,6.9 1,13.7 -1.8,13 -3.5,6.8 0.9,7.5 4.2,-4.5 6,1.2 5.9,-3 6.8,-0.1 5.7,4 7.9,3.7 7.2,10.2 7.8,9.5 4.1,-2.5 2.2,-8.2 3.8,-0.3 8.4,3.8 6.9,-2.7 4.6,0.9 1.9,-3.1 48.5,-0.2 2.7,-9.6 -2,-1.8 -5.4,-59.7 -5.1,-59.7 18.2,-0.2 z" title="Mauritania" data-confirmed="21,672" data-deaths="495" data-recovered="20,254" data-active="923" data-index="1"/><path d="m 714.6,711.7 0.3,-5.2 -2.7,-4.1 0.4,-6 -3.3,-10.2 3.7,-7.7 -0.2,-16.7 -4.1,-8.9 0.4,-1.5 0,0 -2.3,-3.8 -11.9,-2.6 5.6,6.2 2.8,11.7 -2.2,3.8 -2.7,11.2 2,11.5 -4,4.8 -4.1,12.8 6.2,3.6 6.8,6.6 3.3,-1.2 4.7,3.5 0.5,5.5 -2.9,6.5 0.5,9.7 7.5,8.6 4.1,-9.6 5.4,-3 -0.3,-17.8 -4.6,-10 -4.2,-4.4 -0.7,0 0.1,1.9 2.3,0.5 2.2,7.4 -0.4,1.7 -4.1,-5.3 -2.2,3.4 -1.9,-2.9 z" title="Malawi" data-confirmed="39,186" data-deaths="1,250" data-recovered="33,854" data-active="4,082" data-index="1"/><path d="m 576,759.7 -22.4,5.7 -29.1,-2 -8.2,-6.6 -48.8,0.6 -1.9,1 -7.1,-6.3 -7.8,-0.4 -7.2,2.3 -5.9,2.7 0.6,10.6 9.5,13.5 2.5,8.7 6,16.6 5.9,11.4 4.6,5.7 1.3,7.6 -0.1,16.5 3.4,21.3 2.6,10.1 2.2,13.4 4.3,10.1 8.3,10.5 6,-6.8 4.5,3.7 1.7,6 5.2,1 7.3,2.6 6.4,-1 10.8,-7.1 2.2,-51.1 1.4,-40.4 11.8,-0.5 1.9,-49.3 9,-0.4 18.7,-4.9 4.4,5.7 7.9,-5.4 3.6,0 6.9,-3.1 0,-1.2 -4.7,-3.1 -7.8,-0.8 -9.9,3.1 z" title="Namibia" data-confirmed="105,595" data-deaths="1,991" data-recovered="77,957" data-active="25,647" data-index="1"/><path d="m 458.3,198.6 -19,-6 -40.5,26.4 -34.5,27.1 -16.9,6.2 0.3,31.9 -6.6,9.2 -1,8.5 -10.7,2.2 -16.5,1.2 -4.5,4.9 -7.7,0.6 -1,6.7 1.6,6.3 6.9,9 0.4,6.7 14,3.1 -0.3,9.5 4.1,-4 4.3,-0.1 9.3,8 0.8,-12.4 3.5,-5.5 1.6,-8 3.2,-3 13,-1.6 12.2,5.1 4.6,5.3 6.1,0.2 5.8,-3.4 14.7,7.1 6.2,-0.3 7.1,-5.9 7.1,0.4 3.5,-1.9 6.5,0.8 9.4,4 9.4,-7.7 2.9,0.6 8.4,15.1 2.2,-0.3 0.4,-4.4 3.4,-0.8 1.1,-6.5 -7.8,-0.3 -0.1,-8.9 -5.1,-5.2 4.9,-18.2 15.2,-13 0.2,-18 4,-28.1 2.5,-6 -5.1,-4.7 -0.3,-4.4 -4.6,-3.6 -3.4,-21.5 -8.3,5.1 -6.9,-7.5 z" title="Niger" data-confirmed="5,538" data-deaths="194" data-recovered="5,233" data-active="111" data-index="1"/><path d="m 468.2,344.6 -2.2,0.3 -8.4,-15.1 -2.9,-0.6 -9.4,7.7 -9.4,-4 -6.5,-0.8 -3.5,1.9 -7.1,-0.4 -7.1,5.9 -6.2,0.3 -14.7,-7.1 -5.8,3.4 -6.1,-0.2 -4.6,-5.3 -12.2,-5.1 -13,1.6 -3.2,3 -1.6,8 -3.5,5.5 -0.8,12.4 -0.5,4.6 2.8,8.2 -2.4,5.6 1.3,3.7 -5.9,8.5 -3.7,4.3 -2.3,8.7 0.3,8.8 -0.6,22.3 10.7,0 9.2,-0.1 8.6,9.1 4.1,10 6.5,8.6 9.8,0.3 4.7,-3.1 4.6,0.8 12.7,-5 3.1,-9.8 5.7,-13.4 3.6,-0.1 7.2,-8.1 4.6,-0.2 6.9,5.7 8.3,-4.7 1.1,-5.7 2.7,-5.6 1.9,-7 6.4,-5.7 2.4,-9.7 2.6,-3.1 1.6,-7.2 3.1,-8.8 10.2,-10.7 0.5,-4.6 1.3,-2.5 -4.9,-5.5 z" title="Nigeria" data-confirmed="168,552" data-deaths="2,124" data-recovered="164,439" data-active="1,989" data-index="2"/><path d="m 667.9,533 -7.4,4.3 -2.9,-1.4 -3.5,3.8 -0.5,8.3 -1.7,1 -1.2,7.6 7.4,1.1 3.8,-7.9 6.5,0.9 0,0 3.5,-1.8 0.8,-8.1 -4.8,-7.8 z" title="Rwanda" data-confirmed="48,244" data-deaths="560" data-recovered="32,523" data-active="15,161" data-index="1"/><path d="m 193.8,134.6 -1.8,0 0,0 0.1,7.5 -7.3,0.4 -3.9,3.2 -5.4,0 -4.2,-1.8 -10,1.4 -4.2,10.8 -3.7,1.1 -6,17.4 -16.9,15 -4.4,19.1 -5,6.2 -1.6,5 -27,1.1 -0.2,-0.1 -0.6,5.9 2.7,-4.6 46.9,0.1 -1.9,-20 3.1,-7.1 11.2,-1.3 0.4,-35.4 38.9,0.7 0.5,-20.9 0.3,-2.7 0,-1 z" title="W. Sahara" data-confirmed="0" data-deaths="0" data-recovered="0" data-active="0" data-index="0"/><path d="m 740,291.9 0.7,-9.2 3.6,-4.2 8.8,-2.3 5.7,-7.9 -6.9,-5.1 -4.8,-3.4 -5.3,-16.5 -2.5,-14.3 2.5,-2.5 -4.7,-13.6 -47.4,0 -46.4,0 -48.1,0 1,27.7 -13.8,0 0.1,5.8 2.4,54.9 -10.5,-0.9 -5.2,10.2 -3,8.5 2.6,3.2 -3.8,4.3 1.5,5.7 -3,5.8 -1.2,5 4.3,-0.8 2.6,5.4 0.3,8 4.6,4.1 -0.1,3.4 1.5,5.9 7.2,8.6 0.1,5.7 -1.9,5.7 0.9,4.3 4.2,4 1,0.7 3.8,-1.6 4.1,-2.6 2.9,-12.3 3.2,-6.4 8.8,-1.9 2.1,3.8 6.5,8 3.3,1.2 4.4,-2.3 8.7,0.4 1.8,2.9 12.1,0 0.3,-2.9 6.3,-2.6 1.1,-4 4.6,-2.9 10.4,8.1 6.2,-1.4 5.8,-10 6.5,-7.6 -1.3,-8.3 -3,-4 7.3,-0.8 0.7,-3 5.7,0.9 -1.2,10.2 1.7,10 6.5,5.5 1.5,4.7 0,6.9 1.7,0.3 -0.1,-1.7 3.3,-14.5 5.6,-3.8 1.1,-5.7 4.8,-10.6 7.1,-6.8 4.5,-13.6 1.4,-11.9 -1.5,-5.6 4.3,-20.3 z" title="Sudan" data-confirmed="36,805" data-deaths="2,760" data-recovered="30,647" data-active="3,398" data-index="1"/><path d="m 707.8,379.2 -1.5,-4.7 -6.5,-5.5 -1.7,-10 1.2,-10.2 -5.7,-0.9 -0.7,3 -7.3,0.8 3,4 1.3,8.3 -6.5,7.6 -5.8,10 -6.2,1.4 -10.4,-8.1 -4.6,2.9 -1.1,4 -6.3,2.6 -0.3,2.9 -12.1,0 -1.8,-2.9 -8.7,-0.4 -4.4,2.3 -3.3,-1.2 -6.5,-8 -2.1,-3.8 -8.8,1.9 -3.2,6.4 -2.9,12.3 -4.1,2.6 -3.8,1.6 8.4,5.4 6.8,5.5 0.1,4.5 8.3,7.2 5.2,6 3.2,8.3 9.2,5.5 2,4.4 7.5,11.4 5.5,1.7 3.2,-2.3 5.7,0.9 6.8,-2.9 2.9,5.9 10.9,9.2 0,0 5,-3.8 7.8,3.1 9.8,-3.3 8.6,0.1 7.4,-6.4 7.4,-8.3 8.1,-9.1 -7.4,-15 -5.7,-3.2 -2.2,-5.6 -6.3,-6.7 -7.5,-1 4,-7.9 6.4,-0.3 1.8,-4.2 -0.4,-10.8 -1.7,-0.3 0,-6.9 z" title="S. Sudan" data-confirmed="10,891" data-deaths="117" data-recovered="10,514" data-active="260" data-index="1"/><path d="m 148.8,315.1 -7.8,-9.5 -7.2,-10.2 -7.9,-3.7 -5.7,-4 -6.8,0.1 -5.9,3 -6,-1.2 -4.2,4.5 -3,7.1 -6.1,9.7 -5.4,2.6 6,4.9 4.8,10.8 13.2,-0.4 2.8,-3.3 3.8,-0.2 4.7,3.4 3.8,0.1 4,-2.3 2.4,4 -5.3,3.1 -5.2,-0.3 -5.2,-2.9 -4.5,3.2 -2.2,0.1 -3,1.9 -11,-0.2 1.8,10.6 6.5,-2.3 4,0.5 3.3,-1.6 22.4,0.6 5.8,0.1 8.7,3.4 2.7,-0.3 0.9,-1.6 6.6,1.1 1.8,-0.7 0.6,-4.4 -1,-5.3 -4.5,-3.9 -2.3,-7.9 -0.4,-8.6 z" title="Senegal" data-confirmed="46,175" data-deaths="1,194" data-recovered="42,308" data-active="2,673" data-index="1"/><path d="m 171.5,401 -3.3,0.8 0.1,-5.1 -1.9,-3.6 0.4,-4 -2.6,-5.8 -3.3,-5 -9.7,0 -2.9,2.6 -3.3,0.3 -2.1,3 -1.5,3.8 -6.5,6.1 1.4,10.3 2.1,5 6.3,7.4 8.7,5.6 3.3,1 2.9,-4.4 0.7,-4 5.5,-7.5 5.7,-6.5 z" title="Sierra Leone" data-confirmed="6,031" data-deaths="112" data-recovered="3,963" data-active="1,956" data-index="1"/><path d="m 674,874.9 -5.8,-2.6 -3.5,1 -1.4,4 -3.6,5.2 -0.2,4.8 6.6,7.5 7,-1.5 2.8,-6.1 -0.6,-6.1 -1.3,-6.2 z" title="Swaziland" data-confirmed="19,918" data-deaths="692" data-recovered="18,466" data-active="760" data-index="1"/><path d="m 582.5,246.4 -48.7,-26.5 -48.4,-26.5 -11.9,7.6 3.4,21.5 4.6,3.6 0.3,4.4 5.1,4.7 -2.5,6 -4,28.1 -0.2,18 -15.2,13 -4.9,18.2 5.1,5.2 0.1,8.9 7.8,0.3 -1.1,6.5 4.9,8.9 1,9.1 -0.4,9.2 6.8,12.6 -6.8,-0.1 -3.4,0.9 -5.6,-1.3 -2.5,6.5 7.2,8.1 5.3,2.3 1.8,5.7 3.9,9.6 -1.8,3.7 10,-1 2.2,-3.6 2.1,0.3 3,3.1 15.3,-5.3 5.1,-5.4 6.3,-4.8 -1.2,-4.9 3.4,-1.2 11.8,0.8 11.3,-6.4 8.6,-15.1 6,-5.6 7.7,-2.3 0.1,-3.4 -4.6,-4.1 -0.3,-8 -2.6,-5.4 -4.3,0.8 1.2,-5 3,-5.8 -1.5,-5.7 3.8,-4.3 -2.6,-3.2 3,-8.5 5.2,-10.2 10.5,0.9 -2.4,-54.9 z" title="Chad" data-confirmed="4,954" data-deaths="174" data-recovered="4,777" data-active="3" data-index="1"/><path d="m 307.1,365.2 -10.7,-0.3 -0.9,4.3 5.1,7.1 0,10.1 1.2,10.9 3,5 -2.7,12.5 1,6.8 3.2,8.8 2.8,4.9 9.8,-3 -3,-9.5 0.5,-31.8 -2.5,-2.8 -0.4,-6.8 -4.3,-4.9 -3.7,-4.1 1.6,-7.2 z" title="Togo" data-confirmed="14,270" data-deaths="133" data-recovered="13,656" data-active="481" data-index="1"/><path d="m 429.5,59 -4.5,-2.2 -3.2,-6.6 -6,-0.2 -2.4,-7.6 7.3,-7 1.1,-12.1 -4.1,-3.5 -0.2,-6.5 5.5,-7 -0.9,-2.7 -9.5,5.2 0.1,-7.1 -8.1,-1.7 -12.2,5.7 -2.2,7.2 2.3,13.4 -2.4,11.6 -7,7.8 1.3,10.4 9.7,8.3 0.2,3.3 7.3,5.6 5.7,24.7 5.6,-3.2 0.9,-5.8 -1.5,-5.7 7.9,-5.3 3.4,-4.4 5.6,-4 0.3,-10.6 z" title="Tunisia" data-confirmed="497,613" data-deaths="16,388" data-recovered="393,305" data-active="87,920" data-index="5"/><path d="m 672.2,531.3 -4.3,1.7 4.8,7.8 -0.8,8.1 -3.5,1.8 0,0 0.6,5.4 2.6,3.2 0.1,4.5 -3,2.9 -4.9,7.2 -4.5,5 -1.2,0.2 -0.7,5.9 2.3,2 -0.5,5.9 2.3,5.5 -2.9,5.3 9.7,9.4 0.8,8.5 5.9,14.2 0,0 0.6,0.4 4.8,2.3 7.7,2.4 6.8,4.1 11.9,2.6 2.3,3.8 0,0 0.8,-2.7 6.2,7.4 0.6,14.5 3.9,5.3 -0.1,0.2 4.7,-0.5 14.4,3.9 3.3,-1.8 8.4,-0.3 4.5,-4.2 7.3,0.2 13.4,-5.3 10,-8.1 0,0 -4.4,-3 -4.7,-13.6 -4,-8.7 1,-6.6 -0.6,-4.2 3.5,-8.4 -0.3,-3.6 -7.7,-5 -0.6,-7.8 5.9,-17.1 -17.3,-13.8 -0.7,-8 -44.1,-28.2 0,0 -6,6.1 -4.1,6.3 4.8,4.7 -7,3.4 -1.5,-1.6 -7.1,0.9 -5.5,3.1 -3.3,-5.4 2.3,-9.7 0.5,-8.3 0,0 0,0 -13.4,-0.2 z" title="Tanzania" data-confirmed="509" data-deaths="21" data-recovered="183" data-active="305" data-index="1"/><path d="m 711.3,458.5 -7.4,6.4 -8.6,-0.1 -9.8,3.3 -7.8,-3.1 -5,3.8 0,0 -0.6,16.1 4.9,1.9 -3.9,4.9 -4.7,3.7 -4.6,7.2 -2.6,6.4 -0.6,11.1 -2.9,5.3 -0.1,10.5 2.9,1.4 7.4,-4.3 4.3,-1.7 13.4,0.2 0,0 -0.7,-5.3 5.7,-8.1 7.7,-2 5.2,-3.3 6.3,2.7 0.6,1 0,-0.7 3.5,-5.6 5.9,-9.2 4.4,-10.1 -5.5,-15.8 -1.5,-7 -5.9,-9.6 z" title="Uganda" data-confirmed="87,277" data-deaths="2,104" data-recovered="61,304" data-active="23,869" data-index="1"/><path d="m 522.3,999 5.3,-0.3 7.5,-5.3 10,-2.2 12.3,-5.5 4.7,0.7 7.2,-1.7 12.3,2.7 5.9,-2.6 6.9,2 1.8,-3.8 6,-0.8 12.6,-5.3 9.3,-6.3 8.9,-8.3 14.4,-14.2 7.5,-9.9 3.9,-7.1 5.5,-7 2.5,-2 8.6,-7 3.5,-6.2 2.3,-11.5 3.7,-10.1 -9,-0.1 -2.8,6.1 -7,1.5 -6.6,-7.5 0.2,-4.8 3.6,-5.2 1.4,-4 3.5,-1 5.8,2.6 -0.7,-5 3,-15.4 -2.5,-9.9 -4.7,-19.5 -6.3,-1.3 -4.1,1.6 -5.7,-2.3 -4.9,-0.2 -17.3,10.2 -11.2,10.3 -4.4,9.3 -3.9,5.2 -6.5,1.1 -2.4,6.6 -1.4,4.3 -7.8,3.2 -9.6,-0.6 -5.5,-3.9 -4.9,-1.7 -6,3.2 -3.2,6.6 -5.8,4.2 -6.2,6.2 -8.5,1.4 -2.5,-4.9 1.5,-8.4 -6.5,-13.2 -3.2,-2 -2.2,51.1 -10.8,7.1 -6.4,1 -7.3,-2.6 -5.2,-1 -1.7,-6 -4.5,-3.7 -6,6.8 7.7,17.9 0,0.1 5.4,11.7 6.9,12.8 -0.2,10.6 -3.9,2.5 3.2,9.3 -0.5,8.1 1.3,3.8 0.7,-1.9 4.6,6.2 3.8,0.2 4.6,5 z m 103,-59.1 -4.3,1.3 -8,-10.6 6.9,-8.7 6.8,-5.4 5.7,-2.8 4.8,4.2 3.8,4.2 -4.1,6.7 -2.4,4.5 -6.7,2.2 -2.5,4.4 z" title="South Africa" data-confirmed="2,195,599" data-deaths="64,289" data-recovered="1,922,601" data-active="208,709" data-index="20"/><path d="m 671.3,636 -4.1,-1.1 0.7,-3 -2.1,-0.6 -16.4,2.3 -3.3,1.7 -3.6,8.8 2.6,6.1 -2.5,16.4 -1.9,13.9 3.2,2.4 8.4,5.4 3.4,-2.5 0.6,14.9 -9.3,-0.1 -4.8,-7.6 -4.3,-5.9 -9.2,-1.9 -2.6,-7.3 -7.5,4.4 -9.7,-2 -3.9,-6.2 -7.7,-1.3 -5.7,0.3 -0.6,-4.3 -4.2,-0.3 1.2,4.3 -1.5,6.7 2,6.5 -2,5.2 1,4.7 -25.3,-0.1 -1.6,44 7.8,11.3 7.6,8.6 9.9,-3.1 7.8,0.8 4.7,3.1 0,1.2 2.2,1 13.4,1.5 3.8,1.6 4.1,-0.3 7,-9 10.9,-11.4 4.4,-1 1.7,-4.8 7,-5.5 9.3,-1.9 -0.8,-9.9 37.1,-11.4 -6.2,-3.6 4.1,-12.8 4,-4.8 -2,-11.5 2.7,-11.2 2.2,-3.8 -2.8,-11.7 -5.6,-6.2 -6.8,-4.1 -7.7,-2.4 -4.8,-2.3 -0.6,-0.4 0,0 0.9,2.3 -2,0.8 -2.6,-2.9 z" title="Zambia" data-confirmed="175,729" data-deaths="2,822" data-recovered="160,215" data-active="12,692" data-index="2"/><path d="m 669.1,825.1 13.4,-15.7 3.6,-9.9 1.9,-1.3 1.7,-8.1 -1.7,-4.1 1,-10.4 2.8,-9.6 0.8,-17.5 -6.1,-4.4 -5.7,-1 -2.5,-3.4 -5.5,-3 -10,0.3 -0.6,-5.1 -9.3,1.9 -7,5.5 -1.7,4.8 -4.4,1 -10.9,11.4 -7,9 -4.1,0.3 -3.8,-1.6 -13.4,-1.5 4.2,11.1 2.3,2.4 3.5,8 13,15.2 5.1,1.5 -0.2,4.9 3.1,8.8 9.2,2.1 7.3,6.2 4.9,0.2 5.7,2.3 4.1,-1.6 6.3,1.3 z" title="Zimbabwe" data-confirmed="67,765" data-deaths="2,185" data-recovered="45,617" data-active="19,963" data-index="1"/><path d="m 832.6,372.8 -5.7,-5.8 -2.5,-5.7 -4.1,-2.6 -4.2,7.4 -2.5,4.9 4.8,7.7 4.6,6.6 4.8,5 40.3,16.4 10.3,-0.1 -33.5,41.5 -15.9,0.6 -10.7,9.8 -7.8,0.2 -3.3,4.4 -10.5,15.7 0.4,50.4 7.2,11.4 2.7,-3.3 2.9,-7.3 13.4,-16.7 11.4,-10.6 18.1,-13.7 12.1,-11.2 14.1,-18.9 10.1,-15.5 10,-20.2 7,-17.7 5.4,-15.5 2.9,-14.9 2.4,-5 -0.4,-7.3 0.8,-8 -0.5,-3.9 -4.6,0.1 -5.5,4.7 -6.4,1.4 -5.5,2.1 -3.9,0.2 0,0 -6.9,0.5 -4.2,2.6 -6,0.9 -10.5,4.3 -13.2,1.6 -11.3,3.5 -6.1,0 z" title="Somalia" data-confirmed="15,036" data-deaths="777" data-recovered="7,261" data-active="6,998" data-index="1"/></svg>