<svg xmlns:svg="http://www.w3.org/2000/svg" xmlns="http://www.w3.org/2000/svg" preserveAspectRatio="xMidYMid meet" version="1.1" xmlns:xlink="http://www.w3.org/1999/xlink" xmlns:ev="http://www.w3.org/2001/xml-events" viewBox="0 0 1000 684" max-index="5813000"><path d="M654.7 528.1l0.5 0.4 2 2.9 1.4 0.5 1.9 1.3 1.4 3.2 0.1 2.2-0.5 2.6 0.3 2.1-0.8 0.8 0.7 2 0.2 1.9 1.2 2.2 1.2 1.1 1.3 2.4 1.6-0.2 1.3 1.1 0 1.1 1.1 1.8-0.8 2.6-1.7 0.8-1.2 3.1-0.3 2-0.6 0.5-1.9 0.3-1.7 1.3 1 2.2-0.9 0.7-0.3 1.5-0.7 0.7-2.7-0.9-0.7-2.5-1.7-2.7-4.9-2.6-1.2-1.1 0.4-1.5-0.1-1.4-1.4-2.4 0.3-2.6 0.8-2.2-0.3-2.7 0.1-2.1-0.7-2.9 0.5-2.1 0.9-1.3-0.2-2.2-1.5-1.1-1.6-0.2 0-3.1-0.3-0.6 1.7 0-1.7-2.8 3.2-5.3 1.1 0.3 0.8 2.1 3.4-1.2z" title="Albania" data-confirmed="132,592" data-deaths="2,456" data-recovered="130,050" data-active="86" data-index="1"/><path d="M423.4 528.8l-2.8 1.1-0.7-0.4 0-2.1 0.9-0.7 2.6 0.6 0 1.5z" title="Andorra" data-confirmed="14,075" data-deaths="127" data-recovered="13,770" data-active="178" data-index="1"/><path d="M974.6 572.4l-3.2-2.8-2.3-1.7-1.6-0.7-3.5 0.4-2.9-0.9-1.8-0.9 0.5-0.6-1.9-3-0.8-1.9 1-1.4 0.2-2.3-1.7-3.3-1.7-1.2-1.3-1.6 4.4-0.3 5.3-1.3 3.2 0.3 1.1-0.2 3.5-0.1-0.5-0.7 2.3-0.5 1.3 1.5 1.6 1-0.9 0.9 2.3 1 1.2 0 3.3 2.5 0 0.7-1.9 1.5-0.2 1.1 3.2 3.4 2.4 1.4 3.2 1.5 0.2 0.9-0.9 2.5-3 0 0.6 0.9 1.9 1.2 6.1 4.4 1.5-0.3 2.2 0.9 0.2 1.3-1 1.4 1.9 1.4 0.8 1.5-1.8 0.5 1.4 1.5 0.5 2.6-2.2-0.1-2.5 0.5-3-4.7 0.1-1-3.1-2.1 0.1-1.7-0.8-1.2-1.7 0.2-1.9 0.9-2.9-1.6-1.2 0.2-0.3-1.1-1.8-1.7-3.2 0.9z" title="Armenia" data-confirmed="226,459" data-deaths="4,547" data-recovered="217,731" data-active="4,181" data-index="1"/><path d="M607.8 434.9l-0.9 2.4 0.1 0.8 1.6 2.9 2.3 2.9-0.6 0.7-0.6 1.9 0.7 2-3.9 0.3-2.5-0.9-1.3 1.4 2.6 0.7 0.5 1.1-0.5 1.4-2.2 1.2 0.4 1.5-0.5 0.7 1.1 1.6-0.3 1.8-2.5 0.5-1.8 1.7-1.3 0.9-0.1 1.9-2.4-0.5-1.6 0.2-2.3 1.1-2.8-0.2-2.6 0.2-1.9 0.7-1 1.3-3 1.2-5-0.7-5-0.9-2.6-0.5-4-0.3-8.6-1.5-1.1-0.5-3.1-3.5 0-2.3-4.7 1.5-3.1-0.2-3.4 0.3-1.4 0.6-1.2 2.2-1.1 0.4-2.1-0.4-0.9-0.8-3-0.3-0.5-1.5-0.8-0.3-2 1.9-2.3-0.4-1.5-0.8-0.4-1-3.3-0.8 0.3-0.8-1.1-2.5 1-3-0.9-0.7 1.7-0.5 0.7-0.5 3.5 1.6 0.9 1.4 1.2 0.3-0.1 1.3 1.6-0.5 1-1.6 0.2-1.9 2.8-0.1 2.7 0.4 1.4 1.9 3.8-0.5 1.1-0.9 3.9-1.5 5.7-0.5 0.1-1.4 2 0.3 1.5 0.8 2.5-0.5 1.1 0.5 0.2 1.1 1.2 0.9 1.7 0.4 0.3-1.5-0.3-1.9-1.7-0.3 0.6-1.3-0.1-1.3-2.5-2.8 0.6-1.3 3.1-1.8 2.9-0.8 1-1 0.7-2.9 2.3 0.9 1.3-0.9 0.2-2.8 2.2 1.2 0.8 1.3 3.9 0.4 1.4-0.7 2.5 0.4 0.1-1.1 1.3-1.6 1.2 0 0.3-3.2 1.2-0.2 1.6 0.8 1.4-0.4 4.8 1.7 1.5-0.1 3 1.7 3.8 0.2 1.2-0.9 5.1 1.5 1 1.6z" title="Austria" data-confirmed="651,612" data-deaths="10,723" data-recovered="638,889" data-active="2,000" data-index="3"/><path d="M470 401.8l1.6-0.5 0.8 0.8 1.2 0.1 3 2.3-0.4 1.5 1.7 0.7 0.4 2-2.3 1.3-0.6 1.7-1.7-0.7-1.3 1.3-1.4 2.5-0.2 1.7 2 2.4-1.1 1.7-3.4 0.4-2.8-2.6-3.3-1.5-1.7-0.1-0.4-2-0.6-0.6 0.8-2.7-1.9 0.6-0.5 1.4-1.3 0.6-2.2 0.3-2.3-0.3-0.5-0.6 0.7-1.4-0.7-0.7 0.4-1.6-1.6-1.1-3.6-0.4-0.9 0.3-0.6-2-4.2-1.1-0.5-2-1.6-1.8-3.2 1-2.9-2.4 0-1.2-0.9-2.2 5.1-2.5 4.7-1.7 0.3 1.3 1.2 0.7 1.2-0.6 3.9 1.1 3.2-1.5 0.6-1.2 2.1 0.3-0.2-0.9 1.4-0.7 1.5 0.8 1.5-1 1.1 1.3 2.5-0.8 0.5 1.6 2.6 1.4 1.9-0.4 1.7 1.3 2.6 1.1-1 2.9-1.1 1.3 0.7 1.1z" title="Belgium" data-confirmed="1,093,700" data-deaths="25,198" data-recovered="0" data-active="1,068,502" data-index="4"/><path d="M759.6 509.6l0.2 3.7-0.9 1.8-2-0.6-2.2 0.5-1 2-1.2 1.2 0 2.6 0.4 4.2-1.6 0.7-2.9 3.7 3 1.8 1.7 2.2 2.4 2.5 0.5 1.2-1.7-0.2-0.9 0.4-1.8 0-1.5 0.6-3.4-2.5-3.5 0.3-1.5 1.1-3.4 0.4-1 2.2-1.9 0.3-0.3 1.4-1.6-0.5-1.6 1.1 0.7 1 0.9 2.7-0.2 0.8-2.5 1.2-1.8-0.3-3.2 0.4-3.4 0.9-1.7-1.1-3.7-1.2-0.9 0.6-2.4-1.4-1.2-1.7-1.6 0.5-4.2-0.1-0.2 0.9-1.9 0.2-3 1.1-2.6-0.2-2.4 0.2-1 1-3-0.2 0-4.2 0.5-1.7-0.9-1-1.7-3.3-3.4-1.8-3.3-3.2 1-0.3 1.1-1.7-1.4-2.9 0-3.3 1.1-0.6 1.8-0.1 1.1-1.6 1.6-1.7 0.3-1.4-1.6-1-1.3-1.6-2.9-1.5-2.4-3.9-0.6-2.4 0.4-2.3 2.1-1 0.2-1.9 0.9-0.7 4.3 2.5-1.8 2 0.9 1.8 3.7-0.6 3.9 0.3 5.3 1 3.5 0.4 2.5-0.5 9.4 1.7 4.2 0.2 2.3-0.6 1.6-0.9 1.2-1.6 3.3-2.1 3.2-1.2 4.4-0.9 2.9-0.4 4.5 2.3 3.2 0.4 0.9 0.6 1.7-0.5 2.5 2.6 2.2 0.7 2.6 0.5 2 0z" title="Bulgaria" data-confirmed="422,462" data-deaths="18,140" data-recovered="396,316" data-active="8,006" data-index="2"/><path d="M638.2 492.2l2.8-0.7 1.5 0.8-0.5 2.5-1.6 2.7-0.1 2.6 0.5 0.8 2.4 1.2 3.3 2.9-0.3 0.8-3.1-0.1-0.5 0.8 3.2 3.7-0.2 2.2-2.5-0.3-0.7 0.8-3.2 0.5 1.4 2.2-2.3 0.2-2 1.7-0.5 1.7 0.1 1.5-1.7 0.2-0.5 0.7 0.6 3 1.1 1.6-0.1 0.8-1.1 1-1.7-0.7-6.2-3.8-0.6-0.9-1.6 0.1-1.1-0.6 0.3-1.6-3-2.5-1.5-1.6-0.4-2.2-2.4-1.1-5-4.1-1.7-2-2.8-2.3-2.3-2.4-1.3-4-3.4-3.2-1.9-1.3-0.1-1.4 0.3-5 1.2-0.6 1.8 0.4 1.7 1.8 1.8 1 2.7-3.2 3.2 0.3 1.5-1.2 2.7 1.6 2.5 0.1 2.8 0.7 1.7-0.6 1.6 1.3 2.2-1 1.8 0.3 1.8-0.2 2.6 0.7 2.2 0.2 1.1 0.8 1.3 2.2 2.2 0.2z" title="Bosnia and Herzegovina" data-confirmed="205,145" data-deaths="9,667" data-recovered="184,999" data-active="10,479" data-index="1"/><path d="M724.5 321.5l1.8 1.3 1.2-0.4 1.9-0.1 3.1 2.2 1.6-0.9 1.5-0.3 3.6 1.2 0.2 2.3 1.7 1.5 2.1-1.3 2.7-1.1 3.4 0 2.7 0.9 2.4 1.8 3.5 1.4 0.4 2.5-0.6 1.8 2.1 2.1 0.5 1.3-1.3 2 0 2 4.1 2 0.5 0.5-0.5 1.8 1.4 0.6 1.8 2.4 1.5 1.4 4.9 2.1 0.7 0.8-0.4 2.8 5.3 0.5 3.2 1.3 0 1.1 0.7 1.1 2.8 1.4 0.6 1.7-2.6 1-0.3 0.9-3 1.8-3.5-0.2-2.4-1.5-2.9 0.1-1.4 2.7 3.9 3.3 0.6 1-0.2 1.5 1 1.5 0.5 3.3 1.6 1.4 1.3 1.8-5-0.1-1.4 0.8-1.7-0.4-1.1 0.5-2.2 2.3-0.8 1.2-1 3.3 1.8 3.6-0.8 1.4-2.7-0.9-0.5-1.2-2-1.1-7.1 0.6-2.3 0.8-0.6-0.5-2.5-3-3.8 1.6-0.6 1.1-1-0.3-0.8-1.3-5.1-1-1.9 0.7-1.9-0.5-1.2 1.7-0.8-1.4-1.1-0.4-3 0.1-1-0.3-1.8-2.1-2.3 0-6.1-0.9-6.5-1.5-7.8-0.4-2.4 0.1-2.3 0.5-5.9 0.5-0.8 1.4-1.6 1.6-1.9 1.2-1.1-0.5-1.9-0.3-1.1 0.5 0.1 1.4-1-1.6-0.1-1.3 0.8-1.5-0.4-1.1 0.2-2.4-0.8-1-1.8-1-3.3-1.3 0-1.2 2-2.7 0.8-0.5 4-1.7 0.6-1.6-0.9-3.9-1.7-3.6-2.9-4.9-2.1-5.1 2.9 0.4 1.6-0.3 3.7-0.3 1.6 0.9 3.3-1.3 1.8 0.1 0.8-2.6 2 0.2 1.4-1.2 2.1-0.5 1-0.7 1.7 2.3 2-0.2 0-1-0.9-1.1-1.9-0.5 0.5-2 1-1.5-0.4-2.3 1.1-3 2.6-0.6 0.8-0.6 1-2 3.6 0.1 0.4-1.1 1.3-1-3.9-1 0.7-3.1 0-1.8 2.6-0.6 1.2-1.5 1.1-0.3 3 0.4 3.1 0.1 0.4-1.7 2.5-2.4 1.4-0.8 1.3-0.2z" title="Belarus" data-confirmed="427,906" data-deaths="3,257" data-recovered="421,305" data-active="3,344" data-index="2"/><path d="M514.1 449.1l0.8 1.1 2.6 1.3 1.2 0 0.9 0.7-1 3-0.5 1.5 0.1 1.7 1.2 0.1 3.3 0.8 0.4 1 1.5 0.8 2.3 0.4 2-1.9 0.8 0.3 0.5 1.5-0.5 3.1 0.5 1.8-1.9-0.2-1-0.9-1.3 0.3-0.6 1.8 1.5 3.5-1.2 0.3-1.4-1.9-0.7-0.1-2.9 1.1-2-0.8-0.8-2.1-2 0.1 0 2.9-0.5 1.1-2.2 2.6-0.2 1 0.7 1.7-1.2 0.7-0.9-1.4-1.3-1.2 0.4-1.2-2.2-0.6-2.4-2-0.2-2.5-1-0.6-3.4 2.9 0.6 1.5-1.6 2.2-2.4 1.4-3.1-0.8-2.6 1-2.4 0.5-1.4-0.7-0.9-1.4-2.3-2.3 0.5-1.7-0.8-2.2-2.2-0.3-1.9 0.1-2.3 1.5 0.5 1.3-2.3 1.6-1.4-0.1 0-1 1.5-1 0.3-1.5-0.8-0.7 1.1-2.9 3-2.2 0.5-2.9 2.1-0.9 3.8-4 0.6-0.9-1.3-1.1 1.8-1.4 1.1 0 0.8 0.8 2.7-0.3 0.8-1.4 1.5-0.7 1 0.3 2.8 0.1 3.3-0.6 2.6 0.2-0.2-1.5 1.3-1.2 1.3 0 1.4 1 0.8-0.2 1.1 0.9 3.7-0.2z" title="Switzerland" data-confirmed="704,943" data-deaths="10,898" data-recovered="317,600" data-active="376,445" data-index="3"/><path d="M578.9 400.5l2.1-0.4-0.1-1.9 3.3 0.8 0.3 1.1 1 1.1 4.6 1.1 2.7 1.1 0.8 0.9 3.2-0.7 1.8 1.2-0.7 1.1-1.6 1.2 1.6 0.9 2 1.8 1.5 1.9 1 0.4 3.5-2.5-1.7-2.4 1.3 0 2.2 0.6 3.3 1.9 3.6-0.7 0 1.6-1.4 0.5 2.7 2.3 1 0.6 1.8-1 3.5 1.8 0.5-0.2 2.7 0.8 0.5 1.8 2.8 2.2 0.5 1.6-2.8 0.3-2 1.5-0.6 0.8-2.3 1.2-0.7 3-1.6 0.8-2.1 1.9-1.5 0.7-1.7 0.2-3.6-0.5-1.4 1.2-1.1 2.8-1-1.6-5.1-1.5-1.2 0.9-3.8-0.2-3-1.7-1.5 0.1-4.8-1.7-1.4 0.4-1.6-0.8-1.2 0.2-0.3 3.2-1.2 0-1.3 1.6-0.1 1.1-2.5-0.4-1.4 0.7-3.9-0.4-0.8-1.3-2.2-1.2-0.6-0.7-2.9-2.2-1.3 0-1.3-1.6-2.5-1.5-2.9-2.6-1.3 0-2.3-2-1.8-2.7-1.4-1.5 1.2-1.7-0.6-1.6-2.3-1.3-2.5-3.4 0.5-0.7 1.9 2 1.9-2.6 1.1-0.6 2.6-0.6 2.1 0.4 0.8-1.3 2-0.3 0.6-1 1.6-0.7 1.1 0.1 0.6-1.2 4.4-1 3.5-1.5 1.9-0.6-1.5-1.5 0.8-0.6 2.2 0.4 1.5 1.5 0 0.9 1.4 0.6 0.9-0.7z" title="Czech Republic" data-confirmed="1,669,496" data-deaths="30,331" data-recovered="1,637,123" data-active="2,042" data-index="6"/><path d="M567.9 355.2l-3.4-0.1-0.2-1.7-1.1-1-0.1-1 4.7 2.6 0.1 1.2z m-34.8-8.1l-1.8 0-1.4-0.7 0.8-1 1.7 0.4 0.7 1.3z m28.3 0.5l-1.3 0.7-1.3 0-1.3 1.3-2.1-1.1-0.5-1.1 0.1-2.2 0.6-1.4 2-0.9 0.9 1.2 1.7 0.6-0.5 1.7 1.7 1.2z m-46.6-6.6l1.8 0.7 1.6 1.6 0.1 1.4-1.7 1.6 3.2-0.3 0.8 1.2 1.7-0.4 4.5 1.8 3.2-0.9 0.7 1.4-0.6 1.5-2.2 1.6 1.4 1.2 2.1-0.2 3.6 0.9 3.3-2.5 1.1-0.5 3.6-0.3 5.1-4.5 5.3 0.9 1.5 1.9 3.7 2.1 3.2-0.2 1.3 2 0.8 2.5 1.9 1.3 2.8 0.5 0.7 2.6 1.8 4.1-0.3 2.7-1.9 1.8-0.7 1.6 1.6 1.4 3.3 2.1 1.4 1.7-0.6 2.6 2 2.3 0.8 1.9-0.7 2.6-0.8 1.1 1.9 3.1 0 1.6 2.2 0.9 1.6 3.2-0.4 2.3-1.6 3.6-0.9 0.7-1.4-0.6 0-0.9-1.5-1.5-2.2-0.4-0.8 0.6 1.5 1.5-1.9 0.6-3.5 1.5-4.4 1-0.6 1.2-1.1-0.1-1.6 0.7-0.6 1-2 0.3-0.8 1.3-2.1-0.4-2.6 0.6-1.1 0.6-1.9 2.6-1.9-2-0.5 0.7 2.5 3.4 2.3 1.3 0.6 1.6-1.2 1.7 1.4 1.5 1.8 2.7 2.3 2 1.3 0 2.9 2.6 2.5 1.5 1.3 1.6 1.3 0 2.9 2.2 0.6 0.7-0.2 2.8-1.3 0.9-2.3-0.9-0.7 2.9-1 1-2.9 0.8-3.1 1.8-0.6 1.3 2.5 2.8 0.1 1.3-0.6 1.3 1.7 0.3 0.3 1.9-0.3 1.5-1.7-0.4-1.2-0.9-0.2-1.1-1.1-0.5-2.5 0.5-1.5-0.8-2-0.3-0.1 1.4-5.7 0.5-3.9 1.5-1.1 0.9-3.8 0.5-1.4-1.9-2.7-0.4-2.8 0.1-0.2 1.9-1 1.6-1.6 0.5 0.1-1.3-1.2-0.3-0.9-1.4-3.5-1.6-0.7 0.5-2.2-1.2-5.1-2.3 1 1.6-3.7 0.2-1.1-0.9-0.8 0.2-1.4-1-1.3 0-1.3 1.2 0.2 1.5-2.6-0.2-3.3 0.6-2.8-0.1-1-0.3-1.1-1.3 0-1.5 0.6-2-0.2-2.4 0.3-1.5 1-1.8 1.4-5.5 3.5-3.8-0.1-1.3-1.6-0.6-4.8-0.8-2-1.4-3 0.6-2.1-0.1-0.3-0.9-1.4-0.4-1.8 0.7-3.5-4.3-1.4-0.1 0.6-3 0.9-0.9 0-1.4-2.8-1.1-1.5-1.6-0.3-2.2 0.6-1.7 2.3-1.3-0.4-2-1.7-0.7 0.4-1.5-3-2.3 0.6-2.4-1.9-1.2 0.5-0.8 2.2-1.6-0.7-1.2 1.3-2.8 0-1.2-3.1-4.1 0.7-1.1 1.8-0.7 2.3 0.8 4.5-1.3 0.7-1-1-0.9 0.3-0.9 2.6-1.6 0.6-2.6-0.8-1-2.6-0.3-0.7-1 0.6-1.6 3.1 0.1 1.1-3.8 0.7-1.7-0.1-4.3-1.7-1.4 0.5-2.7 1.1-1.4 0.9-0.4 4-0.3 4.5 0.1 1.9 2.2-0.6 1.2 1.6 0.3 0.9-2.4 1.4 0.8 1.1-0.1-0.5-1.7 0.2-1.6 0.9-1.4 3.3 0.6 3.6-0.3 0.1-0.6-2.8-0.5-0.9-1.1-0.2-3.9-1.5-0.8-1.6 0.3 0-1.5 3.4-1.1 0-1-3.4-3.8-0.2-1.6 2.7 0.1 5.2 1.3 3.1-0.7 1.5 0.4z" title="Germany" data-confirmed="3,757,159" data-deaths="91,767" data-recovered="3,634,306" data-active="31,086" data-index="13"/><path d="M533.5 340l2.1 1 2.4 0.3 0.4 1.9-3.5 0.7-5.1-2.1 0.1-2.5 2.3-0.2 1.3 0.9z m13.7-1.1l-2.3 0.1-1.9 1-0.3-1.2 1.6-1 1.2 0.2 1.7 0.9z m-28.8 1.2l-1.2 0.2-1.7-0.5-0.6-2.3 2.7 1.1 0.8 1.5z m8 2l-1.4-1.5 2.5-2.9 0.7-0.2-1.8 4.6z m50.1-4l-2.4-0.2-2.4-1 0.1-2 0.5-0.9 4.5 2.3-0.3 1.8z m-52.1-8.7l2.3 4.3-0.1 2.8-1.8 1.2-2.1 0-5.4-1.7-1.7-2.9-0.1-2.3 4.8-1.4 2.6 0.8 1.5-0.8z m23.3 0.2l-1 0.6-0.7-0.9 0.9-0.9 0.8 1.2z m-23.9-2.8l-0.9 0 0-3 1.5 1.6-0.6 1.4z m22.6 0l0.1 1.5-0.7 0.7-2 0.7-1.1 1.8 2 1.2 0.5 1.5-1 0.7-2.6 0.7 0 5.6-2.2 0.6-1.5-2.1-0.1-0.9-1.3-3.1-2-0.4-2.2 0.1-1.5-1.8 0.1-2.1-1-2-1.3-0.6 0.4-1.4 3.1-0.2 1.5-1.9 0-0.9 1.8-0.2 0.8 0.7 0.1 2.6 1.6 0.5 1.1-2.9-0.9-1.1 3.9-2.2 1.1-0.1 3 0.9-0.4 2.1 0.7 2z m-31.6 14.2l-1.5-0.4-3.1 0.7-5.2-1.3-2.7-0.1-0.5-2.1-0.8-1.4 1.1-0.3-0.9-3.9-3.2-1.3-2.5-1.4 0.5-5.6-1-2.3 0.1-6.9 1.3-0.1 3.1 0.8 1.5 0.9 0.6-1.9 1.6-1.6 2-0.8 1.6 1.3 0.3-4.5-1.6-0.5-1.3 0.4-1.3 1.9-1 2.4-1.9 0.2-1.5 0.7-2.4-1.4 0.1-1.4 1.6-1.9 2-1.9 2.2 0 1.6-0.6 3.9 0.1 2.8-1.3 2.8-3.6 1.5-1.5 3.3-0.5 3-1.7-0.8 2.5 1.2 1.7 0 3-0.9 1-1.4 2.5 0.2 5.6 2.5 1.5 4.1 0 1 1.1-0.7 2.2-2.6 1.4-0.9 0-1.4-1.1-1.1 0.9-1.2 5.1-2-0.1-1.2 0.5 1.4 1.2-1.3 0.8-3.4 3.1 1.1 3.4-0.2 0.9-1.5 1.3-0.6 1.1 2.3 0.3 1.3 2.9z" title="Denmark" data-confirmed="299,223" data-deaths="2,539" data-recovered="290,372" data-active="6,312" data-index="2"/><path d="M655.5 285.3l3.9 0.2 4 1.8-1.8 0.7-3.7 2.5-0.3 0.5-2.6-0.1-1.4 0.2-1 0.9-0.9 2.8-1.6 0.5-0.3-0.9 1.6-1.8-1.5-1.4-1.9-0.7 0.9-1.8-1.6-1.6 1.5-0.2 1 0.5 2-0.5 0.5-1 3.2-0.6z m8.3 1l-0.9 0.2-2.4-1.1 1-1 1.9 0.5 0.4 1.4z m-5.4-4l-0.8 0.7-0.9-0.6-0.9 1.6-1.3 0.3-1.9-2.5-2.9-0.5-1.3-0.7 4.5-0.4 1.2-1.6 1.3 0.1 0.4 0.9 2.1 0.3 0.9 1-0.4 1.4z m53.2 18.9l-1.9-0.2-3.4-1-4 1.2-2.8-1.1-3.5-2.7-0.6-0.7-2.3-0.5-5.6-2.5-1.1 0.7-1.5-1-8.4 2.8 1-3.4 0.1-3.6-2.3-0.4-0.9 1.3-1.3 0.3-4.1-1.3-1.2-2.1-1.6-1.1-0.8-1.2 0-1.8-1.5-2 0.7-1.1-0.7-2.8 3-1.2 3.3-0.2 0.9-1.3 2-1.3 2.3 0.2 3.1-1 6.3 0.1 0.4-1.7 3.2 0 7.6 1.2 1.8 0 2.8 1.2 1.4 0.3 4 0 6.3 0.5 1.2-1 1.5 1.2-1 1.4-1.2 0.4-0.9 3.2-0.8 1-1.7-0.3-2.5 0.2-2 0.5-1.3 1.1 0.1 1.1 2.6 2.3 1.4 2.8 2.6 2.2 0.8 1.3 2.4 2.9 1.8 2.5-2.3 0.6-1.2 2-0.2 2z" title="Estonia" data-confirmed="131,508" data-deaths="1,270" data-recovered="127,867" data-active="2,371" data-index="1"/><path d="M646.5 260l2 0.2-0.6 2.8-2.3-1.8 0.9-1.2z m-1.9 0.5l-2.1-0.6 0.9-0.8 1.2 1.4z m-6.5-2.7l-1.5 0.7-0.3-1.7 1.8 1z m25.5-62.9l-1.5 0.5-1.3-0.3-0.2-0.9 2-0.6 1 1.3z m30.1-54.6l-3.7 1.3 1.6 0.8 0.8 1.2-2 3.2 0.1 0.6 3.1 4 7.2 1.7 2.3 1.8 3.6 2.3 1.8 0.9 0.1 1.9-3 3-2.6 3.1-1.2 1.7 0.4 1.7 2.6 2.1 2.3 2.2 3 3.5 3 2.5 3 4.2 0.4 1.4-3.7 0.7 1.2 0.9-0.6 1.3 0.3 1.9-0.5 1.5 1.9 0.3 0.3 1.3-1.7 1 0 0.9 1.4 1.7 1 0.6 3.2 0.6 0.9 1.6-1 1.7 1.8 2.2 4.5 1.8 0.7 1.3 0.2 1.7-2.4 3-2 0.8 0.7 0.8 4.5 2.6 6.6 2.9 2.6 1.3 2.1 1.9 2.2 1.6 0.5 1-1.6 4.5-0.7 1.2-2.2 2.2-3.4 2.8-2.3 2.3-5.3 5.9-1.9 1.5-2.1 2.2-4.9 3.3-0.7 0.8-2.5 1.5-5.6 5.2-3.5 1-2.6-1.1-1.8 0.2-1.2 0.8-2.5 0.2-2 0.6-1-0.7-0.7 0.6-1.9 0.2-2-1 0.3 1.5-3.3 1.5-0.8-0.9-2 1-2.1 0.2-1.1 0.8-5.9 1.1-1.5 1.3-1.2-0.3-6.7 1.1-2.9-0.2-2.7 2-1.8 0.4 1.5-3-2.4-1.1-1.2-1.6-0.7 0.4-0.3 1.5-1.5 0.8-2-0.1-0.4-2.4 0.8-2.3-3.6-0.6-3.8-1.4-0.9-0.1-0.7-1.3-2 0.9-2.1-0.9-1.7-5.3 0-1.3 0.9-1.6-0.1-3.4-0.6-2 1.1-0.6-0.9-1.6-2.2-3-1.6-1.1 0.5-3.3-0.6-1.6-1.9-1.1-1.1-2.9 0.6-2.4 2.4-2.2 0-1.2 0.9-1.1-0.5-1.3 2.7-0.5 1 0.4 2.4-0.4 1.9-1-1.1-1.8 1.5-0.7 1.2-1.2-0.1-1 2.3-0.5 2.4-1.9 2.3-1.1 2.3-1.9 1.1-0.1 0.3-1.3 2.5-1.9 0.8-1.6 2.3-1.8 2.2-3.9 3.8-1.2 3.8 0.3-0.6-1.7 1-0.3-0.6-1.3-1-0.6 0-4.6-1.3-0.9-4.5-1.6-1.7-0.1-1.2-1.2-4.6-0.7-1.6-2.5-1.9-2.2-1.8-0.6-1.3-2.6 0-1.3 1.5-1.3-0.1-1.8 0.7-1.4-0.6-0.9-3.3-2.6-0.8-1.6 0.1-1.1 1-0.8-0.6-1.3-2.8-0.4 0.3-1.9-0.7-1.4-0.4-2.4 1.1-1-1.8-0.9-1.9-1.5-1.4-0.1-1.2-1.6-3.5-1.8-8.3-1.7-4.2-1.8-4.8-2.3-2.9-1.1-0.4-0.9-2.9-0.8 0.5-0.4 2.1 0 1.9 0.4 0.5-0.6-1-1.4 1.9-1.1 3.6 0 7.9 5.5 1.4 1.8 6.9 0.6 0.8 0.5 1.8-0.1 3.7-0.9 1.2-1.2 1.5 0.1 3.6 1.1 3.9 0.8 2.6 0.8 1.3-0.6 0.5-1.7 1.6-1.3 2.1-0.3 1.5-1.4-0.7-3.2 0.6-1.7 0.7-3.8 2.6-1.7 1.7-1.8 2.1-0.2 3.8 0.4 0.9-0.2 3.5-1.6 2.9-0.3 1.8 1.2 4.2 2 4.2 1.1 3.6 0.8 2.6 2.7-0.7 1-3.2 2.9 0 0.7 1.7 1.3z" title="Finland" data-confirmed="98,082" data-deaths="976" data-recovered="46,000" data-active="51,106" data-index="1"/><path d="M389.1 403.1l-1.6 1.3-1.3 0.2-2.5-1.2 0-0.5 2.5-1.1 2 0.6 0.9 0.7z m-36.5-39.7l1.3 0.9-3.4 1.9-1.2-0.6-0.9-1.2-0.1-1.9 1.2-0.5 1.8 0 1.3 1.4z m-23.3-11.4l-2.1 0.4-2.9 0 0.1-1.5-1.4-0.5-1.8-2.7-1.3-0.5-1.9 1.6 0.5 0.9-2.4 1.8-2.9-0.3-0.8-0.7-2.1-0.4-0.2-1-2.7-2 1-1.4 2.9-0.9-1-1.4 0.2-0.8 1.6 0.1 2.2-0.8 1.2-1.6 1-2.3 1.9-0.9 1.3 0.6 1.9-2 2.8-0.1 2.7-0.7 3.9 0.3 1.1 1.1 0.5 1.7 1.3 1.7 1.7 1.4 0 0.9-2 1.1 3.5 0.3 1.2 2.5-2.1 0.3-0.1 1.4 1.1 0.2-0.6 1.4-2.6 0.6-1.4 2.2-1 0.5-2.3-0.5z m13.7-20.2l-2.6-0.5-0.6-2 0.9-1.4 1.8 0.7 0.6 1.3-0.1 1.9z m-11.5-7.1l0.7 3.4-2.4 1.3-0.8-2.4-1.4 1 0.2-1.9 1.5-0.3 2.2-1.1z m1.7 1.7l-1.1-1.2 1.6-2.2 1.7-1-0.1 1.6-2.1 2.8z m2.5-7.8l-4.6 0.8 0.6-3-1.9-0.9 0.3-0.9 2.1-0.5 1.7 1.7 2.1 0.6-0.3 2.2z m-16.2-11.4l-1.5-0.2-0.4-1.4 0.2-2.3 1.6 0.2 0.1 3.7z m12.8-5.7l-0.1 2.8 2.9 0.8 2-0.1 0.4 0.6-3.3 2.7-0.7-0.1-0.2-2.2-1.4 0.3-1.9-0.3-1.2-1.9-2.7-0.5-0.9-1.1 1.4-0.6 0.3-1.2 2.8-0.6 1.5-0.7 0.9 1 0.2 1.1z m-11.9-2.6l1.2 0.9-1.1 1.3-1.5 0-2.2-1 0.2-0.5 3.4-0.7z m11.8-9.9l-1.6 2.6-1 0.7-0.2 1.7-3 1.6-3.2 2.4-1.4-1 2.6-1.7-2.1-1-0.2-2.6 0.8-0.7 1.4 0.7 1.9-0.3-0.7-1.2 6.3-3.2 0.4 2z m34.8-2.2l0 1.2-1.3 1.6-2.2 1.2-4.2 2.8-2.5 1.3-0.5 1.6 1.4 0.1 0.2 0.8-2.2 1.6-0.6 1.5 3-0.4 5.3-1.5 3.6 0.5 2.6-0.3 6.9 0.2 1.9-0.3 2.3 1.3 1 1.7-2.8 3.4-0.8 2.3-2 3.5-1.9 2-2 2.5-2.1 1.1-3.1 0.5 4.5 1.9-1.4 1.8-2.4 0.1-2.3 1.7-2.1 0.7 3.6 1.1 2.4-1 2.7-0.1 5.2 1.9 3.6 3.4 2 1.5 0.5 1.1 2.1 6.9 1.5 3.8 1.6 1.8 4.5 1.6 1.1 0.6 3.4 3.3 3.4 2.4-1.4 1.5 0.4 1.2 2.1 2.9 0.3 1.6-1.3-0.1-2.3-1.4-0.3 0.7 5 3.3 1.6 2 1 2.7-0.6 1.1-3 2.7 2.8 1.4 1.2-0.2 2-2.1 1.7-0.2 4.2 0.3 3.8 1 3.3 2.1 0.7 1.1 0.4 3.1-2.2 5.8-2.8 1.9-0.5 1.7-2.1 0.9-1.7-0.3-2.4 1.2 1.7 0.6 0 1.7-1.1 0.6-2.5 0.2 1.1 2 2.5 0.4 4.3-0.2 1.9 0.2-0.2 2.7-0.4 0.4-3.8 1.7-1 1.8-2.2-0.1-1.1 0.7-5.7 1.9-4.9-0.8-2.9 0.1-4 0.6-4.2-1.2-1.8-0.2-2.8 1.7-4.2 0.5-2-0.2 0.9 1.5-0.9 0.4-3.8-0.5-1 0.5-1.4-0.2-2.7-1.4-2.6-0.1-4.9 1.2-1 1.3-1.3 3.5-1.1 1.2-1.4 0.2-4.5-2.5-1.5 0.5-2.5 0.3-2.7 0.7-3.9 2.4-0.9 1.5-1.3 0.2-1.1-0.9-1.4-0.3-2.3 0.8-0.3-1.3 1-1 2.8-0.7 2.5-1.9 2.2-2.3 4.6-3.8 0.8-3.1 2.7-0.7 1.4-2.5 4.1-0.6 2.8 0 2.8 0.5 2.9-0.1 1.1-0.7 1.9-2.4 3.6-3-4.7 1-3.8 2.3-3.2-0.4-2.3-1.9-2.1-0.8-2.1 0.4-0.7-0.9-2.4-1.7-2.6 0-3.6 1.7-2.6-1.2-0.9-2.3 0.3-1.4 1.1-0.7 2.5-0.6 3.8-1.7 2.2-0.7 2.8-1.9 1.2-2.3-0.3-2 0.5-1.4-0.9-1.7 0.3-1.5-3 0.3-2.7 1.2-0.7-1.1 2.8-1.8 1-1.4 2.6-1.7 3.6-1.3 1.9 0.1 3.7-0.7 2.7 1.3-0.8-2.1 1.2-0.4 0.1-2.4 1.6-2.2-1.2-0.6 0.1-2 1.5-0.8 0.7-2.6-1.7-0.5-2.1 0.6-1.7-1.5-2.8-3.6-0.3-1.4 1.6-3.1 2.3-2-1.9-0.8-1.4 0.2-2.7 1.2-2 1.3-2.1 0-0.8-0.9-1.1 0.1-2.5 1.1-3.5-1.3-1.1 2.3-2.6-2.5-0.3-1.9 1.3 0 1.2-2.4 2.9-4 0.6-1.2-0.5-1.4-1.9-1.5 0.3-2.6 0.8-1 1.5-0.4-1.9-1.2-2.9 0.9-1.8 0.9 0.3-2-0.6-0.4-1.5 1.4 0.1 3.3-2.1 5.7-1.1 0.9-1.4-0.5 1.1-3.9 1.4-2.5-0.6-0.3 0.3-3.6 1-2.9 1.7-3.8 2.2-3.5-4.1 2.7-1 0.5-2.4-0.4-0.8-0.7-1-2.3 1.8-0.2 1.7-1.1-1.5-0.7 1.5-0.9 1.7-2.1 0.4-1.9-1-1.5-1.6-0.6-0.2-0.9 1.7-1.9-0.7-1.5 1.6-3.1 3 0.1 1.9-0.4-2.3-2 0.7-2.9 3.7-0.3-0.8-1.8 0.3-2 1.6-0.9 1.3 0.2 1 0.9 2.6-0.9 0.6 0.8 2.8-0.6 3.7-0.3 4.5-0.6 2.2-0.4 2.3 0.2-0.6 1.7z m-0.6-4l-1.3 0.1-1.3-1.4 1.5-0.3 1.1 1.6z m1.3-3.4l2.7 0.6-0.6 1.4-1.4-0.7-2 0.3-1.9-1 0.4-2.1 1.7-0.1 1.2 0.5-0.1 1.1z m3.7-2.3l-1 0.3-0.4-1.2-1.7-0.6 0.4-0.8 2.7 2.3z m16.1-19.5l1.6 1.8 1 0.5-1.3 3.8-0.2 1.6-1 1.7-0.8-0.4 0.9-2.9-0.5-1.1-1.7 0.3-0.4-0.9 1.6-1.4-0.8-2-1.1-0.2 1.5-1.6 1.2 0.8z m2.9 0.4l-1.4-1.3 1.3-0.6 0.1 1.9z" title="United Kingdom" data-confirmed="5,121,245" data-deaths="128,425" data-recovered="0" data-active="4,992,820" data-index="18"/><path d="M972.9 547.7l-2.3 0.5 0.5 0.7-3.5 0.1-1.1 0.2-3.2-0.3-5.3 1.3-4.4 0.3-1.3-1.2-1.9-0.2-1.1-1.7-3.5-2.5-1.2-0.4-0.6-1.1-1.4-0.3-1.4 0.4-0.9 1.9-3.4-0.8-3.6-0.1-1.1 1-4.3-1.3 1.9-3 0.4-1.7-0.4-2.4-1.7-2.7-3.7-8-1.1-1.2-4-1.4-1.1-1.6-3.2-2.1-4.1-0.9-4.8-2.9-2.9-1.7 0.9-2.1 0.8-0.2 4.8 0.9 1.5-0.4 5.9 2.5 3.6 0.7 3.1 1.7 6 0.5 2.8-0.6 1.8 0 2 1.1 2.4-0.2 3.2 1.2 1.5 1.6 3.5 1.4 2.8 0.8 3.2 1.5 0.2 2.4 2.5 0.4 4.3-2.1 2.1-0.7 1.8 0.2 1.9 1.9 0.8-2.2 4.6 1.7 2.1 1.8 2.8-0.1 2.2 1-0.2 4.2 2.9 1.4 1.6 1.2 3.4 0.7 3.1 1.5-1.2 2.1-1.2 0.3 0 1.3 1.1 0.8 0.9 1.5 4.5 2.6 0.9 0.8-0.2 2-1.8 1.4-4.1-2-1.7 0.5-3.2-0.9-1.4-1 0.1-0.7-4-1.4-1.9-0.4-3 2.5z" title="Georgia" data-confirmed="377,152" data-deaths="5,452" data-recovered="359,226" data-active="12,474" data-index="2"/><path d="M712.9 637.7l2.3 0 1.7-1 2.2 3.7 1.7-0.1 3.5-0.9 3.7 0.2 1.4 1 2.6 0.2 2.3 0.5 3.3-0.7 0.4 0.4 0.1 2.8 1.2 0.2 0.7-0.7 1.7-0.6 1.8 0 1.6-0.8-0.4 3.5-0.9 0.4-4.4-0.1-8.1 1-5.3 0.4-0.7-0.2-0.7-2.2-3.3-1.1-6.2-1-1.5-0.4-3.1 0.2-1.1-1-0.4-1.8 0.2-1.9 1.4 0.3 0.4-1.4 1.9 1.1z m43.4 1.1l-1.6-2.1 1.1-0.5 1.2 2.4-0.7 0.2z m-54.7-11.4l-1.4 0.2-0.7-2.2 0.5-1 2.1 2.1-0.5 0.9z m62.7 4.1l-1.7-0.4 0.4-1.8-0.7-1.6 2.3-2.7 3.2-1.3 0.9 0.9-0.9 2.5-0.9 1.3 0.4 1-1.6 0.2-1.4 1.9z m-19-10.3l-1.5 1.2-0.9-0.6 1.9-1.2 0.5 0.6z m6.2-2.2l0-0.7 1.3-1.1 2.5-1 1.2 0.6-2.5 1.4-1.5 0.1-1 0.7z m-22.2-5.4l-0.9 1.3-1.3-0.7 0.4-1.2 1.1-0.6 0.7 1.2z m3.6 1.6l-1.1 0.6-1.4-2.2 1.9-2 0.9 0.7 0.1 1.8-0.4 1.1z m5.4-8.8l0.6-1.6 1.6-0.1 0 1.1-2.2 0.6z m-21.7-0.7l-1-0.4 0.4-1.2 1.1 0.5-0.5 1.1z m31.6-3.7l2.8 0.7-0.7 1-1.6 0.9-1.7-0.9-1.2-1.2 2.4-0.5z m-76.7 0.1l0.4 1.2-1.1 1-1.6-1.2-1.2-1.8 0.9-1.1 0.9 1.2 1.7 0.7z m53.1 0.7l-1.4-0.1-2.4-2.1 0.9-1.4 0.9 1.2 1.3 0.1 0.7 2.3z m-57.3-9.7l0.3 1.8 0.9 0.3 1.3 1.6-0.2 1.2-2.1-0.8-1 0.2-1.1-2-1.3 0.2 0.6-1.8 1.4 0.1 1.2-0.8z m70.8 2.5l-1.1 0.9-1.8-1.7 1.4-1.3-2.1-2.4-0.1-1 2.1-0.5 1.3 0.9 0.6 1.2 0.4 2.6-0.7 1.3z m-70.2-6.1l-1.3 0.1-0.4-0.9 0.8-2.4 1.1 0.3 0.2 2.5-0.4 0.4z m34.6-5.4l0.9 1.7 5.5 2.5 2.8 0.3 1.7 2.6-0.2 0.6 1.5 3.8 1.1 0.9 2.7 0.3 0.4 1.9-0.9 0.8-1.9-0.7-2.1-1.6-0.4-1.3-2.2-2.9-3.6-0.2-1.5-0.7-0.6-1.7-1.5-0.9-2-1.9-1.5-1.1-3-1.1-0.6-0.7 1.9-1.3 2.1-0.5 1.4 1.2z m37.9-5.8l-0.1 0.9 1.9 1.5 0.7 1-1.2 2.1-4-0.8-0.8-0.8 1.6-1.3-0.9-0.5-1.2 1.5-2.2-0.7-0.9-0.9 0.7-1.4 1.5 0.1 1.7-0.8 0-0.6 2.3-0.2 0.9 0.9z m-81.3-1.6l-1.3 0.3-1.2-0.8-1.2-1.9-2.2-2.2 0.7-1.1 1.6-0.4 1.4 1.2-1.1 1.2 0.8 0.7 0.9 2.4 1.6 0.6z m67.8-8.6l-0.7 1.4-0.1 1.3-3.8-0.7-0.3-2.3 2.2-0.1 0.8 0.8 1-0.9 0.9 0.5z m2.4-6.9l-1.4 0.4-1.7-1.3 1.4-0.5 1.7 1.4z m-11.9-3l-1.6 0.6-1.8-1.1 1.1-2.3 1.3 0.1 1 1.3 0 1.4z m15.9-1.7l-0.5-0.7-2.1-1.2-4.6-0.6-2.3-0.9-0.9 0.2-2-1-1.2 0.4-2.5 1.7-1.5-0.2-1.6-1-2.2 0.4-1.7 1.9-1.8 1-1.8-0.4-2.3 0-0.2 1.1 2 2.1-0.5 1 0.5 1 2.1 0.1 2.5 1.3-0.7 0.7-3.2-1.2-1.2-0.1-1.2 1.2 3.5 2.7 0.5 1.4-0.6 0.9-1.5-0.8-2.5-3.2-3.1-0.6-0.4 0.6 1.2 2.4 2.9 1.7-0.6 0.6-3-1-1.1-1.6-0.4-2-5.5-2.8-1.4-2.8-2.2 1.3 0.4 2-0.6 3.8 0.4 1.3 3.5 3.7 1.3 2.7 2.6 2.1 2.6 3.2 0.7 1.8-1.3 1.1-1.3-0.5 0.3-1.9-2.2-1.2-1.9 1.2 1.5 2.3 0.5 1.2-0.4 1.3-1.6 0.8-2.6 0.1 2.4 1.4 3.3 1 1.6 1.1 1.5 0.1 1.7 2.1 2.6 0.6 1.7 2.1 2 0.5 1.7 0.8 1 2.1 0.3 2.9 0.6 2.1 0.1 1.7-1.1 0.5-1.3-1.6-4.2-3.6-1-0.4-1 0.7-2.9 0.5-1.9 1.3 1.5 1.3 0.1 1.2 0.8 1.5 2 0.4 2 2.4-3 1-1.1 0.7-0.8-0.5-0.2-1.2-4.3-2.2-0.6 0.6 0.7 2.4 1.3 1.6 2.2 4.3 1.3 3.7-0.2 2.1 1 1.5 0.1 1.5-1.7-1.2-2.2-2.5-0.8-1.5-2.2 0.1-1.3 3.3 0.2 1.9-1.6-1.1-0.2-2.9-2.1-2.8-0.9-0.4-1.3-1.9-1.5 0.6-0.1 2.9-0.4 1-2.2-1.9-2.3-3.5-0.2-1.8 1.4-1.7-0.3-1.2-1.6-2.5-2.1-1.5-1.2-0.5-0.7-1.6-2-1.3 0-1 2-1.7 1-2.6 1.9 0.5 1.4-0.2 2-2.4 1.6 0.1 3.9 2.1 4.2 1.2 2.1 1 1.2 1.1 1.6 0.3-0.5-1.4 0.8-0.4 2.1 0 0.2-1.6-2-0.6-0.8 0.2-2.4-1.4-2.3-0.8-2.2-1.5-1.2 1.3-1.2 0-3.4-0.9-2.1 0.7-4.2 0.7-1.1-1.3-2.6 1-1-0.7-1.9-4.2-1.7-1.9-1.2-0.5-0.2-1.9 1.5-0.2 2.4 0.9 0.9-0.6-0.6-1.6-2.5-0.2-1.8 0.5-2.8-2.2-1.5-1.7-2.2-1.1-1.7-3.4-2.6-2.6 2.7 0.9 0.7-0.7 0.3-1.5 0.9-0.7-1-2.2 1.7-1.3 1.9-0.3 0.6-0.5 0.3-2 1.2-3.1 1.7-0.8 0.8-2.6-1.1-1.8 0-1.1 4.6-0.3 0.9-0.6 2.3 0.6 2.4-1.3 1.7-2.5 0.8-0.3 3-0.4 3.3 0.6 2.9-1 0.2-2.1 2-0.3 3 0.2 1-1 2.4-0.2 2.6 0.2 3-1.1 1.9-0.2 0.2-0.9 4.2 0.1 1.6-0.5 1.2 1.7 2.4 1.4 0.9-0.6 3.7 1.2 1.7 1.1 3.4-0.9 3.2-0.4 1.8 0.3 2.5-1.2 0.2-0.8-0.9-2.7-0.7-1 1.6-1.1 1.6 0.5 1.2 0.3 2.3 1.5 0.9 3.1-3.4 2.5 0.5 4.4-2.5 3.2-0.8 0.4z" title="Greece" data-confirmed="438,809" data-deaths="12,768" data-recovered="93,764" data-active="332,277" data-index="2"/><path d="M611.2 521.2l2.3 0.4-1.1 0.9-1.2-1.3z m12.9 1.5l1.6-0.1 0.6 0.9 6.2 3.8 1.7 0.7 1.2 1.9-4.8-3.1-4.4-2.5-3.1-0.7-4.3-2-0.5-0.9 5.8 2z m-6.3-3.5l-0.8 0.1-5.6-0.1-1.7-0.3-0.5-1.3 1.8 0.2 0.5 0.6 6.3 0.8z m-5.3-2.3l-2 0.1-2.6-0.8 0.3-1.1 4.8 0.6-0.5 1.2z m-21.2-16.5l-0.3 0.4-3.3-2.7-0.3-1.9 2.8 2.7 1.1 1.5z m-4.9-6.5l-1.9-0.2 0.8-1.1 1.1 1.3z m-4.2 1.5l-0.9-0.1-1.7-4.2 0.4-1.2-0.8-2 0.9-0.3 0.5 2.1 1 0.9-0.1 1.6 0.7 3.2z m3.7-4.9l-1.5 0.3-1-1-1.3-0.2-1-1 1-0.7 0.5-1.2 3.3 3.8z m49.5-14.7l-0.7 1.5 1.6 2.7 0.2 1.6 1.3 0.4-0.4 2 1.2 1 3 1 0.9 1.5-2.3 0.1-1.7 0.4 0.7 2.6-1 1.6-2.2-0.2-1.3-2.2-1.1-0.8-2.2-0.2-2.6-0.7-1.8 0.2-1.8-0.3-2.2 1-1.6-1.3-1.7 0.6-2.8-0.7-2.5-0.1-2.7-1.6-1.5 1.2-3.2-0.3-2.7 3.2-1.8-1-1.7-1.8-1.8-0.4-1.2 0.6-0.3 5 0.1 1.4 1.9 1.3 3.4 3.2 1.3 4 2.3 2.4 2.8 2.3 1.7 2 5 4.1 2.4 1.1 0.4 2.2 1.5 1.6 3 2.5-0.3 1.6-3.5-2.8-2.6-1.5-3.1-2.8-3.8-1.1-2.7-1.2-3.3 0.6-1.8-0.2-0.7-2.2-5.8-3.9-4.3-4-0.8-1.3 3.1-1.2-1.4-0.8-3.9-3.4-1.2-1.6-0.1-4.1-0.8-1.7-2.9-2.2-1.1-1.1-2.1-0.7-1.4 0.9-0.3 1.9-3 5-1.3 0-3.1-4.2-0.5-1.9-1.3-3.9 0.7-0.5 0.5 0.6 3.3 0.8 1.4-1.3 1.1 0.5 3.6-0.1 0.6-0.3 1.2-2.2 2.6 2.1 1.5 0.7 1.3-0.5 2 0.7 1.6 0.2 1.2-0.4-0.8-2.3 0.7-0.7-1-1.1 2.1-1 2.1-0.6 0.4-1.1-0.2-2.2-0.9-0.9 0.4-1.4 4.4-1.7 0.7-1 2 0 0-1.7 0.9-0.8 2.5 0.6 2.9 1.2 1.7 1.2 0.9 1.3 2.7 1.8 2.2 2.2 1.3 0.7 2.5 0.6 1.3 1.3 3.3 0.9 4.9 0.2 2.5-0.9 1.1-1.4 2.9-0.4z" title="Croatia" data-confirmed="360,826" data-deaths="8,227" data-recovered="352,007" data-active="592" data-index="2"/><path d="M671 437.8l1.5 0 1.4 2.3 2.2 0.8 0.9 1.1 2.3 0.4 0.9 0.7 0.7 1.7-2.2 2.3-4.6 1.1-1.9 2.4-1.2 1 0.1 1.7-1.4 1.4-0.7 2.5-1.4 1.5 0 1.2-1.6 2.7 0.2 1.3-2.1 1.5-1.5 4.7-1.3 0.9-2.6-0.3-2.5 2-1.4-0.5-3.2 0.9-1-0.5-2.8-0.3-1.1 0.2-2.9-0.4-1 0.3-1.5 1.6-2.2 1-1.6-0.5-2.1 1.3-2.9 0.4-1.1 1.4-2.5 0.9-4.9-0.2-3.3-0.9-1.3-1.3-2.5-0.6-1.3-0.7-2.2-2.2-2.7-1.8-0.9-1.3-1.7-1.2-2.9-1.2-1.9-2.2-1.4-3.3-2.4-0.1 1.8-1.7 2.5-0.5 0.3-1.8-1.1-1.6 0.5-0.7-0.4-1.5 2.2-1.2 0.5-1.4-0.5-1.1-2.6-0.7 1.3-1.4 2.5 0.9 3.9-0.3-0.7-2 0.6-1.9 0.6-0.7 2.1 0.3 4.2 2.7 1.6 0.7 4.7 0.1 7-0.4 0.6-1-0.5-1.3 0.4-1 1.4-0.7 4.3-0.4 2.4-0.6 1-1.5 0.7-0.2 3.5 1.4 5-2.5 1.6-3.5 1.8-0.4 2.7 0.1 2.5 0.6 4.6-0.7 1.4 0.9 2.2 2.2 0.6 0.2 4.3-1.1z" title="Hungary" data-confirmed="808,539" data-deaths="30,009" data-recovered="741,083" data-active="37,447" data-index="3"/><path d="M329.3 352l0.7 1.1-2.2 0.4 1.5 5.2 0.6 0.9 0 4.1 0.9 3.2 0.1 2.5-1.3 1.8-0.9 2.1-0.2 1.8-1.6 2.1-1.5 0.9 1.6 1.5-2.8 0.8-2.6-0.3-1.3 0.8-3.9 0.2-3.7 0.7-1.7 1.8-2.5 0.7-1 1-2.3 0.8-1.7-1.2-1 0.2 0.2 2.1-2.9 1.3-1.8 0.3-1 0.7-5.8 1.4-1.9-0.5-3.3 0.8-1.2-0.1 1.6-1.8 1.6-1.3-3.8 0.6-1.4 0.5-0.6-0.6 3.2-1.9-3.3 0.1-3-0.4-0.4-1 2.9-2.3 2.4-0.9-0.1-0.9-5.1 0.1 0.5-1.1 1.7-1 1.8-0.1 1.5 0.6 1.1-0.8-0.6-1.7 3.9-2.3 3-0.3 3.3-0.7 3.3-0.8-2.4-1.2-2.3 1.8-2.6 0.3-1.9-0.5-2.1 0 2.7-2 1.6-1.7-0.8-0.7 2-2.3 3.6-1-1.6-1.3-3.9 0.2-1.4-1.3-2.6 0.1 0.4-1.2-3.5-0.2 0.5-1-0.6-1.1 2.8-0.6-0.2-2 1.9-0.8 2-0.4 0.1-1.1-2-0.2-2 0.4 0.8-2.1-0.8-1-0.4-1.7-0.9-1 2.8-0.2 1.2-0.5 4.7 0.1 1.9 1.3 1.7-1.2 4.8 0.9 0.6-2.6 3.8-1.5 1.2-2-3.7 0.4-3.6-1 0.7-0.8 2.1-0.7 1.9-1.6-0.3-1.1 1.7-2.7 3.1-0.8 2.4 0 1.6-0.9 1.2 2-1 1 0.6 0.9 1.2-0.8-0.5-2.1 0.9-1.3 1.9-0.3 0.6-0.8 3.2 1.7-2.5 1.5-0.5 0.7-1.9 0.9-1 2.3-1.2 1.6-2.2 0.8-1.6-0.1-0.2 0.8 1 1.4-2.9 0.9-1 1.4 2.7 2 0.2 1 2.1 0.4 0.8 0.7 2.9 0.3 2.4-1.8-0.5-0.9 1.9-1.6 1.3 0.5 1.8 2.7 1.4 0.5-0.1 1.5 2.9 0 2.1-0.4z" title="Ireland" data-confirmed="277,892" data-deaths="5,006" data-recovered="23,364" data-active="249,522" data-index="1"/><path d="M240.3 177.9l1.2 0.1 2.8-0.8 2.2-1.1 0.5 1.1-2.5 2.4 2.2 0.9 2 0.3-0.1 1.7-1.7 1.6 0.8 0.3 3.5-0.5 1 2.3 1.5-0.2 2.4 0.3 1.4 1.2 1.2-0.3 0.5 0.9-0.7 1.2-1.5 0.6 2.1 2.9 0 1.1-1 0.7-1.3 0-1 2.1-1.2 1.1-2 1-2.6-0.5-1.1 1.5 0.2 1.4-1.3 1.3-5.3 2.1-2.5 0-2.6 0.5-6.2 2-4.7 2.8-2 0.7-3.1 0.3-1.8 0.5-5.9 0.8-2 0.5-1.2 1.1-0.5 1.4-4 1.1-3.8 0.7-6.4-0.5-5.4-1.3-4.5-0.3-3.8-2.5-2.9-1-3.6-1.8-2.3 1.1-12.4 0.3-0.8-0.5-0.2-2.1 1.1-0.8 1.3 1.2 5-1.1 2.7-1.9 2.5-2.7-3.5 1.2-0.2-1.9-0.9-1.1-1.7-0.8-0.3-0.8 1.1-0.9-2.3-1.2-2.6 0.1-6.6-0.5-3.8 1-2 0.1-0.9-1 0-1.1 1.5-0.3 1.8 0.1 4.1-0.6 1.4-0.6 0.8 0.5 3.6-1.1 1 0.2 4-0.2 4.4-0.1 1.1-0.8 0.4-1.1-2.8 0.9-3.7-0.5-0.6-0.9 3.6-1.6 2.7-0.8-0.8-1.3-3.2 0.2-0.7-0.8-2.6-0.4-1.8 0.3-0.9-0.5-2.4 0.6-5.2 0.9-3.3 0.9-3.1-1.1-2.4-0.2 1.4-1.4 2-0.1 1.7 0.8 0.1-3.2 1.2 0.3 2.8 1.1-0.7-2.8 2.2 0.1-2.2-1.6 0.5-1 1.6-0.3 0.8-1 2.4 0 2.3 1.1 0.2 1.4 2.1 0 1.1-0.8 0.9 0.6 0.5 1.2 1.2 0 0.4-2.2-3.6-1.1-0.3-1.4 3.7-0.1-1.7-1.1-3 0.2-1.4-0.4 2.6-1.2 3.4 0 1.4 0.2 2.3 1.7 2 0.6 3.1 2.3 2.2 0.9 0 1.2 0.7 0.8-2.3 3.4 0.9 0.7-0.8 1.6 1.9 0.6 1 1.7 0.9-1.8 1.5-1.9 2.3-1.3 0.9 0.1 0.9 1 0.9 0.1 1.4-2 0.7-4.3 1.7-0.9 1.8 0.7 1.3 1.6 2.6 2.1 1.8-0.5 0.1-2.3 1-1.3 2-0.3 2.2-0.8 2.3-0.2 1.7 1.4 1.2 1.4 1.7 1.1 0.7 1.8 0.9-0.3-0.2-1.7-1.4-2.6 0.3-0.9 4.1 0.2 3 2.3 1.3-0.3 3.6-2.8 2.3 0.8 1.8 0.1 2.8-0.8 0.8-1.2-0.9-2.3 0.6-0.4 2.6-0.6 2.7 0.1 2.6 2.1-0.1 1 1.6 0.8z" title="Iceland" data-confirmed="6,675" data-deaths="30" data-recovered="6,611" data-active="34" data-index="1"/><path d="M602.6 595.6l-1.2 2.5-2.8 4.3-1.5 5.1 0.3 2 1.6 1.4-0.7 0.5 1.6 1.8 0.1 1.3-1.8 1.9-0.4 1.7 0.1 1.5-2.9-0.6-1.4 0.3-3.7-1.4-1.9-2.8-3-2-3 0-1.4-0.5-2.9-1.9-3-1.4-2.6-2.1-1.7-0.4-1.5-1-2.9 0-2.3-1.6-1.3-2.3 1.3-3.7 1.4-0.8 0.9-1.2 2.3 2.3 1.8-0.8 1.4-1.6 2.4 0.1 0.5 0.9 1.4 0.3 2.5 1.6 1.4 0.4 3.4-1 3 0.4 2.8-0.5 1.7-0.6 1.2-1 1.4-0.3 3.5 0.3 2-1.2 0.8 0.2 2-1.2 1.1 1.1z m-78.3-41.5l0.7 0.9 1.8 5-0.6 1.6-1.3 2 0.8 2.8-0.6 11.5-0.6 2.9-0.9 0.4-2.9-1.2-1.5 0.3-1.2-0.6-0.3 3-1.8 2.1-3-0.2-0.7-0.6-2.4-3.8-0.4-4.3 0.6-1.3 0-2.5 1.1-0.1 0-1.7-1.8-1.2 0-1.9 0.7-1.4-0.1-2.6-0.8-0.9-0.8-2.3-2.2-2.4 0.1-3.4 3.4 0.6 1.3-0.3 3.1-1.5 2.1-2.5 1.4-0.5 1.5-1.8 0.7 0.9 2.2 0.8 1.2 1.5 0.9 0.5-0.7 1.4 1 0.8z m8.3-30.8l0.3 1.4-2.5 0.5-1.1-1.1 2.9-0.2 0.4-0.6z m37.9-56.6l-0.2 0.9-3.3 2.3 0.7 1.4 2.3 0.7-1.6 2.1 0.3 1 1.3 0.2-0.4 2 1.9 1.1 1.5 1.3 0.2 1.3-1.5 0.1 0.7-0.6-2-2.2-2 0.9-3.2-0.9-2.1 2-1.5 0.4-1.7 1.1-3.2 1.2-1.8-0.4-1 0.7-0.4 3.1 0.8 0.6 1.5 2.6 1.7 1.1-0.7 1.9-0.9 0.7-1.3-0.5-0.3 1.7 0.9 4.5 1.4 3.2 1.2 1.3 2.7 2.2 2.7 1.1 5.1 3.7 2.8 1.1 0.7 0.7 1.8 2.8 1.6 3.2 1.8 5.1 1.3 2.5 2.3 2.9 4.8 4.1 4.3 2.9 4 1.9 3 0.3 7-0.4 2.6 0.7 0.4 1.2-0.4 0.9-2.9 2.1 0 1.7 1.5 1.2 7.1 3.2 7.2 2.6 2.2 1.4 2.7 2.1 6.4 2.9 1.1 1.4 4 3 1.8 2.4 0.5 1.8-1.5 4.4-1.6-0.5-1.9-1.3-3.1-5.4-5-0.5-2.9-1.3-0.7-1.4-2.3-0.4-1.3 0.9-1.4 2-1.5 3-1.5 4.3 0 1.7 1.1 1.7 2.9 1 2.4 1.5 1.6 1.6 0.3 3.8 0.9 2.1-0.9 1.3-1.9-0.3-2.5 0.7-1.7 1.4-0.7 1.4 0.5 3.4-0.3 1.4-3.3 2.5-1.6 2.5-1 2.3-4.3 0-1.1-1.5-0.1-2.2 0.6-1.3 1.6-0.7 0.9-2.8-0.5-2 1.1-1.6 2.8-0.7 0-2.9-1.4-1.3-1.4-5.1-2.4-4.3-1.4-3.8-1.1-1.8-1.4-1-3.7-0.3-4.6-2.6-0.3-1.1 0.6-1.1-1.1-2.8-2-1.7-2.6 0.6-1.2-0.1-0.1-1.5-2-1.3-2.7-0.2-0.7-0.7-2.6-4-1.7-1.7-2.3 0.1-3.9-0.9-2 0.7-3.2-2.6-2.8-0.9-5.7-5.3-1.8-2-3.5-2.2-2.3-3.2-1.8-1.2-4-1.4-0.3-1.3-3.1-3.1-1.7-1-1.3-2.1-2.5-0.5 0.1-2.7-1.2-3.5-1.7-2.2-1.2-5.3-0.8-1.5-1.8-1.1-4-1.2-5.7-3.4-1.1-0.1-3.4-1.3-2.1-0.2-2.6 1.2-3.1 3.2-2.5 3.4-0.9 0.6-3.4 1.2-3 0.5-0.2-1.5 2.1-2.6-0.3-2-3.3 0.6-5.1-2.4-0.9-0.9-0.1-1.4-0.7-1.3 1.4-2.5 0.8-0.7-0.5-1.7-3.2-1.4-1.5-3.1 0.8-0.4 1.9 0.2 1.7-1.3 1.2-0.3 0.8-2.5-1.8-1.6-1.7-2.6-0.9-0.6-0.1-1.6 2.6-1.7 1.4 0.7 2.4-0.5 2.6-1 3.1 0.8 2.4-1.4 1.6-2.2-0.6-1.5 3.4-2.9 1 0.6 0.2 2.5 2.4 2 2.2 0.6-0.4 1.2 1.3 1.2 0.9 1.4 1.2-0.7-0.7-1.7 0.2-1 2.2-2.6 0.5-1.1 0-2.9 2-0.1 0.8 2.1 2 0.8 2.9-1.1 0.7 0.1 1.4 1.9 1.2-0.3-1.5-3.5 0.6-1.8 1.3-0.3 1 0.9 1.9 0.2-0.5-1.8 0.5-3.1 3 0.3 0.9 0.8 2.1 0.4 1.1-0.4 1.2-2.2 1.4-0.6 3.4-0.3 3.1 0.2 4.7-1.5 0 2.3 3.1 3.5 1.1 0.5 8.6 1.5 4 0.3 2.6 0.5z" title="Italy" data-confirmed="4,271,276" data-deaths="127,775" data-recovered="4,101,420" data-active="42,081" data-index="15"/><path d="M519.4 458.5l-1.2-0.1-0.1-1.7 0.5-1.5 1.1 2.5-0.3 0.8z" title="Liechtenstein" data-confirmed="3,057" data-deaths="59" data-recovered="2,972" data-active="26" data-index="1"/><path d="M707.9 328.5l0 1.8-0.7 3.1 3.9 1-1.3 1-0.4 1.1-3.6-0.1-1 2-0.8 0.6-2.6 0.6-1.1 3 0.4 2.3-1 1.5-0.5 2 1.9 0.5 0.9 1.1 0 1-2 0.2-1.7-2.3-1 0.7-2.1 0.5-1.4 1.2-2-0.2-0.8 2.6-1.8-0.1-3.3 1.3-1.6-0.9-3.7 0.3-1.6 0.3-2.9-0.4-0.8-3-1.1-0.9-4.5-2.2-2.3-0.7-0.6 0.6-1.3-2 0-2.1 1-3.1-1.3-1.3-1.4-0.6-0.9-1.3-5.7-0.1-2.4-0.6-3.9-1.4-2-1.2-1.8 0.2-0.6-1.2 0.2-1.6-1.1-2.4-1.6-2.9-0.7-3.8 2.8-1.7 3.6-1.9 4.7-1.4 5.9 0.5 4.3-0.1 1 0.9 1.6-0.7 4.9 0.5 2.3 0.1 3.7 0.9 4.6-0.4 1.7-1.3 2.3-0.2 2.4 2.9 6.1 1 0.9 0.4 5.4 3.1 2.6 2.1 1.5 0.7 2.3 0.5z" title="Lithuania" data-confirmed="279,217" data-deaths="4,400" data-recovered="268,166" data-active="6,651" data-index="1"/><path d="M475.4 411.7l0.3 2.2 1.5 1.6 2.8 1.1 0 1.4-0.9 0.9-0.6 3-1.3-0.7-2 0.6-1.4 0-2.1-1.2 1.1-1.7-2-2.4 0.2-1.7 1.4-2.5 1.3-1.3 1.7 0.7z" title="Luxembourg" data-confirmed="72,010" data-deaths="819" data-recovered="69,836" data-active="1,355" data-index="1"/><path d="M711.6 301.2l1.9 0.3 0.5 1.1 3.2 1.7 0.7 2.2-0.8 1.6-0.3 3.1 1.8-0.3 1 0.6 0.3 1.2 1.7 2.1 1.3 0.8 1.9 4.2-0.3 1.7-1.3 0.2-1.4 0.8-2.5 2.4-0.4 1.7-3.1-0.1-3-0.4-1.1 0.3-1.2 1.5-2.6 0.6-2.3-0.5-1.5-0.7-2.6-2.1-5.4-3.1-0.9-0.4-6.1-1-2.4-2.9-2.3 0.2-1.7 1.3-4.6 0.4-3.7-0.9-2.3-0.1-4.9-0.5-1.6 0.7-1-0.9-4.3 0.1-5.9-0.5-4.7 1.4-3.6 1.9-2.8 1.7-0.8-2.8-0.6-5.5 0.1-2.8 1.9-1.6 0.8-1.2 0.6-4.5 2.5-3.6 2.4-0.4 3.1-1 3.5-0.9 1.4 1.9 4.9 3 1.2 1 2.3 3.4 4.4 1.8 3.1-0.6 3.6-2.4 1-1.1 0-1.1-1.2-4.7-1.1-2 0.1-1.3 8.4-2.8 1.5 1 1.1-0.7 5.6 2.5 2.3 0.5 0.6 0.7 3.5 2.7 2.8 1.1 4-1.2 3.4 1 1.9 0.2z" title="Latvia" data-confirmed="137,917" data-deaths="2,537" data-recovered="134,703" data-active="677" data-index="1"/><path d="M751.4 483.2l-2-2.3 0.9-0.7-1.4-5-0.1-2.6 0.9-4.8-0.5-2.9-1.4-2.3-1.4-2.9-3-2.1-1.3-1.7-2.1-1.8-2.5-3.2-1.5-1.3-3-4.9-2.5-3-2.5-1.6-2.1 0 0.2-0.6 2.3-1.4 0.7 0.2 4 0.1 1.2-1 0.8 0.3 1.6-1 3.5 1 3.6 2.4 2.5 0.3 0.6 1.2 5.6 0.6 1.4 1.9 1.4 1 1.4-0.7 1.4 1.4 0.6 2.3-0.6 3.1 0.6 1.2 2.3 1.2 2.9 2 0 2.4 0.9 1.9 2 1.3 2.1 0.8 1 1.6 0.2 2.9 2.9 1.7-0.6 0.7-2.9 0.4-1.2-1.3-1.6 0.6-2.1-0.8-1.9-0.2-2.1-1-2.5 1.6 0.5 2.1 1 1.7-0.4 2-2.3 1.7 0 1.3-2.5 2.9 0.5 1.4-0.4 1-2 0.2-1.1 0.7z" title="Moldova" data-confirmed="257,467" data-deaths="6,209" data-recovered="250,447" data-active="811" data-index="1"/><path d="M683.8 531.8l3.3 3.2 3.4 1.8 1.7 3.3 0.9 1-0.5 1.7 0 4.2-2 0.3-0.2 2.1-2.9 1-3.3-0.6-3 0.4-0.8 0.3-1.7 2.5-2.4 1.3-2.3-0.6-0.9 0.6-4.6 0.3-1.3-1.1-1.6 0.2-1.3-2.4-1.2-1.1-1.2-2.2-0.2-1.9-0.7-2 0.8-0.8-0.3-2.1 0.5-2.6 1.7 0.3 0.5-0.8 0.2-2.6 3.4-1.5 1-0.1 1.6 1.2 1.5-1.9 2.1-0.4 2.2-0.3 2-0.9 1.9 0.3 2.3-0.8 1.4 0.7z" title="Macedonia" data-confirmed="155,797" data-deaths="5,487" data-recovered="150,126" data-active="184" data-index="1"/><path d="M642.4 512.9l0.4 1.2 2.6 1.7 1.9 2 3 1.6 2.1 0.5 5.3 2.9 0.1 1-1.6 0.4-0.2 0.7-2 0.4 0.9 1.5-0.2 1.3-3.4 1.2-0.8-2.1-1.1-0.3-3.2 5.3-0.8 0.3-2.5-0.2 1.6 1.9 1.7 0.8 0.3 0.6 0 3.1-2.1-1.2-0.9-1.8-3.1-2.9-3.5-2 0.1-1-1.6 0.1-1.2-1.9 1.1-1 0.1-0.8-1.1-1.6-0.6-3 0.5-0.7 1.7-0.2-0.1-1.5 0.5-1.7 2-1.7 2.3-0.2-1.4-2.2 3.2-0.5z" title="Montenegro" data-confirmed="100,478" data-deaths="1,620" data-recovered="98,537" data-active="321" data-index="1"/><path d="M458 260.9l0.1 1.7-1-0.1-0.7-1.1-0.2-2 0.7-0.5 1.1 2z m-1.8-11.1l-1.8 0 0.3-1.3 0.9-0.3 0.6 1.6z m32.5-31.9l-2.3-0.2-1-0.8 2.8-0.8 0.7 0.5-0.2 1.3z m3.6-4.6l-0.3-0.9 2.7-0.6 0.9 1-3.3 0.5z m28-16.6l-4.2 0.3-0.3-1.1 2.1-0.8 1.2 0 1.2 1.6z m6.8-10.5l-2 0.3 0.1-1.1 1.8-0.3 0.1 1.1z m4.1-5.7l-0.1-1.1 1-1.2 1 0.4-0.3 1.5-1.6 0.4z m3.1-24.9l-1.5 0.7 1.1-2.6 1.1-0.7 0.4 1.5-1.1 1.1z m8.5-5.2l2.3 0.2-0.5 0.8-1.4 0.3-1.1 0.8-1.9 0.2-1.9 1-1.6 0.3-0.4-1.2 0.9-1 1.3 0 1-1.2 3.3-0.2z m12.4-9l2.2 2.1-0.3 1.5-1.2 0.7-3.3 0.1-1.6-0.9-2.2 0.6-1.6-1.1 1.6-1.4 2.6 0.4 0.5-1.7 1.7 0.3 0.4-1.5 1.2 0.9z m6.3 5l1.3-1.1 1.5-0.4 0.6-2.2 1.8-0.5 1.6 1 0.9 1.2-0.2 1.1-3.1 1.2-2.5 2-1.6-0.2-0.7 0.7-2.4 0.6-1.7-0.9-0.9 0.9-1.4 0.4-1.2-0.4-2.9 1.5-2.8 0.3-1-1.1 3.1-1.9 5.1-0.6 2.9-2.3 0.4-2.5 0.6-0.9-1.3-0.6 0.2-1.7 2.4-1.7 1.3-1.4 1.5-0.3 0.9 1.1-1.1 1.4-1.6 1.2 1.1 1.5 0.6 2.4-1.4 2.2z m15.5-13.7l1.4 0.8 1.5-0.3 2.3 0.7 1 1.5-1.2 0.9 0.4 1.7-3.8 0.5-0.9-0.5-1.5 0.9-1.4 1.4-2.2-0.6 0.2-1.6-0.3-2.3 0.7-0.5 2.9 0.3-0.4-2 1.3-0.9z m124-2.6l-1.8 0.4 0.2-1.8 1.6 1.4z m-92.4-3.8l-1.3 0.4-1.8-0.3-0.7-1 2.2-1 1.7 0.3-0.1 1.6z m-15.1 0.3l1 0.7 1.5-0.5 1.1 1-1.4 0.8-0.8 1.2-2 0.1-2.9 2.3-0.1 0.8-5 0.5-1.5-0.3 1.7-2.7 1.7 0 1.7-0.8-0.3-0.8 2.5-2 0.6-1.7 1.4-1 0.8 2.4z m4.8-2l1.4 0.2 1.3 1.6-2.3 0-2-1.8 1.6 0z m37.3-4.3l0.5 1.1-3.3 2.1-1.6 0.1-2.1-1.2 0.1-0.8 1.9-0.9 0.9 0.1 2.7-1.4 0.9 0.9z m3.9-0.3l-1.8 0.5-1.7-0.9-0.2-1.6 0.8-0.3 3.2 1.2-0.3 1.1z m-6.4-3.2l-0.4 0.8-2.7 2.1-2.2 0.7-1.8-0.3-0.8 0.6-2 0-2-0.6-2-1.2 3.5-0.1 0.6-0.5 1.5 0 2.8-0.4 1.1 0.3 2.1-1.4 2.3 0z m60.6 23.5l-1.7-1.3 0-0.7 3.2-2.9 0.7-1-2.6-2.7-3.6-0.8-4.2-1.1-4.2-2-1.8-1.2-2.9 0.3-3.5 1.6-0.9 0.2-3.8-0.4-2.1 0.2-1.7 1.8-2.6 1.7-0.7 3.8-0.6 1.7 0.7 3.2-1.5 1.4-2.1 0.3-1.6 1.3-0.5 1.7-1.3 0.6-2.6-0.8-3.9-0.8-3.6-1.1-1.5-0.1-1.2 1.2-3.7 0.9-1.8 0.1-0.8-0.5-6.9-0.6-1.4-1.8-7.9-5.5-3.6 0-1.9 1.1 1 1.4-0.5 0.6-1.9-0.4-2.1 0-0.5 0.4-5.1 0.2 2.6 1.6 0.1 2-1.4 1.9-1.6 0.9 2.9 0.9-2.5 1.6-1-0.1-8.6-1.7-2.9-0.1-4.1-0.9-2.1 0.5 0 0.8 0.8 3.6-2.1 3.1-6.3-1.8-1.5 0.9-3.7 1.9-1.5 3.5-1.1 1.1-2.7 0.6-0.5 1.1 2.7 2.3 1 1.3-0.2 1.4-1.5 1-3.3 2.9-3 2.9-1.3 0.9 1 2.5-3.3 1.5-2.4 0.5-3.8 0.4 1.4 3.9-0.6 2.7-0.1 4.7-3.3 5-4.4 5 4.7 1.6 1.1 2.9 0.1 1.2-1.7 2.2-7.1-0.9-3.3 0.4-3.3 1.5-3.5 3.8-1.2 1 0.5 1.5-2 2.8 2.7 4.1-1.1 1.1 0.6 2.8-0.1 1.8 2.5 4.4 0 1.6-0.9 6.4 3.8 2.1 1.2 0.4 3.4 2.7-0.4 1.9-1.3 2.5-2.4 0-1.8 0.6 0.3 1.6 3.1 4.9 0.5 1.4-0.6 2.1-0.1 2.8-1.9 2-1.3 0.8-2.6 0.7-0.9 2.4-1.5 1.5 1.6 4.4-0.6 3.9-0.7 1.4-1.9 0.2-1-1.8-0.4-1-6-1.2-2.3-2.9-0.4-3.1-2.5 1.2 0.6 1.1 0 2.3-2.5 3.9-1.1-0.2-1.3 0.8-1.3 0.2-0.6-1-1.1 0.2-0.8 1-3.4 1.3 1 0.7-1.7 1-0.6 0.9-2.7 1.5-4.3 3.9-2.3 1.1-1.6 1.2-1.4 0-1.8 0.9-4.6 0.9-3.1-0.4-2.1 0.4-1.1-0.7 0-1.1-1.2-0.1-0.8 1.2-1.6-0.4 0.7-2.4-3.1-0.1-3.8-1.6-0.9-0.8-3.1-1.3-1.4-1.4-0.8-1.6 0.3-3.6 0.6-0.5 2.7 0.8 2.8 1.3-0.1-1.2-2.4-1.6 0.8-1.8-0.2-1.6 2.6-2.1-0.4-0.7-3.4 2-3.1 0.9-1.1 1.2-1.1 0.6-2.1 0-0.5-0.9 0.5-3.3 1.2-2.7 1.8-1 3.4 0.7 1-1 1.3-0.2 2.4-1.2-4.1 0.5-1.2-1 2.8-2.4 1.2-1.4 0.3-1.5 2.2-1.7 1.8-0.8 1.6 0.6 1.5-1.9-5 1.1-2 1.1-2.7 2.8-0.2 1.1-2 0.9-1.5 1.5-0.6 1.2-2.8 1.9-1.4 0.3 0-2.4 1.1-2-0.3-1.6 3.2 0.2 1.8-1.2-2.7 0-1.4-0.7-1.2-1.5-0.6-1.9 1.1-1.8-2.2-2-0.5-2.2-0.1-2.5 0.9-0.5 2.1 0.4 2.4-0.2 5.2-0.9 3.4 0.6 1.4-0.1 2-0.7 1.9-0.1 2.2 1.2 0.7-0.5 5.4-1.2-3-1.5 0.1 1.4-3.6 0.3-3.2-0.6-1.3-0.6-0.5 1.3-1.1 0.3-3.4-0.5-4.7 0.3-2.1 0.7-1.4-0.1-2.5-1.2-0.9-0.9-0.3-2.6 2.8-0.3-1.9-2.3-1.9-1.3-0.2-1.4 0.7-1.3 1.5 0.2 3.8-0.1 6 1.5 4.9-0.3-0.8-0.6-2.9 0-7.2-1.3-2.2 0.1-1.2-0.3-0.7-1 0.4-1.9 1.1-0.4 1.2 0.6 1.9-2.3 1.9-1 2-0.5 2 1 1.3-0.1 4-0.8-1.3-0.5-3.5 0.5-0.2-0.5 2.4-2.3 4.2-0.4 5.9 0.5 2.3 0.8 0.4-1.8 5.3-1.4-6.8 0.8-1.8-0.5-4.9 0.7-0.1-1.3 2.3-2.3 4.1-0.9 1.9-1.1 3.1-0.2 2.6 0.3 1.2 1.3 4.4 1.7-5.1-4 1.1-1.7 3.3-0.4 0-1.6-2.2-0.3 0-1.2 1.9-0.9 2.8-0.7 3.2 0.8-0.6 1.3 0.9 0.5 1.7-1.5 3.9-0.8 2.8 2.1 0.5 1.1 1.1-0.5 2.7-0.5 2.7 0.3 1.8-0.2-1-1.3 0.4-1 2.4-1 1.7-0.3 2.6-1.2-0.8-1-1.4-0.3 2.9-1.5-1.7-0.6-2.4 0.9-1.6 0.9 1.5 1-1.1 1.1-6.1 2.8-3 0.8-1.4-0.1-1.9-2.5-2.1-0.1 1.3-2.2 1.6-0.8 1.4-2.3 2.3-1.3 3.2-3.3 2.8-1.1 0.9-1.1 3-1.5 3-0.9 0.3-1-2.7 0.9 0.4-2.1 1.4-1 6.8-2.8 1.6 1.3 2.1-0.2 2.3-1.6-0.3-0.7-2.1 1-1.5 0-0.4-0.6-2.1-0.5-0.3-1.2 1.3-2.8 3.4-3.3 0.5-1.3 1.3-0.7 1.7 0.2-0.2-1.1-2.1-1.1 6.2-1.1 3 0 2.4-0.9 0.5-1-6.4 1.1-2.4 0.1-0.8-2.7 0.2-1.5 1.9-2.2 1.4-0.2 1.7-1.1 0.1-1.5 2.3-0.8 2.1-2.1 2.3-0.5 1.4 0.2 3-0.7 6.6-0.1 0.1-0.6-6.3-0.3-3.5 0.2-0.4-0.6 2.8-2.7 2-1 1.7 0.2 1.8 1 0.6-0.8-1.6-1.5 0.7-1.5-2.6 1.1-1.8 0.3-0.9-2 2.3-2 2.3 0 0.3-1.5 3.3-1.3 1.9-0.2 1.5-0.6 0.6 0.4 0.9 2.3 1.5 0.3 1-0.8-1.3-1.1-1.1-1.8 2-1.5 2.3-0.2 2.6 0.7 2.3-0.2 0.9-1.2-6.3-0.1-0.8-0.9 1.2-1.2 2.2-0.8 2.5-0.1 2.4-1.4 0.9-1.1 0.3-1.6 1.4-1.3 3.9-0.8-0.6-2.2 0.8-1.4 1-0.6 2.1 1.5 1.8 0.5-0.5-1.4 0.3-1.2 2.1 0 1-0.5 0.3-1.3 1.4-1.2 4.7-0.7 0.5 2.5 0.7 1.4 0.8-2.8 1.6-2.1 2.4-0.9 0.9 1.1-0.4 4.3-1.9 2.4 1.5-0.2 2.5-2.3 0.6-1.2-0.7-2.8 0.6-0.8 3.5-0.1 1.9 0.4 0.7-1.5 1.7-0.1 1.8 0.9 4.1 1.4-1.3-2.2-1-0.8-2.1-0.5-2.2-1 1.2-1 2.4 0.3 2-0.8 2.2-0.2 1.1 0.6 0.8-1 2.5-0.5 2.8 0.9 1.6 2.7 2.4 1.4-0.1-1.4 0.6-1.9 2.3-2 2.1-1 1.4-0.1 2.9-3.4-1.6-1 3.3-2.3 1.1-0.1 5.4 2.1 1.5-0.9 3.4 0.8-0.8 1-3.1 2.9-0.5 0.8-0.1 2.2-1.2 1.4 0.8 1.4 1.6-0.4 1.8-1.3 0.1-1.3 4.3-3.7 1.9-2.1 2.3-1.7 1.5-0.3 0.9 1.1-0.2 1.5 0.2 4.3 3.7-1.4 1.1-3 1.1-0.7-0.8-1.4 0.4-1.1 2.3-1.3 2.2 0.4 3.3 0.3 2.7 0.8 0.2 1.4-0.8 0.9-2.9 1.1 0.7 0.7 2-0.6 0.9 5.5 0.9-2.1 1-0.7 0.1-1.5 0.8-1.9 1.8-1.3 2.7 0 3.3 1.7 2.5 0.3 1.8 0.8 2.4-0.7 2 1 0.1 1 3.8 0.3 3.8 1.6 0.6 1.6-4.4 1-1.8 1-3.3 0.4-11.5-0.7 0.4 0.7 8.3 1.5 0.6 0.5 0.4 2.1 1.8 0.7 3.5-0.2 0-1.3 3.2 0.6 3.8 0.2 1.1 1.7-0.3 1.5-2.4 0.1-4.2-1.4-0.4 2.3-1.1 0.9-5.8 1.3-1.1 2.6-2.2 1z m-40.5-27.7l3.7 0.5 2.2 1.4-3.6 0.5-1.7-0.1-2-1.8 1.4-0.5z m-339.6 3.9l-0.1-1 4.5-1.5 1.9-1.4 3.4-0.5-0.2 1.8-3 0.8-3.3 0.5-3.2 1.3z m269.2-45l-1 0.5-1.9-0.8-0.8-1.2 3-0.1 0.7 1.6z m9.6-50.1l3.9 0.2 2 1.9 1.4 2 1.3 0.2 4.7-0.4 3.4 0.7-1.4 1.1 0 1.2 5.5 1.3 1.8 0.1 3-0.4 6.5 1.7-6.6 1.1-2 1.9-3.7 1.3-2.6 0-2.3 1.3-2.2 0.1-1.5-1.9 2.2-1.3-3.1-0.4-1.2 0.5-10.5 1-1.1-0.2-0.9-1.2 2.8-0.6 0.2-1.1 2.5-2.4-5.5-1.6-2-1.2-0.8-1-2.5-0.9 0-1-1.7 0.1-0.4-1.2 10.8-0.9z m46.2-0.6l-1.3 0-2.6-0.8 0.7-1 3.2 1.8z m-137.6 0.4l3.5 1.5 1.9 0.5 2.3 1.5-0.7 0.9-2-1.2-3.6-1.3-2.3-0.2-3.3-2.5-1.5-0.8-0.8-1.7 3.6 0.7 1.6 1-0.3 0.8 1.6 0.8z m155.6-3.4l2.7 0.1-0.1 0.6-7.3-0.4-3.8 0.7 0.4-0.9 2.4-0.6 3.7-0.1 2 0.6z m-109.9-10.8l1.4-0.6 5.4 0.8 2.5 0.9 1.3 1-1.9 1.9 1.7 1 3.2-1.7 2.7 0.3 1.7 0.9 1 1.1-0.2 1.4 3.1 1.1 3.4-0.2 2.4 0.3 1.5 1 1.9-0.2 0.2-0.8 2.6 0.2 3 0.8-2.1 0.9 2.1 0.8 3.4 0.6 2.1 0.6-1.5 1.4-3.2 0-2.9 0.3-5.4 0.3-3 1.6-2.5 1.8-0.4 1.6 0.6 1.1-1.5 0.5-3.3 0.2 0.2 3.9-0.8 1.9-3.3 0.3-1.8 1.1-1.2 2.1-2.1 2 1 1-2.1 1.9 1.2 1.8-1 0.6-2.1 0.3-2.2-0.3-2.3-1.1-6.7-2.2-4.3-2.4-6-1.3-3.3-1.6-1.5-1.3 0.3-1.4 2.8-0.2 2.9 0.7 1.7-1.9 11.3-1.1 7.3-0.2-1.9-1.3-6.9 0.7-4.3-0.2-2.1 0.1-2.1 0.6-4.3 0.5-4.6-0.1-2.9-1-1.3-2 1.2-0.6 3.8 0.1 6.4-0.9 3-0.8 3.1-0.1-0.5-0.8 1.8-0.4 2.4-0.2 5.6 0.1 0.2-0.6-2.6-0.6-0.9-0.6 2.6-1.8-2.2 0.1-3 1.3-1.8 0.5-4.6 0.3-1.7-1.6 0.9-1.2-0.8-0.7-1.3 1.3-2.1 0.3-2-0.9-1.9 0.5 0.7 1-0.6 1 2 0.9-2.3 0.6-2.1 1.1-3.9 0.2-4.5 0.1-4.6-1.6-2.2-1.2-1.8-1.2-2.7-0.6-1.7-0.8-0.4-1.1-1.4-0.7-0.7-1.2 4.4 0-1.7-1.8 0.5-1.6-3.4 0.1 0.4 0.9-2.2 1-1.2-0.2-2.3-1.9-2.4-2.4 0.4-1.3-1.2-1 1.5-0.7 2.5 0.9 0.8-0.7 3.8-0.4 4.6 1.1 0.4-1.1 4.2 0.5 3-0.6 5-0.3 2 0.4-1 1.1-6.3 0.3-4 1.3 5.7-0.2 1 0.1 0.6 1.1 3 0.5 2.3 1 0.8-0.5-0.6-2.2 4.4-2.3 2.1 0.4 2.1 0.9 4 3 2.3 1.9 6.1 2.8-0.7-1.5-4.2-4.5-0.9-1.7 0.9-1.7 1.1-0.5-0.4-1.3 1.3-0.5 2.4 0.3 2.6 1.3z m134.7-2.3l-8 0.4-0.9-0.3 15.7-1.4 1.7 0.5-8.5 0.8z m-118.9-1.9l-1.8 0.6-3.2-0.5 0.9-0.7 4.1 0.6z m18.6 0.5l5.6 0.1 1.5 0.9 5.5 1.1 0.8-1.5-0.6-2.2 1.9-0.1 1.7-0.6 3.1 0.3 0.2 1.3-0.5 1.4 2.1 0.1 2.8-0.3 1.9-1.1 2.4 0.1 1.3-0.6 1.4 0.6 8.2 0.7 3.3 0.6 5.2 0 3.7 0.2 2.8 1 1.1 1.7-0.9 0.4-6.7 2-1.6 0.7-2.4 2.3-4.1 0.7-3.5-0.3-3 0.7-1.9 1-1.5 0.2-9.2-0.4-2.2-1.1 1.2-0.9-8.2 0.3-9.2-0.1-1-0.5-5.6-0.5-4.2-1.1 1.1-0.5 5.8 0-0.7-1.5-2.9-0.1-1.8 0.4-4.3 0.2-4-0.1-1.9-0.3-3.8-1-0.7-0.8 2.8-0.4 2.1-0.7-4.5-0.3-1.9-0.3-0.6-0.9 5.9-0.2 5 0.8-0.7-2.2 3.9 1.1 0.2-1.1-2-1.4 2-0.1 4.5 0.7 5.1 1.6z" title="Norway" data-confirmed="133,197" data-deaths="796" data-recovered="88,952" data-active="43,449" data-index="1"/><path d="M666.8 348l0.6-0.6 2.3 0.7 4.5 2.2 1.1 0.9 0.8 3 2.1 5.1 2.9 4.9 1.7 3.6 0.9 3.9-0.6 1.6-4 1.7-0.8 0.5-2 2.7 0 1.2 3.3 1.3 1.8 1 0.8 1-0.2 2.4 0.4 1.1-0.8 1.5 0.1 1.3 1 1.6 1.2 1.8 0 1.3 2.7 2.8 1.9 2.8 1.4 1-1.2 1.3 1.8 2.6 0.1 1.3-1.2 1.8-3 0.5-4.8 4.6-2.4 2.7-3.4 4.4-0.6 1 1.5 3.8-0.1 1.8 1.9 1.4-0.4 0.9-3.3-0.7-0.9-0.2-5.7-1.9-0.8-1.4-1-0.7-3.1-1-3.6-0.3-3.2 0.2-1.4 1.5-1.8-0.1-2.4-1-3 0.1-2.3 1-1.1 2.1-1.7-0.6-1.4 0.4-0.6-2.7-1.4-0.4-3-3-2.2 1.3-1 1.7-2.2 0-0.5-1.5-1.3-0.2-0.5-1.6-2.8-2.2-0.5-1.8-2.7-0.8-0.5 0.2-3.5-1.8-1.8 1-1-0.6-2.7-2.3 1.4-0.5 0-1.6-3.6 0.7-3.3-1.9-2.2-0.6-1.3 0 1.7 2.4-3.5 2.5-1-0.4-1.5-1.9-2-1.8-1.6-0.9 1.6-1.2 0.7-1.1-1.8-1.2-3.2 0.7-0.8-0.9-2.7-1.1-4.6-1.1-1-1.1-0.3-1.1-3.3-0.8 0.1 1.9-2.1 0.4 1.6-3.6 0.4-2.3-1.6-3.2-2.2-0.9 0-1.6-1.9-3.1 0.8-1.1 0.7-2.6-0.8-1.9-2-2.3 0.6-2.6-1.4-1.7-3.3-2.1-1.6-1.4 0.7-1.6 1.9-1.8 0.3-2.7-1.8-4.1-0.7-2.6 2.8 0.9 0.7-0.5-0.1-1.8-4.1-0.7-0.1-1.2 2 0.4 3.8-1.4 6.5-1.8 6.9-1.7 3.3-0.5 2-2.2 1.9-1.7 3.8-0.7 1.3-0.8 2.8-1.2 6.6-1.2 5.5-0.4 5.4 2.3-0.9 0.3-3-1.2 2.2 3.5 1.1 1.2 2 0.9 1.7 0.3 4.9-0.5 2.2-1.1 0.5 0.1 6.6 0.4 22.9 0.9 7 0.1z" title="Poland" data-confirmed="2,880,865" data-deaths="75,160" data-recovered="2,652,577" data-active="153,128" data-index="10"/><path d="M306 611.9l-1.2 0.2-4.5 2.5-1.3 0-2.5-1.1-4.5-0.4-1.5-0.3-1.8 0.7-1.5 0-1.1 1-0.8-0.3 1-2.1 1.6-4.1 0-2.6 0.4-2.2-0.3-2.1-0.7-1.4 1.1-3.5 0-1.8-0.9-2.3 2.8 0.3-1.7-1.4-1.5 0-2.3 0.9-1.5 0.1 0.1-1.4-0.5-1.8 2-0.6 1.6-1.7-0.3-1.6-1.2 1.1-0.6 1.4-2.8 0.7-1.5-0.5 0-1.9 0.6-1.7 0.4-2.3 0.8-2.2-0.2-1.4 1.6-1.3 1.4-1.9 4.3-8.9-0.6-1 1.7-6.6 1.2-2.3 0.6-4.3-0.2-2-0.7-2-0.7-4.3 0-1.4-0.9-1.8 0.1-1 1.4-1.7 1.2-1.1 1.9-0.9 4.1-1 1 1.8-1.3 1.9 0.9 1.3 3-1.1 2.9-0.1 2.2 0.8 1.4 0 2.5-0.9 0.8-1.4 1.5 0.5 5.2 0.1 0.7 1.1 0.1 3.1 1.9 0.2 1.9 0.9 0.3 1.1-2.5 2.5-2.1 1.1-1.6 1.4-1.1 1.6-2 1.6 0.8 2 0.4 3.5-0.4 3.8 0.4 1.1-2.7 2.1-0.2 1 1.4 1.3 0 1.9-1.7 3.5-1 0.5-4.3 0-1.1 0.3 1.1 1.9 1.4 1.2 0.3 1.9 1.6 3.2 1.7 0.4 0.5 0.8-0.6 2.4-3.2 3-0.9 4 3 4.3 1.7-0.2-0.7 2.4-2.1 0.6-3.5 4.3-0.8 2.2 1.1 6.4z" title="Portugal" data-confirmed="907,974" data-deaths="17,156" data-recovered="845,516" data-active="45,302" data-index="4"/><path d="M751.4 483.2l1.5 1.6 1.8 0.9 4 0.9 0.6-1.2 0.9 0.3 1.6-0.5 2.2-1.3 2.2-0.2 2.2 0.7 1.9 1.8-0.2 4.3-0.7 2.1-6.2 1.3 0.4-0.6-0.7-2-1-1-0.9 1.1 0.6 1.7-0.7 1.4-0.2 2.4 0.6 0.9-1.6 2-0.5 1.3 0.8 4.8-0.4 3.7-2 0-2.6-0.5-2.2-0.7-2.5-2.6-1.7 0.5-0.9-0.6-3.2-0.4-4.5-2.3-2.9 0.4-4.4 0.9-3.2 1.2-3.3 2.1-1.2 1.6-1.6 0.9-2.3 0.6-4.2-0.2-9.4-1.7-2.5 0.5-3.5-0.4-5.3-1-3.9-0.3-3.7 0.6-0.9-1.8 1.8-2-4.3-2.5-0.8-1.2-1.6-0.9-0.5-1.7 2.5-1.8-3-1.6-1.7 0.5-1.7 1.8-1.3 0.2-1-1.2-1.5-0.7-3.5-0.7-1.5-1.2-2.1-0.6 0.2-0.6 1.8-0.8-2.3-1.1 1.5-2-0.9-1.1-2.6-0.8-3.8-1.9-2.2-1.8-0.4-4.1-0.8 0.2-1.8-2-2.9-1.7-1.7-2 3.2-0.9 1.4 0.5 2.5-2 2.6 0.3 1.3-0.9 1.5-4.7 2.1-1.5-0.2-1.3 1.6-2.7 0-1.2 1.4-1.5 0.7-2.5 1.4-1.4-0.1-1.7 1.2-1 1.9-2.4 4.6-1.1 2.2-2.3 2.1-0.9 0.9-1.2 0.7 0 2.7 1.5 2.7-0.1 6.9 1.4 3.6-0.7 1.2 0.3 4.3 3.3 2.1-0.5 1-1.2 3.4-1.3 8.4-1.2 1.1-1.9 0.2-1.4 3.7-0.8 2.1 0 2.5 1.6 2.5 3 3 4.9 1.5 1.3 2.5 3.2 2.1 1.8 1.3 1.7 3 2.1 1.4 2.9 1.4 2.3 0.5 2.9-0.9 4.8 0.1 2.6 1.4 5-0.9 0.7 2 2.3z" title="Romania" data-confirmed="1,081,236" data-deaths="34,217" data-recovered="1,045,351" data-active="1,668" data-index="4"/><path d="M651.6 473.1l1.7 2 2.9 1.7 1.8 2 0.8-0.2 0.4 4.1 2.2 1.8 3.8 1.9 2.6 0.8 0.9 1.1-1.5 2 2.3 1.1-1.8 0.8-0.2 0.6 2.1 0.6 1.5 1.2 3.5 0.7 1.5 0.7 1 1.2 1.3-0.2 1.7-1.8 1.7-0.5 3 1.6-2.5 1.8 0.5 1.7 1.6 0.9 0.8 1.2-0.9 0.7-0.2 1.9-2.1 1-0.4 2.3 0.6 2.4 2.4 3.9 2.9 1.5 1.3 1.6 1.6 1-0.3 1.4-1.6 1.7-1.1 1.6-1.8 0.1-1.1 0.6 0 3.3 1.4 2.9-1.1 1.7-1 0.3-1.4-0.7-2.3 0.8-1.9-0.3-2 0.9-2.2 0.3-0.6-1.3 1-0.9 1.2-3.2 0.2-1.2-4.7-1.2 0-1.3-2.2-1.2-0.2-0.7-2.3-2.1-2.8-1.3-1.1-1.3-1.7 0.9 0.6 1.6-0.4 1-1.7 1.3 0 1.4-1.5 0.5-0.1-1-5.3-2.9-2.1-0.5-3-1.6-1.9-2-2.6-1.7-0.4-1.2 0.7-0.8 2.5 0.3 0.2-2.2-3.2-3.7 0.5-0.8 3.1 0.1 0.3-0.8-3.3-2.9-2.4-1.2-0.5-0.8 0.1-2.6 1.6-2.7 0.5-2.5-1.5-0.8-2.8 0.7 1-1.6-0.7-2.6 1.7-0.4 2.3-0.1-0.9-1.5-3-1-1.2-1 0.4-2-1.3-0.4-0.2-1.6-1.6-2.7 0.7-1.5 2.1-1.3 1.6 0.5 2.2-1 1.5-1.6 1-0.3 2.9 0.4 1.1-0.2 2.8 0.3 1 0.5z" title="Serbia" data-confirmed="717,549" data-deaths="7,072" data-recovered="0" data-active="710,477" data-index="3"/><path d="M674.8 427.7l-1.5 3-0.8 2.9-1.6 1.7 0.1 2.5-4.3 1.1-0.6-0.2-2.2-2.2-1.4-0.9-4.6 0.7-2.5-0.6-2.7-0.1-1.8 0.4-1.6 3.5-5 2.5-3.5-1.4-0.7 0.2-1 1.5-2.4 0.6-4.3 0.4-1.4 0.7-0.4 1 0.5 1.3-0.6 1-7 0.4-4.7-0.1-1.6-0.7-4.2-2.7-2.1-0.3-2.3-2.9-1.6-2.9-0.1-0.8 0.9-2.4 1.1-2.8 1.4-1.2 3.6 0.5 1.7-0.2 1.5-0.7 2.1-1.9 1.6-0.8 0.7-3 2.3-1.2 0.6-0.8 2-1.5 2.8-0.3 1.3 0.2 0.5 1.5 2.2 0 1-1.7 2.2-1.3 3 3 1.4 0.4 0.6 2.7 1.4-0.4 1.7 0.6 1.1-2.1 2.3-1 3-0.1 2.4 1 1.8 0.1 1.4-1.5 3.2-0.2 3.6 0.3 3.1 1 1 0.7 0.8 1.4 5.7 1.9 0.9 0.2z" title="Slovakia" data-confirmed="391,925" data-deaths="12,521" data-recovered="255,300" data-active="124,104" data-index="2"/><path d="M605.2 467.1l-2.5-0.6-0.9 0.8 0 1.7-2 0-0.7 1-4.4 1.7-0.4 1.4 0.9 0.9 0.2 2.2-0.4 1.1-2.1 0.6-2.1 1 1 1.1-0.7 0.7 0.8 2.3-1.2 0.4-1.6-0.2-2-0.7-1.3 0.5-1.5-0.7-2.6-2.1-1.2 2.2-0.6 0.3-3.6 0.1-1.1-0.5-1.4 1.3-3.3-0.8-0.5-0.6 1.7-1.1 1.5-0.1-0.2-1.3-1.5-1.3-1.9-1.1 0.4-2-1.3-0.2-0.3-1 1.6-2.1-2.3-0.7-0.7-1.4 3.3-2.3 0.2-0.9 5 0.9 5 0.7 3-1.2 1-1.3 1.9-0.7 2.6-0.2 2.8 0.2 2.3-1.1 1.6-0.2 2.4 0.5 0.1-1.9 1.3-0.9 2.4 0.1 1.4 3.3 1.9 2.2z" title="Slovenia" data-confirmed="257,863" data-deaths="4,423" data-recovered="252,875" data-active="565" data-index="1"/><path d="M591.1 319.4l-1.5-0.3-0.3-3.8 2-4.6 1-0.3 2.7-6.5 0.5 2-1.5 3.2-0.3 2.2-0.6 0.5-2 7.6z m26.2-22.7l-1.3 1.4-1.4 0.5 0.1 3.3 1.5 1.2-1.3 0.5-0.7 1.8-1.8 0.6-1.5 1.6-0.3 1.6-2.1 0.9 1.2-2.4-0.9-0.7-1.4-2.1 0.4-0.9-0.6-3.2 2.7-2.9 1.3-1.1 3.3-1 1.3 0 1.5 0.9z m36.8-113l-2.7 0.3-2.2-0.6-1 0.3-3.8 0.3-1.1 0.7-2.1-0.7-2-1.2-2 1.1-1.6-1-1 1.9 0.1 1.8-1.8-0.2 0.3 1.1-2 1.5-3.2 0.2 0.7 1.5-0.9 0.7 1 1.7-1.3 1.5-2.1 1.9-0.5 1 1.7 1.1 1.6 2.5 1.6 1.1-0.4 1.2-2.1 1.1-2.2 1.7-2 4.3-3.1 1.3-2.4 1.6-3 0.7-2.4 2.2-1.8-0.8-1.5 0.5-1 1.8-1.9 1.5-2.4-0.2 0.2 0.8-2.3 0.3-1 4-2.2 0.6-0.7 0.8-0.9-0.6-2.1 0.1 1.6 2.8-1.7 1.8-1.2 0-1.5 0.7-1.9-0.8-0.2 1.2 0.8 1.3 1.3 1-0.1 1.3-0.9 4.3 0.7 1.8-2.1 1.2-0.8 1.1 0.6 1.7-0.1 1.1 0.7 1.9 0.8 4.2 1.1 2-0.1 1.6 1.3 0.9 2.1-0.1 1.4 1.6 3.1-0.8 0.8 1.1 2.9 2.2 1.7 0.3 1.9 1.2 0 1.5 2.9 1 1.9 2 0.8 1.6-0.1 1-2.6 1.5-1.3 1.3-3.8 2.1-0.6-0.1-2.1 1 2 0.6 1.4-0.7 2.6-0.6 1.4 1.2-2.2 0.5-0.3 1.6-0.8 1-2 0.7-2.8 1.5-4 1.4-1.1 1.2-2.6 1-1.3 0.8-3.8 0-3.7-0.1 1 0.9 0.9-0.2 3.6 0.4 1.7 1.3-3 0.9 1.7 3.2-0.7 0.8 0.4 3.5-1.1 0.1-0.3 1.4 0.6 2.5 1 2.1-0.1 1-1.5 2.4 0.9 2.9-1.5 5.3-1.9 3.1-1.3 4.1-1.8 1.4-2.4-0.9-3.4 0.5-3.2-0.3-3 0.2-0.8 0.4 0.7 1.4-2.3-0.2-1.7 1.1-2 2.1 0 1.5 1.9 3-1.7 2-1.1 0-3.2-0.5-5.5 1.2-5.1-1 0.5-1 0.2-3.1-0.6-1.7-1.3-1.1-3.1-3.8-1.2-2.3 2.4 0.9 1-0.5-1.8-2.6 2.2-0.1 0.7-1-0.6-1.5-1.9-0.6-1.9-2.4-1.8-1.2-3.5-4.7-1.3-3.2-1.1 0.3-1.2-3.7-1.7-0.6-0.6-3.7-1.8-0.4-1.3-1.7-0.4-3.2-1.2-0.6-0.8-1.4-0.8-3-0.3-2.7-0.9-1.8 0.5-1.2 1.1-0.2 1.1 0.8 1 1.8 1.9-0.2 0.7-1.4 0.6-3.9-1.6-4.4 1.5-1.5 0.9-2.4 2.6-0.7 1.3-0.8 1.9-2 0.1-2.8 0.6-2.1-0.5-1.4-3.1-4.9-0.3-1.6 1.8-0.6 2.4 0 1.3-2.5 0.4-1.9-3.4-2.7-1.2-0.4-3.8-2.1 0.9-6.4 0-1.6-2.5-4.4 0.1-1.8-0.6-2.8 1.1-1.1-2.7-4.1 2-2.8-0.5-1.5 1.2-1 3.5-3.8 3.3-1.5 3.3-0.4 7.1 0.9 1.7-2.2-0.1-1.2-1.1-2.9-4.7-1.6 4.4-5 3.3-5 0.1-4.7 0.6-2.7-1.4-3.9 3.8-0.4 2.4-0.5 3.3-1.5-1-2.5 1.3-0.9 3-2.9 3.3-2.9 1.5-1 0.2-1.4-1-1.3-2.7-2.3 0.5-1.1 2.7-0.6 1.1-1.1 1.5-3.5 3.7-1.9 1.5-0.9 6.3 1.8 2.1-3.1-0.8-3.6 0-0.8 2.1-0.5 4.1 0.9 2.9 0.1 8.6 1.7 1 0.1 2.5-1.6-2.9-0.9 1.6-0.9 1.4-1.9-0.1-2-2.6-1.6 5.1-0.2 2.9 0.8 0.4 0.9 2.9 1.1 4.8 2.3 4.2 1.8 8.3 1.7 3.5 1.8 1.2 1.6 1.4 0.1 1.9 1.5 1.8 0.9-1.1 1 0.4 2.4 0.7 1.4-0.3 1.9 2.8 0.4 0.6 1.3-1 0.8-0.1 1.1 0.8 1.6 3.3 2.6 0.6 0.9-0.7 1.4 0.1 1.8-1.5 1.3 0 1.3 1.3 2.6 1.8 0.6 1.9 2.2 1.6 2.5z" title="Sweden" data-confirmed="1,092,540" data-deaths="14,643" data-recovered="0" data-active="1,077,897" data-index="4"/><path d="M733.4 565.7l-2.9 0.5-0.1-1.5 2.2-0.6 0.8 1.6z m194.5-21.5l4.3 1.3 1.1-1 3.6 0.1 3.4 0.8 0.9-1.9 1.4-0.4 1.4 0.3 0.6 1.1 1.2 0.4 3.5 2.5 1.1 1.7 1.9 0.2 1.3 1.2 1.3 1.6 1.7 1.2 1.7 3.3-0.2 2.3-1 1.4 0.8 1.9 1.9 3-0.5 0.6 1.8 0.9 2.9 0.9 3.5-0.4 1.6 0.7 2.3 1.7 3.2 2.8 0.8 0.9-3.3-1.9-1.4 1.6-0.1 3.8-0.6 0.4-2.8-0.1-1.2 0.4 1.2 2.5 1.4 1.2 0 2.3 2.1 2.5 0.2 2.1 0.9 2.2 0.3 2.2 0.5 0.7 1.4 0.3-0.6 3.8-0.6 1.2-0.4 2 1.7 0.6 3.2 2 0.1 1.3 0.6 1.5 0.3 2 3.2 2.3 0 2.3-2.1-0.5-3.7 3.1-1.2-1.2-0.3-2.4-1.5-1.5-1.3-0.2-2.1 1.4-4.2-0.3-2.9-1.1-2.9-0.8-1.9 0.6-2.2-0.7-1.5 1.9-2 1.9-1.2 0.3-1.6-2.6-1.3-0.2-1.2 1.3-2.2 0.8-4.6 1-3.2 0.3-4.1-0.6-3.2 0.2-3.1 1.4-5.2 2.8-4.1 1.4-4.2 0.9-7.6-0.2-1.1-0.3-3.5-2.3-3.4-0.6-3.4 1.6-2.3 0.8-3.5 1.6-4.8-0.1-1.9-1.7-3.7-0.7-0.6 1.6-0.3 3.8 1.8 3.1-3.3 1.4 0 2.6-1.8 1.1-0.8 1.6-2.2-1.2-1-0.1 0.7-1.3-2.5-4.9 0.7-1.5 3.5-3.9-0.4-2.4-2-1.6-2.9 2.1-1.7 0.8-0.3 1.2-1.1 0.8-1.8 0.4-2.9-1-3.2-1.4-1.9-1.1-1.4-0.3-1.3 0.5-3.5 2.8-3.1 4.1-0.8 0.8-3.2 1.7-2.2 0.6-1-0.1-4.4 0.8-2.2 0.1-1.6 0.9-3.5-1-2.2-1.3-1.4-1.3-2.3-2.9-1.6-1.3-3.3-1.2-5.8-3-5.3-0.7-4-0.3-0.7 1.1 0.1 4.2-0.5 1.2-0.1 2.2-1.1 1.1-2.1-1-1.9 0.9-3.7 1.3-1.2 0.1-4.6-1.6-2.9-2.1-0.6-2-1.3-2.7-1.8 0.3-2.3-0.4-3.2-1.6-2.4-0.1-1.2 1.9-1 0.7-1.3-0.4 0.8-1.3-3.7 0.2-1.8 1-1.5-0.1-1-1 2-0.6 3.9-0.4 0.9-0.4 0.9-1.3 1.7-1.2-1.2-0.5-6 0.3-4.2-0.2-1 0.7-0.4-1.6 3.6-1.4-0.3-1.3-4.2-2.2-0.3-1.6-2-3.1 1.9-0.5 0.1-2.5-0.4-1.5-3.9-1.3-0.8 0.1-1.1-1.3-1.7-0.9-1.2 0.7-3.3-1.4-0.6-0.6 0.5-1.4 1-1.1-0.9-1.9-0.1-1 1.8-0.1 1 1.1 0.3 2.2 3.6 0.7 2.9-0.6-2.5-1.1-1.1-1.2-1.2-2.3 1.8-1.1 1.2-1.7-2.7-1.2 0.2-2.4-2.5-2.7 0.3-0.8 2.3-2.8-1.2-0.7-4.3 0.7-1.6 0.6-3.1 0.2-0.3-1.6 0.6-1.3-0.5-3.4 0.2-1.8 1.7-0.6 1.7-2.7 3-3.1 3.5 0 1.3-0.9 2.1 0 0.8 1.2 1.9 0.9 3.2-0.1 1.4-0.9-1.6-1.5 1.7-0.5 1.5 0.4-0.1 1.8 4.1-0.5 4.4 0.4 1.4-0.2 3.4 0 0.5-0.5-3.6-1.7 2-1.5 6.8-1.2 3.7-0.8-5.7-0.8-1.4-0.6-2-1.4-1-1.1 0.3-2.6 0.6-0.7 2.2-0.1 7.7 1.2 5.3-0.8 6.1 1.8 5.6-0.4 1.1-0.7 1.1-2.6 7.4-4.2 2.4-2.1 2.8-1.2 5-1.4 4-1.7 1.2-0.2 10.4 0.8 7 0.1 3-1.6 2 0.5-0.1 2.1 2.6 2.6 3.5 1.4 4.4-1.2 1.8 0.5 2.2 4 1.5 1.4 1.8 0.9 1.3 0.2 1.5-1.4 1.7-0.1 2.9 1.3 1.2 1.4 4.8 1.1 4.3 0.6 2 1.2 6.2 1.2 2.2-0.2 3.6-1.3 7-1.3 5.2 1.9 2.5 0.1 1.7 0.5 1.7-0.3 5-2.3 1.4-1.2 1.7-0.4 5.2-3.3 0.9-1.4z m-171.9-7.1l-0.1 1.8 1 2 2.3 2.7 2 1.4 8.1 3.3 1.4 0.3-0.9 3.5-2.1 0.5-6.4-1.5-1.6-0.1-2.9 1.4-2.3-0.4-3.1 0.6-0.6 2.1-2 2.4-3.3 1.9-2.5 1-3.5 3.7-1.5 2.2-1.5 0.7 0.5-2-0.3-1.7 2.3-2 3.3-1.6 0.7-1.3-5.4 0.3-3.3 0-1-1.8 0.8-0.4 2.5-3.2-0.5-4.4 3.4-2.5-0.9-3.1-2.3-1.5-1.2-0.3 0.3-1.4 1.9-0.3 1-2.2 3.4-0.4 1.5-1.1 3.5-0.3 3.4 2.5 1.5-0.6 1.8 0 0.9-0.4 1.7 0.2z" title="Turkey" data-confirmed="5,481,555" data-deaths="50,229" data-recovered="5,349,344" data-active="81,982" data-index="19"/><path d="M796.7 471.6l0 0.6-3.9-0.8-0.9-0.9 4.8 1.1z m-26.4 14.6l-1.9-1.8-2.2-0.7-2.2 0.2-2.2 1.3-1.6 0.5-0.9-0.3-0.6 1.2-4-0.9-1.8-0.9-1.5-1.6 1.1-0.7 2-0.2 0.4-1-0.5-1.4 2.5-2.9 0-1.3 2.3-1.7 0.4-2-1-1.7-0.5-2.1 2.5-1.6 2.1 1 1.9 0.2 2.1 0.8 1.6-0.6 1.2 1.3 2.9-0.4 0.6-0.7-2.9-1.7-0.2-2.9-1-1.6-2.1-0.8-2-1.3-0.9-1.9 0-2.4-2.9-2-2.3-1.2-0.6-1.2 0.6-3.1-0.6-2.3-1.4-1.4-1.4 0.7-1.4-1-1.4-1.9-5.6-0.6-0.6-1.2-2.5-0.3-3.6-2.4-3.5-1-1.6 1-0.8-0.3-1.2 1-4-0.1-0.7-0.2-2.3 1.4-0.2 0.6-3.7 0.8-0.2 1.4-1.1 1.9-8.4 1.2-3.4 1.3-1 1.2-2.1 0.5-4.3-3.3-1.2-0.3-3.6 0.7-6.9-1.4-2.7 0.1-2.7-1.5-0.7 0-0.9 1.2-2.1 0.9-0.7-1.7-0.9-0.7-2.3-0.4-0.9-1.1-2.2-0.8-1.4-2.3-1.5 0-0.1-2.5 1.6-1.7 0.8-2.9 1.5-3 3.3 0.7 0.4-0.9-1.9-1.4 0.1-1.8-1.5-3.8 0.6-1 3.4-4.4 2.4-2.7 4.8-4.6 3-0.5 1.2-1.8-0.1-1.3-1.8-2.6 1.2-1.3-1.4-1-1.9-2.8-2.7-2.8 0-1.3-1.2-1.8-0.1-1.4 1.1-0.5 1.9 0.3 1.1 0.5 1.9-1.2 1.6-1.6 0.8-1.4 5.9-0.5 2.3-0.5 2.4-0.1 7.8 0.4 6.5 1.5 6.1 0.9 2.3 0 1.8 2.1 1 0.3 3-0.1 1.1 0.4 0.8 1.4 1.2-1.7 1.9 0.5 1.9-0.7 5.1 1 0.8 1.3 1 0.3 0.6-1.1 3.8-1.6 2.5 3 0.6 0.5 2.3-0.8 7.1-0.6 2 1.1 0.5 1.2 2.7 0.9 0.8-1.4-1.8-3.6 1-3.3 0.8-1.2 2.2-2.3 1.1-0.5 1.7 0.4 1.4-0.8 5 0.1 2.6 0.8 1.7-0.1 1.8-0.9 0.5-2.4 1.6-0.6 3.7 0.9 1-0.1 2.7-1.2 1.6-0.2 2 0.3 3.4-0.2 2.5 1.4 1.4 1.4 1.7 2.7 4 3-0.1 1-2.9 0.5 1.3 1.9 0.5 2 1.2 1.7-0.4 1 3.1 0.1 2.9 1 4.1-0.5 1.5 2.2 1.9 0.2 0.2 0.9 1.4 2.8 0.9 1.1-0.2 1.8 0.5 1 1.9 1.6 0.7 1 1.1 0.4 2.3-1.4 2.8 0.4 2.7 2 2.3 0 1.7 1.1 1.4-1.3 4.3-0.9 2.3-1 1 0.1 2.3 1.8 0.5 1.2 1.5 1.6 4.7 2.9 1.3-0.6 0.9-1.5 2.6 1.4 2.4 0.2 3.6 1.9 1.4 0.1 1.6-0.6 2 1.8 1.9 0.2 4.4 2.3 2.9-0.3 1 0.8-0.1 1.7 1 0.9-0.1 2.6-1.7 2.1-2.3 0.8 1.1 1.5 3.1 0.9-0.9 0.9-1.4-0.2-0.8 1-0.3 2.3 2.5 0.7 1.2 2.8 0 1.1 1.2 0.3-1.3 4.7-0.1 1.8-4.2 0.2-6-0.3-0.9 0.2-0.9 1.9-2.3 1.4-1.7 0.2-0.8 0.8 0 2.3-0.4 1.3 1.1 0.7-0.7 1.6 0.5 1.3-0.5 0.1-4.3-0.2-3.4 0.3-2.1 2.4-1.5 0-3.2 1.5-1.4 1.7-1.4-0.8-3.1 0.5-1.7 1.1-3.1-0.1-2.3 0.6-4.6 3.8-1.3 0.1-1-1-1.6 2.6-2.4 1.2 0.6 3.1 2.8 4.5 3.6 3.9 1.7 1.4 2.4 0.7 3.1-1.4 2.4 0.4 1.7-1.2 1.5-0.1 3.7 1-1.1 2.5-0.3 2.6-1.9 0.6-2.2-0.1-2.2 0.4-2.7-1.5-2.5 0-1.1 1.9-2.3 1.3-0.6 1.4-2.6-0.3-2.1 0.2-2.8 1.4-1.9 2.8-2.3 1.8-1.9 0.5-2-0.1-1.3-0.6-2.9-1.8 0.7-2 0.5-3.5-1.2-2.9-2.3-1.4-1.6 0.2-0.9-0.3-3.7-2.4-1.9-0.2-1.9 0.5-1.5-1.2 3.5-2.9 3.5-2.4 1.7-0.2 2.1-1.2 2.2-1.6-1.3-2.3-1.9 0.6-2.2-1.1-0.9-0.8-3.1 0.8-1.8-0.1-3.8 0.8-1.9-0.8-4-2-2.6-0.3 0-1 1.8-0.3 0.1-1-3.8-0.6-0.1-1.3 2 0.5 3.2 0.2 2.9 0.5 2.1-1.8-2.4 0.5-2.9-0.5-2.1-1.8-2.2 1.2-3.2-0.5-2.4 0.8-2.3-0.2-4.1 1.1-0.4 2.9-2 4-3.1 3.7-4.6 2.1-1.7-0.4-0.9 1.1 0.2 1.3 1 0.9 1.1 3.1-0.1 1.3z" title="Ukraine" data-confirmed="2,241,217" data-deaths="52,604" data-recovered="2,177,529" data-active="11,084" data-index="8"/><path d="M674 532.8l-2.1 0.4-1.5 1.9-1.6-1.2-1 0.1-3.4 1.5-0.2 2.6-0.5 0.8-1.7-0.3-0.1-2.2-1.4-3.2-1.9-1.3-1.4-0.5-2-2.9-0.5-0.4 0.2-1.3-0.9-1.5 2-0.4 0.2-0.7 1.6-0.4 1.5-0.5 0-1.4 1.7-1.3 0.4-1-0.6-1.6 1.7-0.9 1.1 1.3 2.8 1.3 2.3 2.1 0.2 0.7 2.2 1.2 0 1.3 4.7 1.2-0.2 1.2-1.2 3.2-1 0.9 0.6 1.3z" title="Kosovo" data-confirmed="107,854" data-deaths="2,268" data-recovered="105,457" data-active="129" data-index="1"/><path d="M452.2 392.5l-0.6 1.2-3.2 1.5-3.9-1.1-1.2 0.6-1.2-0.7-0.3-1.3 2.8-0.4 3.5 0.7 1.5-0.6 1.2 0.5 1.4-0.4z m-3.4-5.3l1.5 1.4-1.5 0.3-1.6-1 1.6-0.7z m18.1-8.5l-3-0.4-0.9-0.7 2.4-1.7 3.2-1.5 1.7 0.4 0.5 0.9-1.1 1.1-2.8 1.9z m-7.6-11.5l-1.1 1.1-0.6-1.4 1.7-1.4 0 1.7z m-7.1 25.3l-2.6-0.8-2.2 0.5-2.8-0.7-1.7-1.3 1.2-0.7 2.3-0.1 4 0.7 1.2-0.9-0.6-1-2.3-2.1 1.6-2.7 1.4-1 3.2-3.8 0.9-2 1.2-5.5 1-2 1.4 0.5 2-0.8 3.4-2 1-1.7 1-0.9 4-1.6 2.1-0.4 8.9-0.5 1.8 1.7 2.7 0.6 0.1 4.3-0.7 1.7-1.1 3.8-3.1-0.1-0.6 1.6 0.7 1 2.6 0.3 0.8 1-0.6 2.6-2.6 1.6-0.3 0.9 1 0.9-0.7 1-4.5 1.3-2.3-0.8-1.8 0.7-0.7 1.1 3.1 4.1 0 1.2-1.3 2.8 0.7 1.2-2.2 1.6-0.5 0.8 1.9 1.2-0.6 2.4-1.2-0.1-2.4-0.3-0.7-1.1 1.1-1.3 1-2.9-2.6-1.1-1.7-1.3-1.9 0.4-2.6-1.4-0.5-1.6-2.5 0.8-1.1-1.3-1.5 1-1.5-0.8-1.4 0.7 0.2 0.9-2.1-0.3z m18.1-15.6l0.9-0.9-0.5-1.9-2.1-0.3-0.5-0.8 0.4-2.5-2.8-0.4-0.4-2.5-1.5 0.3-2.3 1.5 0.6 1.3 1.6 1.6 0 0.9-2.1 0.7 0.1 2.6-0.2 1.6 5.4 1.4 3.4-2.6z" title="Netherlands" data-confirmed="1,728,438" data-deaths="17,765" data-recovered="0" data-active="1,710,673" data-index="6"/><path d="M420.4 584.7l-0.4 1-2-0.4 0-1.5 1.2-1.6 2.7-0.7 0.8 1.3-2.3 1.9z m21.7-13.6l1.2 0.5 1.3-0.5 1.4 0.4 0.2 1-2.2 3.5-0.6 1.4-2.1 1.3-4-1.7-0.3-1.6-1.4-0.7-1.7 1.3-1.4-1-0.3-1.2 5.3-3.7 1.5-0.9 3.2-0.9 0.5 1.2-0.6 1.6z m14.7-0.8l-0.3 0.2-3.9-1.9-1.6-0.4 0.1-1.4 2.6-0.2 2.1 0.7 1.2 1.8-0.2 1.2z m-77.4-55.5l0.5 1.3 4.3 1.3-0.3 3.2 1.8-0.4 4.4 1.7 2.2 0.2 2.2 2.1 3.6-0.4 3.2 2.1 3.1-0.4 0.7 0.4 4.7 0 0.8-2.4 4 1.1 2.5 1 1.7 0.3 1.1 1.5 0 2.1 0.7 0.4 2.8-1.1 2.8 1.2 1.3 1.2 2.1-1.1 4.7 1.2 1.2-0.8 3.8-1.1 3.1 0.6 1.2 2.2-1.8 0.5-0.2 1.4 1.2 1.3 0.1 2.1-3 2.8-8.7 4.7-2.9 2.7-6.6 1.5-4.5 1.5-2.2 0.5-4.1 3.8 1.1 0.3 1.2 1.2-0.4 0.6-2.5 1.1-0.9 0-2.9 4.6-2.6 3.3-1.5 1.5-1.5 2.1-3.2 5.6-0.1 1.6 1.6 5.5 2.2 2.7 2.4 1.1 0.6 1-0.8 1-2.4 1.7-4.3 2.3-1.8 1.9-0.3 1.8-1.3 0.8-0.5 2.5-1.8 4.4 1.3 1.2-1.3 0.8-6.5 0.3-4.1 2.8-2 2.4-1.9 4.5-2.2 2.6-1 0.5-1.5-1.2-1.9-0.1-1.9 0.3-1 1-1.5 0.5-1.5-0.5-4.6-0.2-2.3 0.8-1.9-0.5-3.2-0.3-7 0.6-4 3.4-3.4 0-3.1 1.2-2.1 3-0.5 1.6-1-0.3-0.3 1.2-2.1 0.8-2.4-1-2-1.5-1-0.1-1.6-2.2-1.2-3.1 0-1.1-1.5-0.6-0.3-1.4 0.2-1.6-1.2-2-5-3.7-3.7-0.3-3 0.5-1.1-6.4 0.8-2.2 3.5-4.3 2.1-0.6 0.7-2.4-1.7 0.2-3-4.3 0.9-4 3.2-3 0.6-2.4-0.5-0.8-1.7-0.4-1.6-3.2-0.3-1.9-1.4-1.2-1.1-1.9 1.1-0.3 4.3 0 1-0.5 1.7-3.5 0-1.9-1.4-1.3 0.2-1 2.7-2.1-0.4-1.1 0.4-3.8-0.4-3.5-0.8-2 2-1.6 1.1-1.6 1.6-1.4 2.1-1.1 2.5-2.5-0.3-1.1-1.9-0.9-1.9-0.2-0.1-3.1-0.7-1.1-5.2-0.1-1.5-0.5-0.8 1.4-2.5 0.9-1.4 0-2.2-0.8-2.9 0.1-3 1.1-0.9-1.3 1.3-1.9-1-1.8-4.1 1-1.9 0.9-1.2 1.1-1.3-0.1 0-2.5 2.6-2.6-1.6-0.2 1.2-1.9-1-1 0.1-2.6-2.3 0.9-0.5-1.2 1.4-2.2-1.4-0.2-2.3-2.5 0.8-3.1 2-1 1.9-1.5 2.6 0.3 1.7-0.3 3.6-1.6-0.4-1.5 0.4-0.7 3.2-1.7 2-0.2 1.9-0.9 1.3 0.5 1.1-0.1 1.3 0.6 1.7 1.6 2.5 0.6 2-0.5 3.6-0.1 1.7 0.2 3.2-0.3 1.8 0.1 2.9-0.8 2.3 1 4.4 0.4 2.6 0.8 7.2 1.4 2.7 0 3.7-0.8 1.6-0.5 1.5 0.3 2.1-0.6 2.3 1 4.7 1.3 2.1-1.3 3.4 0.6 3.3 1.3 1.8 0.1 2.6-0.3 2.5-1z" title="Spain" data-confirmed="3,937,192" data-deaths="81,003" data-recovered="0" data-active="3,856,189" data-index="14"/><path d="M521.2 524.1l-0.3 2.3 1 1.7 0.6 6.5-1.8 3.2 0.1 3-1.6 4.3-0.8 1.1-3.8-2-1.2-1.1 1-1.8-2.2-0.9 0.4-1.7-0.2-0.9-1.6-0.5 1-1.3 0-0.8-1.5-1-0.3-0.9 1.3-1.1-0.6-0.9 0.1-1.3 0.9-1.9 1.2-0.9 2.8-0.8 1.2-1.1 1.9 0.6 0.6-1.2-0.2-2.7 0.3-1.1 1.3 0.5 0.4 2.7z m-133.9-47.9l-0.4 1.4-1.9-2.4 1-0.5 1.3 1.5z m84.4-55.6l2.1 1.2 1.4 0 2-0.6 1.3 0.7 1.4 0.1 3.5 4.3 1.8-0.7 1.4 0.4 0.3 0.9 2.1 0.1 3-0.6 2 1.4 4.8 0.8 1.6 0.6 0.1 1.3-3.5 3.8-1.4 5.5-1 1.8-0.3 1.5 0.2 2.4-0.6 2 0 1.5 1.1 1.3-1.5 0.7-0.8 1.4-2.7 0.3-0.8-0.8-1.1 0-1.8 1.4 1.3 1.1-0.6 0.9-3.8 4-2.1 0.9-0.5 2.9-3 2.2-1.1 2.9 0.8 0.7-0.3 1.5-1.5 1 0 1 1.4 0.1 2.3-1.6-0.5-1.3 2.3-1.5 1.9-0.1 2.2 0.3 0.8 2.2-0.5 1.7 2.3 2.3 0.9 1.4-2.6 1.7 0.1 1.6 0.9 0.6 1.7 2.6 1.8 1.6-0.8 2.5-1.2 0.3-1.7 1.3-1.9-0.2-0.8 0.4 1.5 3.1 3.2 1.4 0.5 1.7-0.8 0.7-1.4 2.5 0.7 1.3 0.1 1.4 0.9 0.9 5.1 2.4 3.3-0.6 0.3 2-2.1 2.6 0.2 1.5-0.6 0.3-0.8 0.3-2.4 1.1-3.9 3.4-1.8 1-0.7 1.8-2 1.4-2.4 0.5-2.3 1-1.1-0.4-2.8 0-1.7-1.2-3.4-0.8-1.1-1.8-2.5-0.1-0.8-1.5-1.9 0.3-1.5 0.7-2-0.1-5.9-1.8-1.4-1.4-1.7 0.5-1.6 1.6-6.5 4.1-2.6 4.3-0.1 1.2 0.7 3.9 1.6 2.5-3.1-0.6-3.8 1.1-1.2 0.8-4.7-1.2-2.1 1.1-1.3-1.2-2.8-1.2 0-1.5-2.6-0.6-0.9 0.7-1.1-1.5-1.7-0.3-2.5-1-4-1.1-0.8 2.4-4.7 0-0.7-0.4-3.1 0.4-3.2-2.1-3.6 0.4-2.2-2.1-2.2-0.2-4.4-1.7-1.8 0.4 0.3-3.2-4.3-1.3-0.5-1.3 2-0.5 1.9-1.9 1.7-7.1 1.3-8.3 1-1.6 1.2-0.4-1-1.2-1.1 1.5 0.7-7.6 0.5-2.8 0.9-3 3.1 2.4 0.8 1 0.9 3.4 0.6 0.1-1.1-4.6-1.8-2.3-3.6-2.3-0.5-1.3 1.8-0.6-0.5-1.8-0.5-5.9-3-0.6-4.8-2.6-1.7-2.6-1.6-1.9-0.4-1.7 0.9-1.8-0.8-1.1-1.4-0.8 1.1-1.6-3-0.2-1.8-0.5-0.3-1.1 1.3-1.4-1.6-0.8-2.6 0.2-0.2-1.7-2.2 0.3-1.2-0.3-1.1-1.1-1.3 0.2-2.2-0.4-0.8-0.7-4.8-1.3-2-0.1-1.9 0.6-1.1-0.3-1.3-2.2-3.1-1.1 0.6-0.7 3.1-0.6 0.6-0.7-2.2-0.9-0.2-1.2 1.6 0.3 0.1-1.2-4 0.1-0.4-1.3 0.5-1.4 2.3-1.2 5.8-1.4 2.5 0.2 1.7-0.2 3-1.6 2.9-0.4 2.7 0.8 2.5 2.8 1.2 1 3.1-1.7 4.4 0.1 0.9 0.9 1.2-1.7 1 1 4.7-0.2-1.5-2.5-0.2-6-1.3-1.7-2.1-4.3 0.2-1.4 3.2 0.3 2.7-0.6 1.3 0.4 0.3 2.8 1.1 1.6 2.2 0 2.3 0.5 3 0.1 4.3 0.8 1.8-0.5 3.5-2-1.8-0.7-0.2-0.7 0.9-2.2 5.2-2.5 3.7-0.7 3.8-1.3 2-1.4 1.2-1.8 0.5-1.3 0.3-6.8 1-2.2 2.9-1.6 6.4-1.1 0.9-0.5 0.9 2.2 0 1.2 2.9 2.4 3.2-1 1.6 1.8 0.5 2 4.2 1.1 0.6 2 0.9-0.3 3.6 0.4 1.6 1.1-0.4 1.6 0.7 0.7-0.7 1.4 0.5 0.6 2.3 0.3 2.2-0.3 1.3-0.6 0.5-1.4 1.9-0.6-0.8 2.7 0.6 0.6 0.4 2 1.7 0.1 3.3 1.5 2.8 2.6 3.4-0.4z" title="France" data-confirmed="5,812,639" data-deaths="111,354" data-recovered="341,237" data-active="5,360,048" data-index="20"/><path d="M306 611.9l-1.2 0.2-4.5 2.5-1.3 0-2.5-1.1-4.5-0.4-1.5-0.3-1.8 0.7-1.5 0-1.1 1-0.8-0.3 1-2.1 1.6-4.1 0-2.6 0.4-2.2-0.3-2.1-0.7-1.4 1.1-3.5 0-1.8-0.9-2.3 2.8 0.3-1.7-1.4-1.5 0-2.3 0.9-1.5 0.1 0.1-1.4-0.5-1.8 2-0.6 1.6-1.7-0.3-1.6-1.2 1.1-0.6 1.4-2.8 0.7-1.5-0.5 0-1.9 0.6-1.7 0.4-2.3 0.8-2.2-0.2-1.4 1.6-1.3 1.4-1.9 4.3-8.9-0.6-1 1.7-6.6 1.2-2.3 0.6-4.3-0.2-2-0.7-2-0.7-4.3 0-1.4-0.9-1.8 0.1-1 1.4-1.7 1.2-1.1 1.9-0.9 4.1-1 1 1.8-1.3 1.9 0.9 1.3 3-1.1 2.9-0.1 2.2 0.8 1.4 0 2.5-0.9 0.8-1.4 1.5 0.5 5.2 0.1 0.7 1.1 0.1 3.1 1.9 0.2 1.9 0.9 0.3 1.1-2.5 2.5-2.1 1.1-1.6 1.4-1.1 1.6-2 1.6 0.8 2 0.4 3.5-0.4 3.8 0.4 1.1-2.7 2.1-0.2 1 1.4 1.3 0 1.9-1.7 3.5-1 0.5-4.3 0-1.1 0.3 1.1 1.9 1.4 1.2 0.3 1.9 1.6 3.2 1.7 0.4 0.5 0.8-0.6 2.4-3.2 3-0.9 4 3 4.3 1.7-0.2-0.7 2.4-2.1 0.6-3.5 4.3-0.8 2.2 1.1 6.4z" title="Portugal" data-confirmed="907,974" data-deaths="17,156" data-recovered="845,516" data-active="45,302" data-index="4"/><path d="M843.2 646.3l-0.1 0-0.1 0 0.1-0.1 0.1 0.1z m0 0l0.1 0 0.1 0 0.1 0.1-0.1 0-0.1 0-0.1 0 0-0.1z m-0.4-0.3l-0.1 0 0-0.1 0.1 0 0-0.1 0.1 0.1 0 0.1-0.1 0z m3.5-0.8l0.2 0.1 0.3 0.3 0.2 0.4 0.1 0.3 0.2 0.2 0.2 0.1-0.2 0-0.3 0-0.3-0.1-0.2-0.2-0.2 0-0.7 0.1-0.6 0.1-0.1 0.1-0.1 0.1-0.3 0-0.3 0-0.1-0.1 0.2-0.1 0.1 0-0.1-0.3-0.2 0-0.2-0.1 0-0.4-0.1-0.1-0.3-0.1 0-0.2 0.1-0.1 0.2-0.1 0.1 0.1 0.1 0.1 0.2-0.1 0.1-0.1 0.1-0.1 0.1-0.1 0.2 0.2 0.2 0.1 0.1 0 0.2 0.1 0.1 0 0.3-0.1 0.2 0 0.1 0.1 0.2 0 0.1 0 0.1 0 0-0.1z m-4 1.1l0 0.2-0.3 0.1-0.3 0.3 0 0.2-0.1 0.3 0 0.3 0 0.3 0 0.3 0 0.1-0.1 0-0.1 0.1 0 0.3-0.1 0.1-0.2 0-0.4 0-0.2 0.1-0.1 0.1-0.1 0.2-0.1 0.1-0.2 0.1-0.4 0.1-0.4 0.2-0.3 0.1-0.2-0.3 0.1 0.5-0.4 0.2-0.9 0.2-0.2 0.1-0.1 0.1-0.2 0.1-0.2 0-0.9-0.1-1 0.1-0.1 0.1-0.2 0.1-0.6 0.5-0.1 0.3-0.3 0-0.3 0.1 0 0.1-0.1-0.1-0.1-0.2 0.1-0.2 0.1 0.1 0.3 0-0.1-0.4-0.4-0.1-0.2 0.2-0.1 0.1-0.2-0.1 0 0.1-0.4-0.1-0.3-0.2-0.1-0.1 0-0.2-0.1 0-0.1 0-0.1 0-0.1 0-0.1 0.1 0 0.1-0.2 0-0.1 0.2-0.2 0-0.2 0-0.1 0.1 0.1 0.2-0.2 0.1-0.5 0-0.6-0.1-0.5-0.2-0.7-0.4-0.3-0.1-0.3-0.1-0.5 0-0.3-0.1-0.2-0.2-0.6-0.4-0.1-0.1-0.1-0.4 0-0.1-0.1-0.1-0.4-0.9-0.1-0.1-0.3-0.2-0.2-0.1-0.1-0.1-0.1-0.2 0-0.2 0.1-0.2-0.3-0.4-0.1-0.2 0-0.4-0.1-0.2-0.3-0.5-0.2-0.3-0.1-0.4 0.1-0.3 0.1 0 0.3 0.1 0.4 0.5 0.3 0.1 0.2 0.1 0.6 0 0.4-0.2 0.3-0.4 0.3-0.4 0.1-0.5 0.1-0.3 0.2-0.1 0.1-0.1 0-0.1 0.1 0 0.1 0.1 0.1 0 0.2 0 0.1 0.1 0.2 0.2 0.2 0 0.1 0 0.2-0.2 0.1-0.2 0-0.2 0.4 0.1 0.2 0.4 0.1 0.2 0.1 0.2 0.2 0.1 0.4 0.1 0.3 0.1 0.2 0.2 0.2 0.1 0.1 0.2 0 0.2 0.1 0.1 0.1 0.1 0.1 0 0.4-0.1 0.1-0.2 0.1-0.2 0.1-0.1 0.1 0.1 0.1 0.1 0.2 0.1 0.2 0 0.2-0.1 0.2-0.2 0.2-0.2 0.2-0.1 0.3-0.2 0.1-0.2 0.2 0 0.3 0.1 0.3 0 0.4 0 0.1-0.1 0.1 0 0.1-0.2 0.3-0.2 0.2 0 0.2 0.1 0.1 0.1 0.2 0 0.1 0 0.2 0.2 0.2 0.2 0.2 0.1 0.3 0.1 0.1 0 0.1-0.1 0-0.1 0.1-0.2 0.3-0.3 0.1 0 0.2 0 0.3 0 0.2 0 0.1 0 0 0.2 0.1 0.2 0.1 0.1 0.2 0.2 0.2 0.2 0 0.1 0.1 0.3 0 0.2 0 0.3 0 0.4-0.1 0.3 0.1 0.2 0.1 0.1 0.2 0 0.2 0 0-0.3 0-0.4 0.1-0.1 0.1-0.1 0.1-0.1 0.1 0.1 0.1 0.4 0.1 0.2 0.1 0.1 0.3-0.1 0-0.2 0.1-0.1 0.2 0 0.1 0.1 0.2 0 0.1-0.1 0.1 0.1 0.1 0 0.3 0.2 0.2 0 0.1 0 0.3 0.2z" title="Cyprus" data-confirmed="84,272" data-deaths="380" data-recovered="39,061" data-active="44,831" data-index="1"/></svg>