<svg xmlns:svg="http://www.w3.org/2000/svg" xmlns="http://www.w3.org/2000/svg" preserveAspectRatio="xMidYMid meet" version="1.1" xmlns:xlink="http://www.w3.org/1999/xlink" xmlns:ev="http://www.w3.org/2001/xml-events" viewBox="0 0 1000 960" max-index="455000"><path d="M579.6 446.4l-0.8 14.2 0.7 2.1 0.1 1-0.1 0.7-0.3 0.4-0.4 0.2-1.1 0.1-0.4 0.2-5.1 6.9-0.2 0.2-0.3 0.1-1.5 0.1-0.4 0.1-0.4 0.6-0.5 1.1-0.4 1.9-0.1 1 0 0.6 0.1 0.3 0.7 1.1 0.1 0.4 0.1 0.4-0.2 0.7-0.3 0.8-5.3 9.1-0.7 2-0.6 3.8-1.1 4.4-0.4 1-0.3 0.6 0 0.5 0.3 0.4 0.3 0.2 0.6 0.2 0.3 0.2 0.1 0.3 0.1 0.3 0 1.5 0 0.5 0.1 0.5 0.2 0.2 0.2 0 0.2 0 0.2-0.2 0.6-1.1 0.2-0.2 0.5-0.4 0.4-0.3 0.5-0.1 0.6 0 0.7 0.2 0.4 0.1 0.3 0.2 0.2 0.3-0.1 0.9-0.3 1.4-1.6 3.1-0.4 0.6-0.7 0.6-0.9 0.9-0.3 0.6-0.3 0.8-0.3 1.3-0.1 0.8 0 1.7-0.8 2.6-3.3 6.8-2.9 7.5-0.6 1.1-0.6 0.7-1.1 0.9-1.5 1-0.4 0.4-1.9 3.2-1.3 1.1-3.8 0.7-1.1 0.4-1.1 0.5-0.5 0.4-0.3 0.4-0.8 1.2-0.2 0.8-0.2 1-0.1 2 0.2 2.4-1.8 8.7 0 0.8 0.2 0.4 0.2 0.3 0.6 0.2 2.6 0.3 0.7 0.2 0.3 0.2 0.5 0.3 0.4 0.4 0.3 0.5 0.2 0.4 0 0.7 0 1-0.2 1.8 0 0.8 0.1 0.5 1.3 2 0.2 0.2 0.2 0.1 0.2 0 0.3-0.1 0.2-0.2 0.3-0.4 0.5-0.4 0.5-0.3 0.6-0.1 0.2 0.1 0.3 0.2 0 0.8-0.1 1.2-2.1 10.6-0.8 1.4-0.4 0.5-0.4 0.3-0.8 0.4-0.5 0.4-0.4 0.4-0.8 0.8-3 5-1.4 1.6-0.8 0.8-1.7 1.3-0.3 0.2-0.3 0.4-0.3 0.8-0.4 1.2-0.3 1.8-0.1 0.9 0 0.5 0.3 0.6 0.4 0.5 0.6 0.6 0.2 0.2 0.2 0.4 0.1 0.4-0.3 1.3-3.4 8-1.4 2.4-1.6 2.1-0.5 0.4-0.4 0.4-1.1 0.5-2.3 0.9-0.4 0.2-0.3 0.3-0.3 0.5-0.2 0.5-0.1 0.5 0 0.4 0.1 0.4 3.2 5-8.2 0.2-29.3 1.3-10.6-0.7-6.3 0.9-1.8 0.6-0.4 0.1-0.4 0.3-0.9 0.8-0.4 0.5-3.1 5.1-0.4 0.5-0.3 0.2-0.5 0.3-5.3 2.3-2.8 2-1.1 1.2-13.5 10.5-1.9 2.2-2.7 4.2-14.9 6.7-8 2.1-6.9 1-2.4 1.3-0.8 1.3-2.9 7-4.3 5.6-4.1 7.4-0.8 1.8-0.5 1.3-0.3 2.3-2.3 10.1-0.4 3.2-0.1 2.4 0.7 6.8 0.4 29 0.2 5.7 0.4 3.3 0.6 3.1 0.6 1.4 15.7 29.5 0.6 2.4 0.2 1.9-1 6.1 0 1.3 0.4 3.6 0 1.8-0.3 2.1-0.7 2.4-3.1 8.4-0.8 1.4-2 2.2-2.2 2.7-0.9 1.8-0.4 1.1-0.4 0.6-0.5 0.4-1.7 0.9-0.5 0.7-3.1 5.7-0.4 0.8-0.1 0.7 0 0.4 0.3 1.4 0.1 0.7-0.1 0.7-0.3 0.8-1.5 4.1-0.4 0.7-0.4 0.5-3 2.5-2.1 2.6-0.6 0.8-0.3 0.7-0.1 0.4 0 0.4 0.1 1.2-0.1 0.5-0.3 1.1-0.6 1.1-1.3 1.7-1.5 1.7-0.8 0.6-0.8 0.4-0.8 0.3-2.5 0.3-0.3 0.1-0.4 0.1-0.8 0.5-9.7 7.9 0-0.4-1.4-0.8 0-2.6 1-5.2 0.1-4.1 0.3-1.3 0.6-1.1 1.1-1.6 0.4-1.1-0.1-1.4-0.9-2.2-0.3-1.2-0.4-0.6-2.3-2-0.9-0.5-0.7-0.5-3.2-3.2-2.1-1.3-0.8-1.1 0.3-1.4 1.6 0.5 0.7-1.4-0.2-1.8-1.4-0.9-0.9-1.2-0.5-2.4-0.7-1.8-1.1 0.7-0.1-0.4-0.2-0.3-0.1-0.3-0.8 0.3-0.4-0.5-0.2-0.9-0.3-0.7-2.1-2.3-0.5-1.1-1.5 0.5-1.5-0.1-0.9-0.8 0.1-1.5-1 0.8-1.2 0.4-2.2 0.3-0.7-0.1-1.3-0.4-0.8 0-0.2 0.1-0.4 0.4-0.5 0.3-2.2 0.5-1.3 0.7-1 1.1-0.7 1.2-1.1 2.4-0.4 0.4-0.6 0.2-0.7 0.6-0.6 0.8-0.4 0.6 1.7 0 4.9-0.8 0.7-0.3 0.7-0.5 0.9-1.2 0.4-0.3 0.3-0.1 0.3 0 0.3-0.2-0.1-0.4-0.1-0.5 0.1-0.3 1.3-0.5 1.9-0.3 1.6 0.1 0.8 0.5 0.2 0.7 0.7 0.4 0.8 0.2 0.7 0.3 0.6 0.6 0.9 1.5 0.7 0.7 0.9-0.7 1.1-0.3 1.2 0.2 1 0.8-2.1 1.9 2.5 1.6 0.8 1.1-0.8 1-0.9-0.1-1.1-0.7-1.8-1.5-4.7-2.2-3-0.7-2 0.6-1.7-0.4-2 0.5-2 0.8-1.7 0.4-5.5 0.1-4 1.1-4.9 0.8-2.7-0.1-1.4 0.1-2.1 1.1-1.5 0.4-2.1 1.2-2.6 0.5-3.2 1.6-1.2 0.2-1.4-0.1-8.7-2.5-1.3-0.2-1.3 0.3-1.4 0.6-1.4 0.4-1.1-0.3 0.3-0.3 0.5-1.1-2 0.1-1.7 0.3-1.4 0.6-1.3 0.8-2-1-1.7 0.6-1.3 1.6-1.4 2.5-0.5 0.5-0.6 0.3-0.9 0.2-0.7 0-1.6-0.4-1.7-0.2-1.9-0.6-1.1-0.2-3.8 0-3.7-0.7-1.9-0.1-1.7 0.8-1.4-0.6-1.9-0.2-3.9 0.3-1.6 0.7-1.4 1.1-1.1 1.4-0.6 1.5-0.3 1.8 0 0.8 0.3 0.7 0.7 0.4 1 0.3 0.8 0.4 0.1 0.8-0.5 0-2.9 0.9-0.9 0-1.6-0.5-0.9 0 1.7-2.6 0-1.2-1-1.5-1.1-0.7-1.7-0.6-1.8-0.4-1.1 0-0.8 0.6-0.9 1.5-0.7 0.3-0.8 0-1.2 0.3-0.5 0.1-1.3-0.4-2.2-2.1-1.3-0.8-2.7-0.6-2.6-0.3-0.6-0.1-0.8-0.9-0.5-0.4-3.7-0.1-5.5-1.2 0-0.9 0.5-1.3 0.2-1.2-0.3-0.3-0.6-0.4-0.5-0.5-0.3-0.9 0.3-0.7 0.6-0.3 0.8-0.1 0.7 0 1.4 0.3 0.6-0.2 0.3-1.1-0.3-0.3-0.6-0.1-0.8 0-2.8 0.7-1.6 0.1-0.7-0.6-3.4 1.7-0.8 0.9 0.9-0.3 0.4-0.2 0.4 1.2 0.5 0.3 0.6-0.3 0.8-1 0.9 0 0.7 1.2 1.1 2.3-0.7 1.3-0.5 0.1-1.1 0-2.3 0.4-1 0.1-1.1-0.5-1.6 0.7-2.3-0.4-6.3-2.3-4.1-0.8-4.2 0.2-4 0.6-2 0.6-1.1 0.6-1 0.8-1.7 1.9-0.9 1.8-0.7 0.4-0.9-0.3 0.3 1.1 0.4 0.9 1.9 2.3 0.3 0.2 0.1 0.2 0 0.4-0.2 0.5-0.2 0.5-0.3 0.3-0.4 0.1-2-0.4-3.5-1.6-2.1-0.3-4.3 0.5-1-0.2-2.9-1.2-4-1.2-2.2-0.2-1.9 0.4-3.8 2.1-1.4 0.3-5.3-0.5-10.6-2.3-10.2-0.3-4.7 0.1-3.1 0.4-0.8 1.4 0.2 1 1.3 0.6-1.2 0.5-1.6-0.5-1.8 0.5-1.8 1-1.2 0.9-0.7 0.7-0.7 0.9-0.4 1.1 0.2 1 0.8 0.8 1.3 0.3 0.8 0.5-0.4 0.9-2.5 0-3.1-0.1-2.1-0.6 1.5-1.2 0.3-0.3 0.4-0.3 0.5-0.3 0.6 0.1 0.4-0.2 0.2-0.8-0.9-1.7-0.4-1.2-1.4-1-1.3-0.8-1.7-0.2-2.1-0.4-2.9 0.1-2.6 0.9-1.4 0.6-0.7 1.3-0.6 1.1 0.9 0.7 0.3 1.6 0.6 0.6 0.6 0.8-1.4 0.4-2.4-0.1-2.9-0.4-3.7-0.1-3 0.5-0.6 1.3-0.3 0.6-0.5 0.5-0.6 2-0.8 0-1.2 0.8-1.5 0.6-2.2 0.3-1.6-0.6-0.6-1.1 0.4-1.4 0.6-0.7-0.4-1 0.2-0.5 1-0.9 0.7-0.8 0.2-0.4 0-0.9 0.2-0.7 0.8-1.2 0.3-0.7-0.1-1-0.2-0.2-0.4 0.2-0.4 0.1-0.2 0.2-0.5 0.5-0.4 0.2-0.3-0.1-0.8-0.6-0.3-0.2-0.8-0.1-0.3-0.3-0.4-0.3-0.5-0.3-0.7 0-2 0-1-0.2-0.6 0-0.7 0.2-1.5-0.1 2-5.6 0.3-5.8 0.5-6.8 0.6-9.8 0.2-1 0.4-0.7 0.9-0.9 0.4-0.5 0.1-2.4-0.6-2.7-0.3-2.5 1.3-1.8 1.3-0.3 1.1 0 1.1-0.2 1-1.2 0.3-1.2 1.4-10.4 0.6-4.3 0.5-3.7 0.6-4.2 0.5-2.1 0.9-1.9 1.5-1.1 7.4-2.1 2.2-1.5 1.2-0.6 1.2-0.4 2.6-0.4 0.5-0.7 0.3-1.7 1-1.7 2.3 0.3 2.8 1 2.3 0.3 1.3-0.7-0.1-1-0.6-1.2-0.3-1.6 0.4-0.9 2-1.9 0.6-1.2 0-0.4-0.3-0.4-0.2-0.4 0.2-0.6 0.3-0.5 0.6-0.4 1.2-0.5 0.5-0.3 0.8-0.5 0.5-0.3 0.6 0 1.3 0 0.6-0.1 0.4-0.4 0.5-0.9 0.4-0.3 0.6-0.2 10.3-1.1 1.3-0.4 0.5-0.4 0.5-0.6 0.5-0.3 0.7 0.1 0.7 0.4 0.5 0 1.9-0.4 0.5-0.2 0.5-0.3 0.4-0.3 0.6-1.2 0.5-0.6 0.7-0.2 4.2 0.1 10.4 0.3 2.4 0.4 2.4 0 1.8-0.4 0.6 0.1 0.5 0.2 0.5 0.3 0.4 0.3 0.7 0 1.3-1.3 0.7-2.8 0.5-10 0.4-1.1 1-0.5 2.6-0.4 0.9-0.9 0.2-1.3-0.5-1.1-0.8-1.1-0.6-1.3-0.3-7.8 0.1-0.8 0.3-0.7 0.6-0.9 0.3-0.7 0.6-1.2 1.2-0.5 1.4 0 1 0.4-2.1-4.6-0.8-1.3-0.7-0.8-0.6-0.3-1.5-0.6-0.7-0.4-1.6-1.5-0.7-0.2-0.7-0.1-3.3 1.1-0.8 0-1-0.1-1.7 0.1-3.2 1-1.6 0.3-3.6 0.7-1.7 0.1-1.9-0.5-1.5-0.8-0.5-0.1-0.4 0.1-0.8 0.4-0.5 0.1-0.9-0.5-2.7-2.4 1-0.1 0.6-0.5 0.3-0.7 0.3-1 0.1-1.1-0.3-0.8-1.2-1.5 3.3-7.3 0.3-2.9-0.3-3.6-0.6-6.4-0.3-3.5-0.9-9.8-1.6-6.7-1.1-4.8 1-7.9 0.9-7.2-0.3-2.5-1.4-0.8-10.1 2.1-1.2-0.8-3.9-4.2-0.9-1.6-0.4-1.2-0.4-0.7-0.7-0.4-1-0.3-1-0.6-0.6-0.8-0.6-1-0.7-0.8-1.7-0.9-8.1-1.7-5.1-2.3-2-0.4-4.1-0.4-1.9-0.5-2.9-1.7-3.7-1.1-1.1-0.6-2-2.3-3.9-3.6-2.5-3.3-6.4-5.8-1.8-2.2-1.8-3.9-1.7-2-0.3-1-0.2-1.2-0.3-1.4-2.7-6-0.5-0.7-0.7-0.6-0.8-0.3-0.5-0.4-0.1-0.4 0.2-0.4 1-1.1 0.2-0.6-0.2-0.6-0.6-0.5-1-0.5-0.5-1-0.3-1.2-0.7-1-0.6-0.4-0.6 0-0.6-0.2-0.6-0.8-0.3-0.8-0.2-1.7-0.2-0.8-0.8-1.2-1.9-2.2-0.6-1.5 0-1.3 0.7-2.5 0.1-1.4-0.5-1.8-1.1-0.8-1.3-0.5-1.2-1-5.1-6-4.8-5.8-4.6-5.6-4.1-4.8-3.2-3.9-5-5.9 1.9 0.9 4.4 1.4 15.4 5 10.3 3.3 5.1 1.7 5.1 1.7 5.2 1.6 5.1 1.7 10.2 3.3 5.2 1.6 5.1 1.7 5.1 1.7 5.2 1.6 5.1 1.7 5.8 1.8 6.4 1.3 9.5-0.9 9-0.9 3-0.3 3.1-0.3 9-0.8 6-0.6 3.1-0.3 6-0.6 18.5-1.7 13.5 2.6 11.3 2.2 7 3.1 1.7-0.7 2.3-4.4 1.4-1.9 2.1-1.1 16.7-5 12.7 0.2 8.4 0 10.2 1.9 3.1 0.1 8.9-2.6 3.6-1.1 7.1-2.1 7.2-2.1 7.1-2.1 10.8-3.1 3.5-1.1 3.6-1 3.6-1.1 3.6-1 3.5-1.1 8.9-2.6 4.9-3.5 1.6-2.2 1.3-2.2 0.3-0.2 0.6-0.2 0.2-0.3-0.5-0.7-1.9-1.4-2.5-2.6-2.2-1.5-0.4-1 0.2-1.1 0.9-2.7 4-8.1 0.2-1.4-0.1-4.3 1.1-9.5-0.1-1.4-0.4-1.5-0.4-0.9-1.5-1.9-1.1-2.9 0.2-3.1 6.1-23 0.5-1 1.1-0.6 8.3-1.7 1.4-0.6 5.8-6 1.2-1.7 2-8.1 1.5-1 2.4-0.4 1.6-1.2 1.4-1.6 1.9-1.6 4.1-2.1 2.3-0.7 3.6 0 0.9 0.4 0.5 1 0.1 1.7-0.1 0.5-0.4 0.5-0.2 0.4 0 0.6 0.5 0.4 0.8 0.2 1.4 0.3 1.2 0 2.4-0.6 1.2 0 1.3 0.3 2.2 1.3 1.3 0.4 1 0.2 3.2-0.2 3.9 0.4 1.2-0.3 4.2-1.8 3.7-0.5 2.3-1 3.3-0.6 1.1-0.4 3.9-2.5 0.8-0.8 0.9-0.6 1-0.3 2.5 0.1 0.9-0.5 0.6-1.3-0.2-3-2.3-0.8-5.1 0.7-1.2-0.3-1.2-0.8-0.9-1.1-0.4-2.8-0.8-1.2-0.9-1.1-0.4-1.1 0.8-1.3 1.9 0 4 0.9 1.9-0.2 1.9-0.8 3.3-2.4 3.8-4.3 1.7-0.8 0.9 0 1.8 0.3 2.5-0.2 0.7-0.3 0.7-1 1-0.9 3.3-1.8 0.3-0.5 0.2-1.5 0.3-0.7 2.1-1.8 0.6-1.3 1.3-3.1 0.8-0.9 1.3-0.1 1.6 0.5 1.3 0.8 1.6 1.3 0.6 0.9 0.8 0.8 1.4 0.2 2.4-0.1 2.4 0.2 6.5 2.3 2.3 0.4 1-0.4 1.4-0.8 0.8-0.9-0.6-0.6-1.2-0.2-3.7 0.1-1.3-0.2-1.1-0.5-0.2-0.7 1.2-1 2.7-1.4 1.4-0.5 1.4 0 2.1 0.8 3.5 2 3.5 0.7 0.8 0.4 0.4 0.9 0.2 2.9 0.4 1.1 1.6 1.9 2.9 4.1 1.6 1.1 2.4-0.2 4-2 2-0.7 2.3 0.1 1.6-0.7 2.3-1.6 1.9-1.7 0.8-1.3 0.9-0.6 0.9-1 6.8-10.5 1.6-1.8 3-2.2 0.1-0.3 1.7 0.1 0.4 0.7 0.9 0 1.2-0.3 9.2-0.7 1.1 0.2 2.1-0.5 1-0.8 1.1-1 1-1.1 1.6-2.3 1-0.9 2.8-1.1 0.6 0 4.6-1 1.8 0.2 0.2 0.3-0.1 1-0.6 1.5-0.4 0.9-0.1 0.5 0.1 0.5 0.6 0.8 0.7 0.6 0.8 0.6 1.2 0.7 0.2 0.2 0.2 0.3 0 0.3-0.1 0.7-0.2 0.6-1.2 2.2-0.2 0.3 0 0.3 0 0.4 0.1 0.4 0.2 0.5 0.4 0.6 0.4 0.4 0.3 0.3 0.4 0.2 0.3 0.1 0.2 0 0.3-0.1 0.7-0.3 0.5-0.5 0.6-0.8 0.8-1.6 0.2-0.2 0.3-0.1 0.2-0.1 0.3 0.1 0.2 0.3 0.1 0.3-0.4 3.8-0.4 1.3-0.2 1.6 0.1 4 0 1.1 0.2 4.9-0.2 1.6-0.3 4.6-0.1 0.9-0.5 1.7-0.1 0.7 0 0.5 0 0.5 0.2 0.7 0.3 0.3 0.4 0.3 2.1 0.9 0.6 0.1 0.4 0 0.6 0.3 0.9 1.8 1.1 7.7 0.1 0.8 0.1 0.4 0.2 0.4 0.5 0.3 0.3 0 0.1-0.1 0-0.3-0.1-1.3 0.1-0.6 0.2-0.7 0.1-0.5 0.3-0.3 0.6-0.6 0.1-0.2 0.1-0.7 0.3-0.8 0.2-0.6 0.1-0.2 0.3-0.1 0.3 0.2 0.5 0.5 0.3 0.1 0.3 0 0.6-0.6 0.2-0.2 0.5 0 1 0.2 0.5-0.1 0.3-0.2 0.3-0.3 0.4-0.6 0.4-0.7 0.3-0.6 0.5-0.2 0.5-0.1 0.3-0.2 0.7-1.2 0.3-0.4 0.4-0.5 0.3 0.1 0.3 0.3 0.2 0.4 0.2 0.7 0 0.8-0.1 1 0.2 1 0.2 0.6 0.7 1.1 0.2 0.3 0.1 0.4 0.1 0.5-0.1 0.8-0.7 3.1-0.1 0.7 0.1 4.9-0.9 6.1-0.1 2.9 0.1 1.7 0.5 2.4z" title="Baluchistan" data-confirmed="32,837" data-deaths="346" data-recovered="0" data-active="32,491" data-index="2"/><path d="M886.6 184.7l-0.7-0.5-2.2 0-4.1 0.9-5.7 0.3-21.7-4.4-15.6-5.7-3.9-0.7-3.9 0.3-3.9 1.6-4.6 3.5-1.6 0.8-9.8 1.7-0.8 0.4-1.8 1.5-0.2 1.7 0.5 2 0.1 2.1-1 1.5-2.9 2.1-1 1.7-0.1 2.8-0.3 0.9-0.5 0.6-1.6 0.9-0.6 0.5-1 1.6-0.3 1.9 0.4 1.8 1.4 1.5 1.5 0.9 1.5 0.6 1.6 0.2 1.7-0.2 1.9 0.2 1 1.3 1.4 3.7 0.8 1.4 0.5 1.6-0.2 1.5-1.1 1.1-3.7 2-1.4 1.5-0.6 2.3 0.6 2.2 1.4 2 1.8 1.3 1.9 0.4 4.2-1.1 1.2 0.1 3.3 1.2 2.2-0.2 2.4-0.5 2.2-0.1 1.9 1.4 0.8 2.4-0.6 2.4-1.4 2.1-1.7 1.7-2.1 1.5-2.2 1-6.6 1.2-1.5 1.3-2.1 3.8-0.4 0.9-0.3 1-0.2 0.9-0.1 2.2 0.1 1.1 0.4 1.1 0.5 1 2.9 2.6 3.9 2.1 3.3 2.7 1 4-1.3 5.7-1.9 5.3-0.6 1.3-0.6 1-0.8 0.9-1.1 0.8-2.3 0.9-1 0.7-0.6 1.3-0.2 3.2 0.9 2.3 1.6 1.7 2.3 1.6 2 2.1 3.4 4.7 2.3 1.3 5.7 1 1.7 1.1 0.7 1.6 0.1 3.7 0.8 3.8-0.2 1.5-0.7 1.4-0.4 0.5-20.5-10.7-0.4-0.5-1.3-2.2-0.3-0.4-0.5-0.5-1-0.6-1.2-0.2-2.1 0-0.8 0.2-0.6 0.2-1.3 0.6-0.4 0.2-1-0.2-2-1.1-0.6-1.1-2-1.2-3.6-1.7-2-1.3-1.1-1.6 1.4-1.4-0.1-0.8 0.4-0.5 0.2-0.9 0.1-0.8-0.4-0.8-0.5-0.4-1.2-0.8-0.2-0.4-0.1-0.5-0.1-0.6-0.3-0.1-0.5 0.2-0.4 0.2-0.5-0.1-0.2 0.1-0.2-0.1-0.1-0.7 0.2 0 0.5-0.2 0.4-0.2 0.2-0.2-0.1-1.4-0.2-1.5-0.1-1.3 0.4-1.3 0.2-0.9-0.3-0.7-0.7-0.9-0.7-1.1-0.1-1.3 0.5-0.9 0.7-0.9 0.6-2.2 0.6-0.4 0.6-0.1 0.3-0.2 0-0.8-0.1-0.5-0.2-0.6-0.5-2.4 0-0.7 0.2-0.5 0.4-0.2 0.4-0.2 0.2-0.7-0.1-1.2-0.5-1.4-0.6-1.3-0.7-0.9-1.7-1.5-0.2-0.6 0.4-1-0.2-0.5 0.1-0.7 1.1-2.3 0.3-1-0.1-1.4-0.2-1.4-0.4-1.2-0.8-1.1-0.5-2 0.9-5.4-0.2-2.5-3.7-7.2 0-0.1-0.6-4.4-1.2-4.6 0-1.2 0.1-2.6-0.1-1.3-1-5.3-0.9-1-0.2-0.7-0.5-1-2.5-3.7-0.4-1.5 0.9-1.7 0.3-0.9 0.4-1.5 0-0.4 0-2.3 0.1-0.3 0.1-0.2 0.3-0.7 0.2-0.4 0-0.3-0.1-1.9 0-0.4 0.1-0.3 0.3-0.5 0.1-0.3 0.1-0.2 0-0.7 0.1-0.7 0.2-0.3 0.2-0.3 0.6-0.3 1.9-0.3 0.6 0 1.3 0.3 0.5-0.1 2-1 0.5-0.1 0.6-0.1 0.6 0 0.4 0 0.3 0.2 0.3 0.7 0.2 0.5 0.3 0.4 0.3 0 0.4-0.4 0.6-1.2 1.3-3.6 0-0.4 0-0.4-0.1-0.4-0.5-0.7-0.1-0.3-0.1-0.4 0.1-0.3 0.1-0.4 1.9-2.8 0.3-0.6 0.5-1.6 0.4-0.9 0.5-0.5 0.6-0.6 1.3-1.1 0.7-0.3 0.4-0.2 1.2 0 0.4 0 0.3-0.2 0.5-0.2 1.2-0.9 0.2-0.1 1.3-0.3 2.7 0.3 0.3-0.2 1.2-0.9 0.5-0.2 0.4-0.4 0.4-0.5 0.5-0.7 0.6-0.7 0.4-0.3 0.5-0.2 1-0.1 0.7-0.2 1.4-0.5 0.3-0.4 0.4-0.5 0.4-1.3 0.2-0.7 0.5-0.6 0.7-0.5 0.2-0.3 0.3-0.6 0.2-0.7-0.1-1.1 0.1-0.7 0.1-0.6 0.6-0.7 0.6-0.6 0.7-0.5 0.2-0.3 0.1-0.3-0.3-0.5-0.3-0.4-0.3-0.3-0.7-0.3-0.4-0.4-0.2-0.5 0-0.3 0.1-0.4 0.5-1.2 0.3-0.5 0.5-0.5 0.6-0.6 1.6-0.5 3.2 0.1 5.7 0.8 5-0.5 3.7-1.3 3.3-0.9 1.5 0.2 2 1.1 1.7 1.9 1.6 2.6 2.4 5.6 1.3 2.3 1.6 1.7 8.5 5 4.2 1.8 3.7 1.1 2.9 0 1.9-0.3 1.4-0.5 2.5-0.5 1.2-0.6 2.2-2.1 1.1-0.3 1.2 0.6 2.9 3.1 1.5 2 1 2.4 0.4 2.5-0.2 2.4-1.5 3.6-0.2 0.8z" title="Azad Kashmir" data-confirmed="0" data-deaths="0" data-recovered="0" data-active="0" data-index="0"/><path d="M745.2 252.6l2.9-0.6 1.3-0.7 0.7-0.7 0.5-0.6 1-0.7 0.7-0.3 0.5-0.1 2.3-0.3 1.3-0.6 0.5-0.5 0.5-0.6 0.5 0.3 5 2.3 0.8 0.6 0.9 0.8 1.9 2.1 2.4 1.8 0.5 0.8 0 0.8-0.5 0.9-1.6 1.8-0.7 1-2.3 5.5-0.4 0.6-1.9 2-0.7 1-0.2 0.3-0.2 0.2-1.2 0.3-1.3-0.3-1.6-0.9-0.7-0.5-0.5-0.7 0.2-0.9 0.4-0.9 0.1-1.2-0.4-1.4-0.7-1.2-0.7-1-0.8-0.7-1.2-0.4-1 0.1-1.2 0.3-2.3 0.8-2.1 1.2-1 0.9-1.3 0.7-1.4 0.2-1.5-0.2-1.3-1.1-1-1.5-0.8-1.9 0.3-2 1.4-1.8 5.9-3z" title="F.C.T." data-confirmed="0" data-deaths="0" data-recovered="0" data-active="0" data-index="0"/><path d="M886.6 184.7l0.2-0.8 1.5-3.6 0.2-2.4-0.4-2.5-1-2.4-1.5-2-2.9-3.1-1.2-0.6-1.1 0.3-2.2 2.1-1.2 0.6-2.5 0.5-1.4 0.5-1.9 0.3-2.9 0-3.7-1.1-4.2-1.8-8.5-5-1.6-1.7-1.3-2.3-2.4-5.6-1.6-2.6-1.7-1.9-2-1.1-1.5-0.2-3.3 0.9-3.7 1.3-5 0.5-5.7-0.8-3.2-0.1 0-0.4-0.3-0.5-0.9-0.8-0.2-0.4 0-0.3 0.1-0.5-0.1-0.2-0.2-0.1-1.2 0-2.6-0.3-0.3-0.1-0.4-0.2-1.2-1.2-0.2-0.4-0.3-0.2-0.4-0.1-0.9 0-0.5 0.2-0.5 0.2-0.4-0.1-0.3-0.1-1.5-2-1.6-0.6-0.7-0.1-1.1 0.4-0.3 0-0.4-0.1-1.2-1.3-1.1-0.7-0.7-0.2-0.5-0.1-1.6 0-0.2 0-0.4 0.3-1.2 1.3-0.5 0.3-0.4 0-0.2-0.2-0.4-0.3-0.4-0.7 0-0.4 0-0.3 0.1-0.4 0.2-1.1 0-0.3-0.1-0.4-1.8-3.2-0.1-0.3 0-0.6 0.2-2.1-0.1-0.7 0.1-0.5 0.2-0.4 1.4-2.3 0.4-0.8 0-0.3 0.2-0.4 1-0.8 1.5-0.9 0.6-0.2 0.3-0.2 0.1-0.2 0.1-0.2-0.2-0.8-0.2-3.1-0.1-0.3-0.3-1.2-0.9-0.4-7.9-1.2-3.9 0.1-3.8 0.6-2.4-1.8-1.4-0.3-2 1-0.8-1.6-0.3-0.8-0.3-0.3-0.3-0.3-0.5-0.4-0.5-0.2-0.7-0.1-0.4 0-1.2 0.1-0.2 0-0.9-0.3-0.4-0.2-0.3-0.8-0.2-0.3-0.4-0.5-2.4-1.7-0.5-0.4-0.2-0.3-0.7-0.7-5.7-3.9-0.4-0.4-0.2-0.3-0.1-0.4-0.1-0.5 0-0.6 0.3-3.9 0.1-0.3 0.2-0.2 1.2-1.1 0.1-0.3 0.1-0.3-0.1-0.2-0.3-0.3-1.8-1.3-0.7-0.6-0.9-0.9-0.2-0.4-0.1-0.2-0.2 0-0.3 0.2-0.5 0.7-0.5 0.4-0.3 0.1-0.4 0.1-0.7 0-0.6 0-1-0.4-0.4-0.2-0.5-0.3-0.9-0.5-0.5-0.2-0.4-0.1-6.1 0.3-0.5 0.2-0.5 0.2-2.4 1.4-0.2 0.2-0.3 0.5-0.2 0.2-0.5 0.1-0.4 0-2.6-0.5-5.8-0.7-8.6-3.8 4.5-8.3 0-0.3 0-0.2-0.5-1.2-0.1-0.6-0.4-0.5-1.9-1.8-0.2-0.3-0.2-0.5-0.2-0.6-0.2-0.5 0-0.3 0.2-0.8 0.2-0.3 1.6-2.1 0.1-0.5-0.1-0.4-0.5-0.8-0.1-0.3 0-0.3 0.2-1.2 0.6-3.1 0.2-0.5 0.3-0.4 0.3-0.6 0.5-0.6 0.5-0.5 0.9-0.6 0.8-0.3 0.8-0.2 0.5 0 0.8 0.1 1.6 0.6 0.4 0 0.3-0.1 1.3-1.9 0.3-0.3 1.2-0.9 0.9-0.4 0.9-0.3 0.4-0.2 0.7-0.4 2.2-2.8 0.6-0.4 0.5-0.3 1.9-0.4 0.5-0.4 0.4-0.6 0.1-0.3 0.1-0.5-0.1-0.8 0-2 0.2-1 0.1-0.3 0.3-0.4 0.7-0.3 1.2-0.2 1.8 0 1.6-0.2 0.2-0.1 0.2-0.3 0.1-0.6-0.1-0.4-0.4-0.8-0.1-0.4 0-0.2 0.2-0.3 0.4-0.2 3.2-1.3 0.4-0.3 0.4-0.4 0.5-0.7 0.2-0.5 0.2-1 0.2-0.4 0.8-1.2 0.6-1.1 0-0.4-0.1-0.7-1-2.5-0.2-1-0.1-1.7-0.1-0.7 0.2-0.3 0.2-0.2 1.2-0.1 2.1-0.5 0.7-0.4 1.8-1.4 0.3-0.2 0.4 0.1 0.6 0.4 1 1 0.3 0.2 0.3 0.1 1.5-0.4 1.7-0.1 1 0.1 0.6 0 1.1-0.3 6.3-2.4 0.8 0.1 1.5 0.3 3.7 1.2 0.4 0 1.3-0.1 0.7 0 0.3 0.1 0.5 0.3 0.3 0 0.4-0.1 0.8-0.5 0.3 0 0.2 0.2 0.6 0.8 0.3 0.5 0.3 0.3 0.3 0.1 0.3 0.1 1.7-0.1 0.4 0.1 0.7 0.4 0.3 0 0.4-0.1 0.7-0.4 1.2-1.1 0.4-0.2 0.4 0.1 0.5 0.1 1.2 0.6 0.3 0.1 0.4-0.1 1.2-0.9 0.2 0 0.7 0 2 0.6 1.2 0.5 1.3 0.3 0.3-0.1 0.4-0.2 0.1-0.4 0-0.5-0.1-0.3 0-0.3 0.1-0.3 0.2-0.7 0.1-0.3-0.1-0.4-0.2-1.1-0.4-0.5-0.7-0.6-3.5-2.4-0.9-0.9-0.8-0.5-0.7-0.3-2.2-0.4-0.5-0.2-0.3-0.2-0.3-0.2-0.4-0.4-0.1-0.4-0.2-1 0.2-1.5 3.7 0.1 3.8 0.7 1.9 0.8 5.1 3.2 1.8 0.5 1.8 0.7 1.8 0 3.6-1.2 0.6-0.8 0.3-2.6 0.4-1.1 0.9-0.7 1-0.2 4.1 0.5 1.4-0.5 3-2.5 5.2-3.3 1.6-1.3 2.5-0.7 1.4-0.1 1.2 0.4 0.4 0.4 1.1 1.6 1.2 1.1 1-0.3 0.4-2.4 0.3-0.6 0.1-0.6-0.2-0.5-0.3-0.5 1.2-0.6 4-1 2.2-0.9 1 0.2 0.9 1.2 1.6 1.5 4.5 0.1 2 1.7 1.8 2.7 0.4 0.9 0.4 2.3 0.3 0.8 0.9-0.4 0.4-0.7 0.5-2.2 0.6-1 0.9-0.6 1.1-0.5 2.1-0.6 2.3 0 5.3-0.7 1.1 0.2 0.9 0.5 1.7 1.6 2.1 1.1 7.3 1.6 2.3 1 1.7 1.7 1 2.3 0.4 2.9 0.2 3.2 0.4 2.9 1.3 1.8 3.7 0.2 0.4-0.5 0.2-0.8 0.4-0.8 3.8-1.4 4.9 1 4.9 2.3 3.8 2.7 3.6 3.4 1.6 1.9 6.3 12 0.6 3.2-1.1 6.1 0 3 0.5 1.2 1.5 1.9 0.6 1 0.2 1.4-0.8 0.6-1.1 0.5-0.8 1-0.1 0.9 0.5 1.3 0 0.9-0.4 0.6-0.4 0.3-3.1 2-0.8 0.8-0.4 1.2 0.3 2.6 1.4 2.5 1.9 1.8 1.9 0.9 4.8 0.3 1.7 1 1.6 2.8 0.5 2.9 0.3 3.2 0.6 2.7 1.7 1.5 1.5 0.1 2.9-0.8 1.4-0.2 1.3 0.3 1 0.4 0.9 0 2.3-1.7 1.1 0 1.1 0.2 1.1-0.2 0.5-0.4 0.7-1.3 0.6-0.5 0.7-0.2 0.7-0.1 1.3-0.1 1.5-0.4 2.3-2.4 1.1 0.3 0.6 2.5-0.9 6.2 1.2 2.5 2.1 1.2 4.5 1.6 2 1.5 1.4 2.1 0.8 0.9 1.1 0.6 0.9 0.1 8.3 20.2 8.4 20.3-0.4 0.2-1.2 1.6 0.3 1.8 0.5 2.1-0.5 2.3-0.9 1.3-3.7 3-1.2 1.3-0.8 0.6-0.9-0.1-1.6-1.1-1.7-0.5-2.2 0.2-2.1 0.8-1.5 1.2-0.5 1.7 0.2 4-0.6 1.5-5.6 5.4-0.8 0.4-5.3 1.2-1.1-0.1-1-0.3-2.7-2-2.3-0.4-2.4 0.9-8.5 5-6.6 1.7-2 0-3.9-1.7-2.2 0.5-0.9 0.9-1.3 2.2-0.8 1-0.5 0.3-1.6 0.5-4.1 3-3.5 3.8-1.3 1-1.1 0.3-2.6-0.4-1.3 0-3.6 0.9-2.7-0.1-16.3-4.4-2.5-1.3-2.4-1.8-1-1.1-0.9-1.4-0.8-0.5z" title="Northern Areas" data-confirmed="0" data-deaths="0" data-recovered="0" data-active="0" data-index="0"/><path d="M589.5 433.8l0.5 3.2-0.3 0.8-0.3 0.1-2.6 0.2-0.4 0-0.6 0.2-1.4 0.7-1.1 0.3-2.2 1.2-0.3 0.3-0.1 0.4 0 0.3 0.1 1.2 0.4 1.4 0.1 0.6 0 0.5-0.1 0.3-0.5 1.1-0.3 0.3-0.4-0.1-0.2-0.1-0.2-0.3-0.5-2.4-0.1-1.7 0.1-2.9 0.9-6.1-0.1-4.9 0.1-0.7 0.7-3.1 0.1-0.8-0.1-0.5-0.1-0.4-0.2-0.3-0.7-1.1-0.2-0.6-0.2-1 0.1-1 0-0.8-0.2-0.7-0.2-0.4-0.3-0.3-0.3-0.1-0.4 0.5-0.3 0.4-0.7 1.2-0.3 0.2-0.5 0.1-0.5 0.2-0.3 0.6-0.4 0.7-0.4 0.6-0.3 0.3-0.3 0.2-0.5 0.1-1-0.2-0.5 0-0.2 0.2-0.6 0.6-0.3 0-0.3-0.1-0.5-0.5-0.3-0.2-0.3 0.1-0.1 0.2-0.2 0.6-0.3 0.8-0.1 0.7-0.1 0.2-0.6 0.6-0.3 0.3-0.1 0.5-0.2 0.7-0.1 0.6 0.1 1.3 0 0.3-0.1 0.1-0.3 0-0.5-0.3-0.2-0.4-0.1-0.4-0.1-0.8-1.1-7.7-0.9-1.8-0.6-0.3-0.4 0-0.6-0.1-2.1-0.9-0.4-0.3-0.3-0.3-0.2-0.7 0-0.5 0-0.5 0.1-0.7 0.5-1.7 0.1-0.9 0.3-4.6 0.2-1.6-0.2-4.9 0-1.1-0.1-4 0.2-1.6 0.4-1.3 0.4-3.8-0.1-0.3-0.2-0.3-0.3-0.1-0.2 0.1-0.3 0.1-0.2 0.2-0.8 1.6-0.6 0.8-0.5 0.5-0.7 0.3-0.3 0.1-0.2 0-0.3-0.1-0.4-0.2-0.3-0.3-0.4-0.4-0.4-0.6-0.2-0.5-0.1-0.4 0-0.4 0-0.3 0.2-0.3 1.2-2.2 0.2-0.6 0.1-0.7 0-0.3-0.2-0.3-0.2-0.2-1.2-0.7-0.8-0.6-0.7-0.6-0.6-0.8-0.1-0.5 0.1-0.5 0.4-0.9 0.6-1.5 0.1-1-0.2-0.3-1.8-0.2-4.6 1-0.6 0-2.8 1.1-1 0.9-1.6 2.3-1 1.1-1.1 1-1 0.8-2.1 0.5-1.1-0.2-9.2 0.7-1.2 0.3-0.9 0-0.4-0.7-1.7-0.1 0.3-0.4-0.2-1-1.9-5.5-1.3-6.9 0.1-1.5 0.5-3.1 0-3.1 0.4-3.1 0.1-1.6-0.2-1.5-1.6-4.1-0.7-3.2 0.3-3 1.2-2.7 1.8-2.4 1.3-0.8 2.5-0.9 1.1-0.9 3.3-4.9 0.7-1.4 0.2-0.9-0.6-2.5-0.1-1.3-0.2-0.5-0.4-0.3-0.5-0.2-0.6-0.4-0.4-0.5-0.3-0.6-0.1-1.4 0.6-1 2.1-1.6 1.5-2.1 1.6-1.2 0.4-0.3 0.6-2.2-1.2-7.9 1.2-2.5 1.7-2.1 2-1.4 2.5-0.3 1.3 0 1.9-0.3 0.6 0.1 0.6 0.3 0.5 0.1 1.1-0.3 2.9-2.1 2.4-0.4 4.1 2.1 2.6-0.2 4.7-2.8 0.6-0.2 1.7 0.2 0.8-0.3 0.5-0.7 2-3.9 0.8-0.3 1.4 0.5 1.4 0.1 1.2-0.7 10.4-8.8 0.4-2.4-0.9-2.3-3.3-3.7-0.3-0.6-0.5-1.1-0.4-0.4-1.7-0.6-0.5-0.3-0.8-1.1-0.6-1.4-0.2-1.4 0.1-1.4 1.3-4.7 0-1.8-0.2-0.4-0.5-0.4-1-0.5-0.6-0.4-0.3-0.4-0.3-1.2-0.6-2.9-0.6-0.8-2.6 0.5-3.3-1.5-2.4-0.3-0.9-0.6-0.7-1.4-0.4-1.5-0.6-1.1-1.4-2.1-0.6-1.2-0.8-2.8-0.5-1-1.8-1.8-0.4-1.1 0.8-1.1 1.1-1.1 0.1-1.1-0.2-1.1 0.1-1.2 1.1-1.1 1.6-0.5 3.3-0.5 2 0.1 13.3 4.7 3.5 0.3 2.2 1.1 1.1 0.3 5 0.2 5 1.1 1.9 0.1 8.3-1.2 8.3 0.1 4.4-0.8 1.1-2.2 0.2-1 0.6-0.1 1.7 0.5 1.1 0.1 0.9-0.3 0.7-0.7 0.8-1 1.2-0.4 3-0.7 1-0.9 0.3-1.4-0.2-1.2-0.1-1.2 0.7-1.5 1.7-1.9 0.4-1 0.1-1.8-0.2-1.5-0.6-2.6 0-1.4 1.8-5.2-0.2-1.8-4.4-2.5-1.9-1.8-1.8-2.2-1.2-1.9-0.6-1.4-0.4-1.7 0.1-1.6 0.7-1.3 1.1-0.5 1.3 0 2.5 0.4 1.1-0.6 0.7-1.5 0.2-1.8-0.2-1.6-0.5-1.6 0.1-1.2 0.6-0.9 4.4-3.5 2.3-1.3 0.9-0.8 3.2-4.7 0.9-2.5 1.2-2.3 2.2-1.7 7.4-3 0.1 0.2 0.9 1.5 2.1 2.7 0.2 0.1 1.2 0.7 1.3 0.2 0.7 0.3 0.5 0.1 0.2 0.3 0.1 0.7 0.2 0.5 0.2 0.4 0 0.5 0.2 0.5 0.2 0.4 0.2 0.6 0 0.4-0.1 0.6 0.2 0.2 1.1 1 0.8 0.4 0.4 0.1 0.5 0 2.6-1.5 1-0.4 0.3 0 0.4-0.1 2.2 0.4 0.4 0.1 0.4 0.2 0.8 0.3 0.4 0 0.6-0.1 0.2 0.2 0.3 0.2 0.3 0.8 0.3 0.4 0.3 0.5 0 0.2-0.3 0.2-0.4 0.1-0.2 0.2-0.6 0.9-0.2 0.2-0.2 0.1-0.4 0-0.2 0.2-0.1 0.1 0.1 0.5 0.2 0.4 0.1 0.5 0.1 0.6 0 0.9-0.4 2.3-1.3 1-0.4-0.1-0.3-0.2-0.2 0-0.6 0.5-1 1.1-0.3 0.3-0.2 0-0.3 0.3-0.2 0-0.2 0.4-0.2 0.6-0.5 2.3-0.1 0.5 0.1 0.8-0.3 0.3-1.2 1.4 0.9 2.9-0.1 0.4 0.3 0.7 0 0.5 0 0.4 0 0.5 0.3 0.1 0.4 0.1 0.4 0 0.2-0.1 0.3 0.3 0.5 1.6-0.5 0.2-0.6 0.5-0.5 0.1-0.6 0.7-0.1 0.8-0.2 0.3 0.1 0.3 0.2 0.4-0.3 0.2-0.4 0.3-0.4 0.2-0.4-0.1-0.5 0.2-0.1 0.2-0.1 0.7 0 0.3 0.1 0.6 0 0.2-0.2 0.2-0.4-0.1-0.2-0.1-0.3-0.4-0.3-0.2-0.3 0-0.3-0.2-0.2 0.1-0.8 0.9-0.5 0.4-0.4 0.3-0.1 0.3 0.1 0.5-0.3 0.4-1.2 1-0.1 0.1 0 0.3 0.2 0.6-0.3 1.3 0 0.2 0.3 0.2 0.1 0.3-0.2 0.8-0.3 0.2-1.7 1.5-0.6 1.1-2 1.6-0.3 0.2-0.2 0.2-1.1 0.7-0.3 0.3 0 0.1-0.3 0.4-4.7 1.3-0.3 0.3-0.1 0.3 0.1 0.5 0 0.3-0.2 0.4 0.1 0.2 0.3 0.2 0.4 0.2 0.5 0.1 0.1 0.1 0.5 0.4 0.3 0.2 0.2 0.5 0 0.7 0 0.4 0 0.2-0.3 0.2-0.4 0.4-0.1 0.5 0.1 0.1 0.7 1 0.1 0.3 0.3 1.5 0.1 0.8-0.2 0.4-0.3 0.7-0.1 0.3 0 0.8-0.1 0.7 0.1 0.3 0.1 0.6 0.5 1 0.4 0.4 0.5 0.4 0.5 0.5 0.4 0.7 0.5 0.9 0.3 1.7 0 0.4-0.1 1.5 0 0.5 0.1 0.2 0.2 0.3 0.8 0.8 2.3 1.7 0.6 0.6 0.4 0.5 0.1 0.4 0 0.4-0.1 1.2 0 0.6 0.1 0.4 0.5 2 0.4 0.8 0.1 0.3 0.2 0.1 0.7 0.2 0.7 0 0.5 0 2.9-0.5 3.5-1.8 1.9-1.4 0.8-0.8 1.3-2.3 0.3-0.8 0.3-0.6 0.2-0.1 0.2-0.1 0.3 0.2 0.3 0.4 0.5 1.6 0.3 0.6 0.3 0.4 0.7 0.6 0.5 0.2 0.4 0.2 2.1 0.4 1.6 0 0.2 0.1 0.2 0.2 0.2 0.7-0.2 0.6-0.2 0.5-1.9 2.7-0.3 0.6-0.4 0.6-1.3 1.5-0.2 0.6 0.1 0.4 0.2 0.1 2.1 1.5 0.7 0.5 0.2 0.4-0.1 0.5-0.2 0.2-0.5 0.4-0.6 0.2-2.1 0.8-0.7 0.3-0.8 0.7-3.6 2.1-1.6 0.8-1.3 0.2-2.6-0.4-1.4-0.5-0.6-0.3-0.4-0.3-0.4-0.5-0.1-0.2 0.1-0.3 0.2-0.3 0.3-0.2 0.7-0.4 2.1-0.7 0.6-0.3 0.6-0.4 0.3-0.2 0.1-0.3 0.1-0.2 0-0.7-0.3-0.5-0.4-0.4-0.3-0.1-0.4 0-0.7 0.2-0.6 0.2-7.9-0.5-0.9-0.2-0.3 0-0.5 0-1.3 0.4-2.6 0.1-0.7 0.2-0.5 0.3-0.4 0.5-0.4 0.1-0.4 0-0.7-0.4-0.4-0.3-0.5-0.5-1-0.7-3-1.5-1.4-1-1-1.1-0.2-0.2-0.3-0.8-0.1-0.3-0.3-0.2-0.3-0.1-0.3 0-0.4 0-0.2-0.1-1-0.7-0.4-0.2-1.1-0.4-0.3 0-0.3 0.1-0.1 0.4 0 3 0.1 0.4 0.8 2.1 0.1 0.9-2.3 0.8-0.7 0.5-0.3 0.2-0.3 0.4-0.2 0.4 0.1 0.5 0.2 0.1 0.8 0.4 0.2 0.2 0.1 0.3-0.1 0.2-0.3 0.1-2.4 0.6-0.7 0.3-0.5 0.3-0.6 0.5-0.6 0.5-1.3 0.6-0.5 0.1-9.9-1-1-0.4-2-1.3-1.1 0.1-0.4 0.3-0.3 0.4-0.9 2.1-0.2 1.1-0.1 0.3 0 0.5 0.2 0.7 0 0.6 0 0.4-0.2 0.4-0.2 0.2-0.5 0.1-0.6 0.1-1.8 0.7-1.1 0.1-1.3 0.1-0.5 0.1-0.5 0.4-1.7 2.1-0.6 0.4-0.4 0.2-0.6 0.1-0.9-0.1-0.7 0.1-0.7 0.1-0.9 0.1-1 0.3-0.3 0.1-0.8 0.6-0.3 0.5-0.2 0.8 0 0.3 0.1 0.3 0.3 0.4 0.8 0.7 2 1.2 0.7 0.3 0.4 0.7 0.6 2.7 1.5 2.2 0.9 0.4 0.5 0.2 0.5 0.1 0.7 0 0.4 0 1.9 0.8 0.4 0.1 0.7 0 0.4 0.1 0.3 0.1 0.1 0.2-0.3 1.2 0 0.4 0.3 0.3 0.6 0.2 2 0.2 1.4 0 0.2 0 0.8 0.3 0.2 0 0.6 0 0.4 0 0.3 0.1 0.8 0.3 1.3 0.3 1.5 0.6 0.3 0.1 0.2 0.3 0.2 0.4 0.1 0.3-0.1 0.4-0.9 1.5-4 4.5-1.4 0.3-0.5 0.2-0.5 0.4-0.9 1.2-0.5 0.5-0.8 0.4-0.6 0.2-1.4 0.2-1.2 0.5-1 0.2-0.3 0.1-0.7 0.1-0.8 0-1.3-0.2-0.5 0.1-0.7-0.1-1.5-0.5-0.3 0.1-0.4 0.1-0.9 0.7-0.8 0.8-0.5 0.3-0.5 0.3-0.2 0.2-1.4 4.8-0.4 0.8-1.7 2.4-1.8 3.6-0.6 0.8-0.4 0.5-0.5 0-0.2 0.1-0.2 0.5-0.1 0.4 0 3.5 0.2 2.1-0.1 0.5 0 0.5-0.3 1.1 0.1 0.2 0.1 0.1 0.6 0.1 0.3 0.1 1 1.6 10.5 13.3 0.5 1.4 0.2 0.8-0.1 0.3-0.3 0.3-0.6 0.4-0.5 0-0.3 0-4.1-2.4-0.5-0.2-0.7 0-0.4 0.1-0.3 0.1-0.3 0.5-0.4 0.9-0.6 1.6-0.3 1.1-0.3 0.8-0.4 0.7-1.3 1.6-2 1.8-0.3 0.3-1.3 2.1-0.3 0.4-1.6 1.4-1.3 0.9-0.7 0.3-0.5 0.1-0.6 0-0.7-0.3-0.3 0-1.9 0.2-0.4 0.1-0.4 0.2-0.3 0.3-0.4 0.4-0.6 1.5-0.8 1.1-0.4 0.6-0.3 0.3-2.4 1.5-1.5 1.3-0.6 0.7-0.8 1-0.1 0.6-0.2 1.1 0 0.4 0.2 0.4 1.7 2.6 0.9 2.5 0.6 2.7 0.6 1.3 2.4 2.1 2.4 7.8 0.1 0.8 0.1 1.9 0 0.6-0.2 1.1-0.2 0.9 0 0.3 0.6 4.1 0.1 0.5 1 1.6 10.1 34.4z" title="F.A.T.A." data-confirmed="0" data-deaths="0" data-recovered="0" data-active="0" data-index="0"/><path d="M745.2 252.6l-5.9 3-1.4 1.8-0.3 2 0.8 1.9 1 1.5 1.3 1.1 1.5 0.2 1.4-0.2 1.3-0.7 1-0.9 2.1-1.2 2.3-0.8 1.2-0.3 1-0.1 1.2 0.4 0.8 0.7 0.7 1 0.7 1.2 0.4 1.4-0.1 1.2-0.4 0.9-0.2 0.9 0.5 0.7 0.7 0.5 1.6 0.9 1.3 0.3 1.2-0.3 0.2-0.2 0.2-0.3 0.7-1 1.9-2 0.4-0.6 2.3-5.5 0.7-1 1.6-1.8 0.5-0.9 0-0.8-0.5-0.8-2.4-1.8-1.9-2.1-0.9-0.8-0.8-0.6-5-2.3-0.5-0.3 1.2-0.5 2.9 0.2 1.5-1 1.5-1.3 1.9-0.8 1-0.7 1.4-0.6 0.3-0.3 0.2-0.3 0.2-0.6 0.2-0.6 0.3-0.6 1.9-2.6 0-0.3 0-0.2-0.2-0.3-0.1-0.4 0.1-0.7 0.4-0.4 0.3-0.2 0.4-0.1 0.4 0 0.3 0.1 0.7 0.4 0.3 0.1 0.3 0 0.5-0.1 0.5-0.2 0.2-0.4 1.2-1.9 0.3-0.3 0.4-0.3 0.4 0 1.1-0.6 0.5-0.4 0.4 0 0.4 0.2 0.3 0.3 0.6 0.3 3.7 7.2 0.2 2.5-0.9 5.4 0.5 2 0.8 1.1 0.4 1.2 0.2 1.4 0.1 1.4-0.3 1-1.1 2.3-0.1 0.7 0.2 0.5-0.4 1 0.2 0.6 1.7 1.5 0.7 0.9 0.6 1.3 0.5 1.4 0.1 1.2-0.2 0.7-0.4 0.2-0.4 0.2-0.2 0.5 0 0.7 0.5 2.4 0.2 0.6 0.1 0.5 0 0.8-0.3 0.2-0.6 0.1-0.6 0.4-0.6 2.2-0.7 0.9-0.5 0.9 0.1 1.3 0.7 1.1 0.7 0.9 0.3 0.7-0.2 0.9-0.4 1.3 0.1 1.3 0.2 1.5 0.1 1.4-0.2 0.2-0.4 0.2-0.5 0.2-0.2 0 0.1 0.7 0.2 0.1 0.2-0.1 0.5 0.1 0.4-0.2 0.5-0.2 0.3 0.1 0.1 0.6 0.1 0.5 0.2 0.4 1.2 0.8 0.5 0.4 0.4 0.8-0.1 0.8-0.2 0.9-0.4 0.5 0.1 0.8-1.4 1.4 1.1 1.6 2 1.3 3.6 1.7 2 1.2 0.6 1.1 2 1.1 1 0.2 0.4-0.2 1.3-0.6 0.6-0.2 0.8-0.2 2.1 0 1.2 0.2 1 0.6 0.5 0.5 0.3 0.4 1.3 2.2 0.4 0.5 20.5 10.7-0.6 1 0.6 1.4 0.8 1.1 1 0.7 1.4 0.2 1.1-0.3 2-1.2 1.2-0.1 1.1 0.5 1.8 1.8 1 0.6 1.2 0 3.3-0.5 1.2-0.4 1.2-0.9 0.5-1.1 0.3-1.3 0.6-1.4 1.1-1.1 1.1-0.2 0.8 0.6 0.3 1.7-0.5 1.6-1.5 3-0.5 1.7 0.1 1.6 0.4 3-0.1 1.4-0.5 1.3-0.7 1.2-0.4 1.4 0.2 1.4 1.8 5.1 1.7 2 2.2 0.8 2.3-0.2 2.3-0.7 2.3-0.2 4.3 2.2 2.5-0.3 2.6-1 2.1-0.2 1.9 0.7 2.3 2 2.1 1.2 4.3 1.1 2.1 1.2 5.9 5 1.6 2 0.4 1.7-0.6 1.4-2 2.3-0.5 1.2-0.8 3.3-2-0.1-0.8 0.1-1.4 0.5-1.9 1-1.4 1.4 0 1.6-0.8-0.1-1.4-0.4-0.5 0.3-0.7 0.6-0.5 0.3-0.5 0-3.8-1.5-1.1 0.2 0.5 2.1-0.6 0-1.6-0.1-0.5 0.3-0.5 0.7-0.3 0.7-0.4 0.5-0.7 0.4-1.5 0.2-1.4-0.2-1.2 0.2-1 1.3-2.7-1-1.1 1.6-0.6 2.5-1.1 1.9-1.3 0.3-4-0.9-1.7 3.4-0.8 0.6-1 0.4-4.6 3.6-1 1-0.6 1.2-0.2 1.6 0 0.9-0.1 0.3-0.3 0.3-0.5 0.7-0.1 0.3-0.2 0.9-0.1 0.3-0.2 0.2-0.4 0.2-0.2 0.1-0.6 1.1-0.2 0.3 0.6 0.8 3.4 6.3 1.8 6.9 1.9 2.9 0.1 1.3-0.3 1.4-0.7 1.1-1 1.3-0.8 1.3-2.4 6.2-0.4 1.6 0 3.3-1 2.8-0.2 1.5 0.2 1.4 0.3 1 0.6 0.9 0.8 1 1 0.5 2.7-0.5 1.2 0 0.9 0.6 1.2 1 0.5 0.7-3.6 1.9-1.3 1-0.9 1.3 0 1.5-1 0.9-0.8 1.1-1 1-1.2 0.4-1.4 0.1-1.1 0.2-1.1 0.5-1 1-0.7 1.2-0.3 1-0.5 0.6-1.3-0.1-1.6-0.5-0.7 0-0.8 0.1-0.6 0.5-0.5 0.6-0.5 0.8 0.5 1.3-0.7 1.2-1.2 1-1.3 0.4-0.2 0.3 0.6 1.4 0 0.5-0.4 0.5-0.9 0.7-0.6 0.5-1.2 2-1 0.9-0.5 0.5-0.4 1.5-0.9 0.7-0.2 0.5-0.2 1.1-0.5 0.3-1.4 0.3-1.3 0.7-1 0.6-0.8 0.9-0.9 1.1-0.7 1.3 0.1 1.2 0.2 1.4-0.2 1.7-0.9 0.9-2.4 0.7-0.5 0.6-0.4 0.9-3.1 4.5-0.6 0.4-0.8 0.2-1-0.4 0.1 0.5 0.1 1 0.1 0.5-1.1-0.1-1.2 0.6-1 1.1-0.4 1.1-0.2 0.3 3 1.6 1.3 1.9 1.4 3 0.9 3.2-0.3 2-10.2 8.6-2.4 1.4-11.2 2.5-10.6 5-1 1.1-2.6 8.7-2.6 8.6-3.2 10.4-3.4 6.6-3 5.9-4.8 9.3-3.9 5.2-1.5 2.7-2.1 4.9-0.7 1-1 0.7-8 4.2-15.2 8-8.8 4.6-1.7 1.2-4.6 5.7-1.5 2.9-3.6 14.1-1.2 3.3-1.7 3-2.4 2.6-7.6 6.2-4.9 6.5-0.7 1.4-0.3 1.3-0.7 8.5-0.4 1.1-0.8 0.6-9.8 3.1-8.7 2.6-5.2 0.5-4.8-0.4-5.4 0.4-5.2 1.2-4.7 1.6-7.5 3.7-7.1 3.5-5 1.2-4.3-0.6-3.2-2.2-2.4-3.5-1.9-4.4-0.2-1.4 0.3-2.5-0.5-1.5-0.8-0.8-1.7-1.5-2.1-2.3-1.5-1.2-1.7-1-1.8-0.5-1.3-0.2-1.2 0.3-2.4 1-2.4 0.3-1.1 0.4-1.1 0.7-3.4 3.9-4.3 3.1-0.6 0.6-7.1-3.3-3.8-2.4-1-0.8-1.1-1.2-3.9-5.7-0.9-1.9-3.8-11.5-0.2-1.3-0.2-0.5-0.3-0.6-0.5-0.8-0.3-0.5-0.1-0.6 0-2.3-0.1-0.5-0.2-0.6-0.5-0.7-0.8-0.6-0.5-0.2-0.5-0.2-0.9-0.9-1.4-3-1.7-0.5-5.9-0.8-0.3-0.1-0.2-0.2-0.1-0.3 0-0.5-0.2-0.6-0.2-0.3-0.2-0.2-0.4-0.2-1.6-0.4-1.6-0.3-1.6 0-0.8 0.1-6.6 2.8-3.2-5-0.1-0.4 0-0.4 0.1-0.5 0.2-0.5 0.3-0.5 0.3-0.3 0.4-0.2 2.3-0.9 1.1-0.5 0.4-0.4 0.5-0.4 1.6-2.1 1.4-2.4 3.4-8 0.3-1.3-0.1-0.4-0.2-0.4-0.2-0.2-0.6-0.6-0.4-0.5-0.3-0.6 0-0.5 0.1-0.9 0.3-1.8 0.4-1.2 0.3-0.8 0.3-0.4 0.3-0.2 1.7-1.3 0.8-0.8 1.4-1.6 3-5 0.8-0.8 0.4-0.4 0.5-0.4 0.8-0.4 0.4-0.3 0.4-0.5 0.8-1.4 2.1-10.6 0.1-1.2 0-0.8-0.3-0.2-0.2-0.1-0.6 0.1-0.5 0.3-0.5 0.4-0.3 0.4-0.2 0.2-0.3 0.1-0.2 0-0.2-0.1-0.2-0.2-1.3-2-0.1-0.5 0-0.8 0.2-1.8 0-1 0-0.7-0.2-0.4-0.3-0.5-0.4-0.4-0.5-0.3-0.3-0.2-0.7-0.2-2.6-0.3-0.6-0.2-0.2-0.3-0.2-0.4 0-0.8 1.8-8.7-0.2-2.4 0.1-2 0.2-1 0.2-0.8 0.8-1.2 0.3-0.4 0.5-0.4 1.1-0.5 1.1-0.4 3.8-0.7 1.3-1.1 1.9-3.2 0.4-0.4 1.5-1 1.1-0.9 0.6-0.7 0.6-1.1 2.9-7.5 3.3-6.8 0.8-2.6 0-1.7 0.1-0.8 0.3-1.3 0.3-0.8 0.3-0.6 0.9-0.9 0.7-0.6 0.4-0.6 1.6-3.1 0.3-1.4 0.1-0.9-0.2-0.3-0.3-0.2-0.4-0.1-0.7-0.2-0.6 0-0.5 0.1-0.4 0.3-0.5 0.4-0.2 0.2-0.6 1.1-0.2 0.2-0.2 0-0.2 0-0.2-0.2-0.1-0.5 0-0.5 0-1.5-0.1-0.3-0.1-0.3-0.3-0.2-0.6-0.2-0.3-0.2-0.3-0.4 0-0.5 0.3-0.6 0.4-1 1.1-4.4 0.6-3.8 0.7-2 5.3-9.1 0.3-0.8 0.2-0.7-0.1-0.4-0.1-0.4-0.7-1.1-0.1-0.3 0-0.6 0.1-1 0.4-1.9 0.5-1.1 0.4-0.6 0.4-0.1 1.5-0.1 0.3-0.1 0.2-0.2 5.1-6.9 0.4-0.2 1.1-0.1 0.4-0.2 0.3-0.4 0.1-0.7-0.1-1-0.7-2.1 0.8-14.2 0.2 0.3 0.2 0.1 0.4 0.1 0.3-0.3 0.5-1.1 0.1-0.3 0-0.5-0.1-0.6-0.4-1.4-0.1-1.2 0-0.3 0.1-0.4 0.3-0.3 2.2-1.2 1.1-0.3 1.4-0.7 0.6-0.2 0.4 0 2.6-0.2 0.3-0.1 0.3-0.8-0.5-3.2 1.1 0.2 0.6-0.4 0.2-0.5 0.2-0.4 0.2-0.5 0.3-0.6 0.7-0.9 0.5-0.4 0.5-0.2 1 0.2 0.5 0 0.9-0.1 0.5-0.2 0.5-0.3 1.5-1.2 0.6-0.3 0.7 0 1.1 0.3 2.1 1 0.6 0.2 0.9 0.1 0.6-0.1 2.7-1.2 0.9-0.2 0.5 0 0.4 0 0.3 0.2 0.3 0.2 0.7 0.8 0.5 0.3 1.2 0.6 0.9-1.8 1.4-1.5 0.2-0.5 0.1-0.4 0-0.3-0.3-0.6 0.6-2.2 0.4-0.6 1-0.3 0.8-0.4 0.4-0.4 0.2-0.4 0.2-0.9 0.1-1.7 0-0.5-0.6-1.6 0.1-0.5 0.3-0.4 0.5-0.2 0.3-0.2 0-0.3-0.2-0.4-0.8-0.9-0.3-0.5-0.6-1.1 3-8.1 0.1-0.7 0-0.4-0.3-1.2 0-1 0.4-0.9 1.1-1.6 2.6-5.4 0.5-1.5 0.5-2.9 0.6-1.4 0.9-1.1 1-0.9 0.8-1 1.1-3.1 1-1.2 2.3-2.3 0.3-0.6 0.1-0.6 0-1.4 0.2-1.1 0.4-0.9 0.5-0.9 2.2-2.5 0.6-0.5 1.8-0.9 0.6-0.4 0.8-1.2 0.4-1.5 0.7-3 0.3-0.8 1.2-2.1 0.3-0.7 0.1-0.7 0-1.4 0.3-1.3 0.7-1.2 2.3-3.2 0.5-1.1 0.4-1.3 0.2-5-0.4-0.9-0.2-0.1-0.1-0.3 0-0.5-0.1-0.4-0.2-0.2-0.5-0.2-0.5-0.1-0.3 0.1-0.2 0.2-0.4 0.9-0.5 0.3-0.3 0.1-0.2 0.2-0.2 0.2-0.2 0.5-0.2 0.3-0.2 0.4-0.3 0.1-0.3 0-0.2-0.2-0.4-0.4-0.3-0.7-0.2-1 0.9-3.1 0.1-1.3-0.2-0.4-0.2-0.2-0.4 0-0.2 0-2.7 0.5-0.5 0-0.5-0.1-0.7-0.3-0.4-0.5-0.2-0.6-0.3-2.1-0.7-2.6 0-0.6 0-1.5-0.3-1.4-2.1-4.6-0.2-0.7 0.2-0.4 0.2-0.1 0.6-0.3 0.7-0.7 0.2-1.1 0.5-5.4 0.2-1.2 0.4-1 1.5-2.4 0.5-0.5 0.5-0.4 0.7-0.3 1-0.5 0.6-0.4 4-1.6 0.4 0 0.4 0.4 0.3 0.1 0.7 0.2 0.2 0.1 0.2 0.2 0.3 0.1 0.5 0.1 0.7-0.3 0.5-0.2 0.4-0.1 0.5 0.1 0.5-0.1 0.8-0.4 0.6-0.2 0.7 0 0.8-0.2 0.4-0.3 0.4-0.3 0.8-1.3 0.2-0.5 0.1-0.5 0-0.4-0.1-0.3-0.1-0.4-0.3-0.3-0.3-0.1-0.5 0-0.4 0-0.1-0.3 0-0.7 0.6-3.2-0.1-0.3-0.5-0.8-0.5-1-0.1-0.2 0-0.9 0-0.4-0.2-0.2-0.4-0.5-0.3-0.6-0.1-0.9 0.3-1.6 0.2-0.6 0.5-0.4 0.5 0.3 0.2 0.5 0.4 0.4 0.5 0.3 1.7 0.8 0.5 0.2 0.5 0 2.5-0.9 0.4 0.1 1.6 1 0.8 0.7 0.4 0.6 0.2 0.4 0.1 0.5 0.1 2.3 0.1 0.5 0.1 0.4 0.4 0.9 0.5 0.8 1.1 1.4 0.6 0.7 0.6 0.4 3 1.3 0.7-0.8 0-1.6 0.1-1.2 0.5-1.3 0.5-0.8 0.7-0.8 0.5-1 0.3-1.5-0.2-1.6-0.6-1-0.9-0.9-0.8-1 0.5 0-1.1-0.8-0.3-1.2 0.4-1.3 0.7-1 0.5-1.1-0.1-1.3 0-1.4 1.1-1.5 3.4-1.8 1-0.3 1.8 0.1 0.6-0.1 0.5-0.4 0.2-0.4 0.3-0.5 0.6-0.1-0.3-0.9 0.1-0.6 0.3-0.6 0.6-0.7 0.2-0.5 0.3-1 0.3-0.6 2.7-2 0.5-0.7 0.1-1.6-0.1-0.9 0-0.8 1.1-2.1 0.2-3.8 0.3-1.1 1.2-2.9 0.4-0.5 0.3-0.4 0.7-2.2 0.6-0.6 1.3-0.5 0.6-0.4 1.3-1.6 0.2-0.2 1.7 0.8 2.4 0.2 1.1 0.3 0.9 0.5 0.8-0.5 0.7-0.3 0.8 0.2 0.7 0.6 0.4-2.9-0.9-7.1 0.9-2.7 0.9-0.5 5.7-1.3 1.2-0.6 1.9-1.8 2-1.3 2.3-0.7 2.5-0.1 1 0.1 1 2.4 0.6 1.7 0.4 0.6 0.5 0.5 0.3 0.1 2.7 0.3 1.1 0.3 0.8 0.4 0.4 0.3 0.2 0.3-0.1 0.3-0.2 0.2-0.2 0.2-0.5 0.3-0.4 0.3-0.7 0.8-0.2 0.3-0.1 0.3 0 0.5 0.1 0.3 0.3 0.3 1.4 1.2 0.5 0.3 0.4 0.1 0.8-0.2 0.8-0.2 0.3-0.1 0.2-0.3 0.2-0.3 0.4-0.5 0.5-1.1 0.2-0.4 0.3-0.2 0.7-0.2 0.3-0.1 0.1-0.2 0-0.2-0.1-0.7 0.2-0.5 1.3-1.3 0.4-0.3 0.4-0.2 0.3 0.1 0.4 0.3 0.6 0.7 0.1 0.3 0.1 0.3-0.4 0.8-0.2 0.6 0.1 0.3 0.2 0.3 1.1 1.2 1.4-0.1 0.2 0.2 0.3 0.4 0.1 0.7-0.1 1 0 0.3-0.1 0.2-0.2 0.2-0.5 0.4-0.3 0.4 0 0.3 0.3 0.2 0.5 0.2 0.3 0 0.6-0.3 0.4 0 0.5 0.2 0.5 0.3 0.1 0.3 0 0.3-0.1 0.2-0.3 0.5-0.2 0.2-0.5 0.2-0.3 0.2-0.4 0.3-0.2 0.5-0.2 1.2 0.1 0.5 0.2 0.4 0.3 0.1 0.4 0 1.4-0.2 0.3 0.1 0.7 0.5 0.3 0.1 0.4 0 0.8-0.1 0.4 0.1 0.2 0.2-0.1 0.2-0.1 0.3 0.1 0.9z" title="Punjab" data-confirmed="427,583" data-deaths="12,535" data-recovered="0" data-active="415,048" data-index="19"/><path d="M409.5 935l0.5 0.1-1.2 0.6-0.3 0.9-0.4 0.9-1.7 0.4-1.1-0.4-1-1-0.7-1.2-0.4-1.1 1 0.9 1.4 0 2.7-0.9 1.2 0.8z m167-263.4l-5.3 5.6-0.7 1.3-4.6 13.4-1.4 2-5.3 5.2-3.7 6-7.2 7-4 2.7-5.6 5.7-2.5 4.4-1.7 5.2-2.6 16.7 0.5 2.9 1.9 2.1 9.6 4 2.5 1.7 4.4 4 2.7 1 14.8-0.6 2.3 0.6 2.3 1.2 1.7 2.3 0.3 2.5-0.4 5.7 0.3 2.7-0.3 1.2-0.5 1.4-0.4 1.4 0.1 1.3 0.5 2.8-0.3 2.5-0.9 2.5-3.3 5.6-0.3 1.1 0 2.5-0.6 3.5 0.1 1.1 1.1 3.4 2 3.3 2.4 2.9 2.5 2.2 1.2 1.4 1.2 3.8 0.9 1.6 1 0.7 2.4 0.9 3.5 0.8 7.2-0.2 2.4-0.5 2.3-1.1 2.3-0.6 2.5 0.5 1.3 1.8 0.3 2.8-0.3 6-0.4 7.8 0.5 2.4 1 1.4 2.4 2.7 0.5 1.7 0.3 1.6 0.7 1.4 2.1 2.3 3.9 3.4 1 1.4 0.7 1.6 2.1 9.4 1.3 3.7 1.8 3.6 3.7 5.8 2 6 1.7 2.5-1.3 1-4 2-0.9 1.6-0.5 2.1 0.2 1.9 1.2 1.1 0.2 0.4 0 0.4 0 0.4-0.2 0.5-0.2 1.4-0.1 0.5 0 0.5 0.1 0.5 0.2 0.5 1.4 0.8 2.4 0.4 2.2 0.7 0.5 1.7-0.6 0.6-3 1.1-0.7 0.8-0.4 0.7-0.6 0.5-1.2 0-1.4-0.6-1.2-0.1-1.1 0.4-3.8 2.5-0.9 1.3 0.2 1.1 0.8 1.2-0.4 0.4-1.1 0.3-1.2 0.4-2.3 1.2-1.3 0.4-8.3-0.7-2.2-1.1-1.1-1-0.4-1-0.3-2.7-0.6-2.4 0-0.7 0.4-0.4 1-0.7 0.4-0.7-0.8-1.6-2.5-0.1-6.5 1.6-2.8 2-1.1 0.4-3.3 0.2-1.2 0.5-2.3 1.7-1.2 0.2-1.3 0.1-3.5 1.2-2.2 0.2-0.7 0.4-0.7 1.1-1.4 4.2-0.7 1.3-2.2 1.9-2.8 0.6-12.5 0.1-3.3-0.4-2.7-1.3-4.8-5.2-1.8-0.8-17.4-0.4-4.6 1.7-2.4 0.3-1.2-0.2-3.5-1.7-1.4-0.5-1.2 0.3-2.5 1.4-1.7 0.6-1.1-0.2-0.9-0.8-1.2-2.2-0.4-0.6-0.6-0.4-0.5-0.2-0.9 0-0.3 0.4-0.1 0.6-0.2 0.5-1.9 3.6-0.6 0.6-1.2-1-0.4-3.9-0.9-1.4-3.2-0.2-1.3 2.9-0.1 21.9-10.9-0.1-7.1-0.1-2.9 0.5-1.9 1.4 0-0.5-0.1-0.7-0.2-0.5-0.4-0.3-0.8 0.2 0 0.5 0.2 0.7 0.1 0.5-0.5 0.9-0.8 0.8-0.8 0.4-0.9-0.4-0.4-0.7-0.1-0.5-0.2-0.3-0.6 0.1-0.6 0.5-0.1 0.6 0 0.6-0.1 0.4 0.4 0.4 0.1 0.3-0.2 0.2-0.2 0-0.6-0.1-0.2 0-0.5 0.3-1.1 0.5-0.4 0.3-1.5 2.3-1.6-4.2-0.1 2.1 0.1 0.7 0.2 0.4 0.5 0.9 0.1 0.3-0.2 1.3-1.1 2.7-0.4 1.3 0.1 1.2 0.6 2 0.2 1.2-0.5 0.1-1.2-0.9-1.7-1.7-0.2 1.6-1.1 0-1.1-0.9-0.6-1.4 0.2-0.5 0.9-0.7 0.2-0.2-0.1-1.3 0.1-0.3 0.4-1.2 0.4-0.2 0.9 0 0-0.5-0.9-0.7-0.9-1-0.8-1.4-0.4-1.5 0.5-1.8 0.1-0.8-1 0.1-1.4-0.9-0.7-0.3 1.8 5.9 0.7 1.5-1.1 2.5-0.7 1.2-0.7 0.4-0.3-0.4-0.3-0.7-0.2-0.8 0-0.6-0.4-0.4-0.6 0.1-0.6 0.3-0.1 0.3-0.6-0.2-0.7-0.3-0.6-0.5-0.2-0.7-0.3-0.4-0.5-0.1-0.5 0-0.5-0.1-0.3-0.7 0.1-0.9-0.4-0.6-0.5-0.1-0.5 0.3-0.9 1-0.2-1-0.1-2.5-0.5-0.6-0.4 1.5-0.6 4.4-0.5 1-1.8-0.3-1.8-0.5-3.3-1.5 0.7 0.5 0.6 0.8 0.2 1-0.7 0.9-1 0.3-1.4-0.2-2.3-0.5-0.6-0.1-0.5 0.1-0.4-0.1-0.1-0.7 0.1-0.8 0.2-0.5 0.3-0.5 0.2-0.7 0.5-3.8 0.3-0.8 0-0.5-0.2 0.1-0.1-0.2 0-0.4-0.8 1.2 0 2.8-0.5 1.2-0.9 0.4-1-0.3-0.6-0.8-0.1-1.2-0.8 0.9-0.5-0.4-0.5-0.8-0.7-0.6-0.9-0.1-0.1 0.5 0.3 0.8 0.7 0.6-3.4-0.8-0.8-0.6 0.6-0.1 0.4 0.1 0.5-0.1 0.6-0.3 0.5-0.6 0.7-1.5 0.5-0.7-0.6 0.3-0.7 0.5-0.6 0.3-0.7-0.2-0.1-0.6 0.2-1.1 0.4-1.5-2.6-0.6-0.8-0.4 1-2.3 0.7-0.7 0.8 0.3 1.7-1.1 0.6-0.7 0.2-1-1.4 1.2-1.3-0.1-1.3-0.7-1.7-0.4-3.5 0.2-1.8-0.3-0.8-1-0.2-2.2-0.7-1.7-1.6-2.9-0.3-0.8-0.1-0.9-0.1-3.4-0.2-0.5-0.6-0.8 0.3-0.4 0.3-0.8 0.2-0.2-0.4-1.8 1.2-0.9 1.9-0.3 1.6 0.2-1.2-0.7-1.1-0.2-2.6 0-0.7-0.8 0.2-1.8 0.8-3-0.4 0.5-0.4 0.4-1 0.5-0.1-1.8-0.6-1.5-1-1.4-1.2-1.4 1.2-1.1-0.2-0.5-1.4-0.2-0.6-0.8-0.4-0.9-0.2-1-0.1-1 1 0.4 1.1 0.1 1.2-0.1 1-0.4-1.8-1.1-0.9-0.5-1.2-0.3-1.1 0.2-0.7 0.2-0.5-0.2-0.2-1.3 0.5-1.9 1.1-1.8 1.5-1.5 1.5-1.1 1.8-0.9 0.1-0.5-0.6-0.9-0.8-0.6-0.5 0-0.7 0.4-2.2 0.4-0.6-0.1-0.3-1.5-0.4-0.6-0.5-0.6-0.5-0.2-1.1 0.1-0.6 0.2-0.7 0.1-1.2-0.4-0.4 0.5 0.5 1.4-1.2-0.5-2.5-1.9-1.1-0.2-1.1-0.6-0.9-0.8-0.4-0.7-0.5 0 0 1.3 0.2 0.5 0.3 0.5-1.5-0.2-1.2-0.8-1.1-1-1.4-0.8-1.7-0.1-1.6 0.6-1.6 0.3-1.4-0.8-0.6 0.3-3.3 0.4-1.5 0.6-0.7 0.1-1.6-0.6 0.2-1.3 1.2-1.4 1.7-0.9 9.7-7.9 0.8-0.5 0.4-0.1 0.3-0.1 2.5-0.3 0.8-0.3 0.8-0.4 0.8-0.6 1.5-1.7 1.3-1.7 0.6-1.1 0.3-1.1 0.1-0.5-0.1-1.2 0-0.4 0.1-0.4 0.3-0.7 0.6-0.8 2.1-2.6 3-2.5 0.4-0.5 0.4-0.7 1.5-4.1 0.3-0.8 0.1-0.7-0.1-0.7-0.3-1.4 0-0.4 0.1-0.7 0.4-0.8 3.1-5.7 0.5-0.7 1.7-0.9 0.5-0.4 0.4-0.6 0.4-1.1 0.9-1.8 2.2-2.7 2-2.2 0.8-1.4 3.1-8.4 0.7-2.4 0.3-2.1 0-1.8-0.4-3.6 0-1.3 1-6.1-0.2-1.9-0.6-2.4-15.7-29.5-0.6-1.4-0.6-3.1-0.4-3.3-0.2-5.7-0.4-29-0.7-6.8 0.1-2.4 0.4-3.2 2.3-10.1 0.3-2.3 0.5-1.3 0.8-1.8 4.1-7.4 4.3-5.6 2.9-7 0.8-1.3 2.4-1.3 6.9-1 8-2.1 14.9-6.7 2.7-4.2 1.9-2.2 13.5-10.5 1.1-1.2 2.8-2 5.3-2.3 0.5-0.3 0.3-0.2 0.4-0.5 3.1-5.1 0.4-0.5 0.9-0.8 0.4-0.3 0.4-0.1 1.8-0.6 6.3-0.9 10.6 0.7 29.3-1.3 8.2-0.2 6.6-2.8 0.8-0.1 1.6 0 1.6 0.3 1.6 0.4 0.4 0.2 0.2 0.2 0.2 0.3 0.2 0.6 0 0.5 0.1 0.3 0.2 0.2 0.3 0.1 5.9 0.8 1.7 0.5 1.4 3 0.9 0.9 0.5 0.2 0.5 0.2 0.8 0.6 0.5 0.7 0.2 0.6 0.1 0.5 0 2.3 0.1 0.6 0.3 0.5 0.5 0.8 0.3 0.6 0.2 0.5 0.2 1.3 3.8 11.5 0.9 1.9 3.9 5.7 1.1 1.2 1 0.8 3.8 2.4 7.1 3.3z" title="Sind" data-confirmed="454,510" data-deaths="7,327" data-recovered="0" data-active="447,183" data-index="20"/><path d="M793.5 13.4l-0.2 1.5 0.2 1 0.1 0.4 0.4 0.4 0.3 0.2 0.3 0.2 0.5 0.2 2.2 0.4 0.7 0.3 0.8 0.5 0.9 0.9 3.5 2.4 0.7 0.6 0.4 0.5 0.2 1.1 0.1 0.4-0.1 0.3-0.2 0.7-0.1 0.3 0 0.3 0.1 0.3 0 0.5-0.1 0.4-0.4 0.2-0.3 0.1-1.3-0.3-1.2-0.5-2-0.6-0.7 0-0.2 0-1.2 0.9-0.4 0.1-0.3-0.1-1.2-0.6-0.5-0.1-0.4-0.1-0.4 0.2-1.2 1.1-0.7 0.4-0.4 0.1-0.3 0-0.7-0.4-0.4-0.1-1.7 0.1-0.3-0.1-0.3-0.1-0.3-0.3-0.3-0.5-0.6-0.8-0.2-0.2-0.3 0-0.8 0.5-0.4 0.1-0.3 0-0.5-0.3-0.3-0.1-0.7 0-1.3 0.1-0.4 0-3.7-1.2-1.5-0.3-0.8-0.1-6.3 2.4-1.1 0.3-0.6 0-1-0.1-1.7 0.1-1.5 0.4-0.3-0.1-0.3-0.2-1-1-0.6-0.4-0.4-0.1-0.3 0.2-1.8 1.4-0.7 0.4-2.1 0.5-1.2 0.1-0.2 0.2-0.2 0.3 0.1 0.7 0.1 1.7 0.2 1 1 2.5 0.1 0.7 0 0.4-0.6 1.1-0.8 1.2-0.2 0.4-0.2 1-0.2 0.5-0.5 0.7-0.4 0.4-0.4 0.3-3.2 1.3-0.4 0.2-0.2 0.3 0 0.2 0.1 0.4 0.4 0.8 0.1 0.4-0.1 0.6-0.2 0.3-0.2 0.1-1.6 0.2-1.8 0-1.2 0.2-0.7 0.3-0.3 0.4-0.1 0.3-0.2 1 0 2 0.1 0.8-0.1 0.5-0.1 0.3-0.4 0.6-0.5 0.4-1.9 0.4-0.5 0.3-0.6 0.4-2.2 2.8-0.7 0.4-0.4 0.2-0.9 0.3-0.9 0.4-1.2 0.9-0.3 0.3-1.3 1.9-0.3 0.1-0.4 0-1.6-0.6-0.8-0.1-0.5 0-0.8 0.2-0.8 0.3-0.9 0.6-0.5 0.5-0.5 0.6-0.3 0.6-0.3 0.4-0.2 0.5-0.6 3.1-0.2 1.2 0 0.3 0.1 0.3 0.5 0.8 0.1 0.4-0.1 0.5-1.6 2.1-0.2 0.3-0.2 0.8 0 0.3 0.2 0.5 0.2 0.6 0.2 0.5 0.2 0.3 1.9 1.8 0.4 0.5 0.1 0.6 0.5 1.2 0 0.2 0 0.3-4.5 8.3 8.6 3.8 5.8 0.7 2.6 0.5 0.4 0 0.5-0.1 0.2-0.2 0.3-0.5 0.2-0.2 2.4-1.4 0.5-0.2 0.5-0.2 6.1-0.3 0.4 0.1 0.5 0.2 0.9 0.5 0.5 0.3 0.4 0.2 1 0.4 0.6 0 0.7 0 0.4-0.1 0.3-0.1 0.5-0.4 0.5-0.7 0.3-0.2 0.2 0 0.1 0.2 0.2 0.4 0.9 0.9 0.7 0.6 1.8 1.3 0.3 0.3 0.1 0.2-0.1 0.3-0.1 0.3-1.2 1.1-0.2 0.2-0.1 0.3-0.3 3.9 0 0.6 0.1 0.5 0.1 0.4 0.2 0.3 0.4 0.4 5.7 3.9 0.7 0.7 0.2 0.3 0.5 0.4 2.4 1.7 0.4 0.5 0.2 0.3 0.3 0.8 0.4 0.2 0.9 0.3 0.2 0 1.2-0.1 0.4 0 0.7 0.1 0.5 0.2 0.5 0.4 0.3 0.3 0.3 0.3 0.3 0.8 0.8 1.6 2-1 1.4 0.3 2.4 1.8 3.8-0.6 3.9-0.1 7.9 1.2 0.9 0.4 0.3 1.2 0.1 0.3 0.2 3.1 0.2 0.8-0.1 0.2-0.1 0.2-0.3 0.2-0.6 0.2-1.5 0.9-1 0.8-0.2 0.4 0 0.3-0.4 0.8-1.4 2.3-0.2 0.4-0.1 0.5 0.1 0.7-0.2 2.1 0 0.6 0.1 0.3 1.8 3.2 0.1 0.4 0 0.3-0.2 1.1-0.1 0.4 0 0.3 0 0.4 0.4 0.7 0.4 0.3 0.2 0.2 0.4 0 0.5-0.3 1.2-1.3 0.4-0.3 0.2 0 1.6 0 0.5 0.1 0.7 0.2 1.1 0.7 1.2 1.3 0.4 0.1 0.3 0 1.1-0.4 0.7 0.1 1.6 0.6 1.5 2 0.3 0.1 0.4 0.1 0.5-0.2 0.5-0.2 0.9 0 0.4 0.1 0.3 0.2 0.2 0.4 1.2 1.2 0.4 0.2 0.3 0.1 2.6 0.3 1.2 0 0.2 0.1 0.1 0.2-0.1 0.5 0 0.3 0.2 0.4 0.9 0.8 0.3 0.5 0 0.4-1.6 0.5-0.6 0.6-0.5 0.5-0.3 0.5-0.5 1.2-0.1 0.4 0 0.3 0.2 0.5 0.4 0.4 0.7 0.3 0.3 0.3 0.3 0.4 0.3 0.5-0.1 0.3-0.2 0.3-0.7 0.5-0.6 0.6-0.6 0.7-0.1 0.6-0.1 0.7 0.1 1.1-0.2 0.7-0.3 0.6-0.2 0.3-0.7 0.5-0.5 0.6-0.2 0.7-0.4 1.3-0.4 0.5-0.3 0.4-1.4 0.5-0.7 0.2-1 0.1-0.5 0.2-0.4 0.3-0.6 0.7-0.5 0.7-0.4 0.5-0.4 0.4-0.5 0.2-1.2 0.9-0.3 0.2-2.7-0.3-1.3 0.3-0.2 0.1-1.2 0.9-0.5 0.2-0.3 0.2-0.4 0-1.2 0-0.4 0.2-0.7 0.3-1.3 1.1-0.6 0.6-0.5 0.5-0.4 0.9-0.5 1.6-0.3 0.6-1.9 2.8-0.1 0.4-0.1 0.3 0.1 0.4 0.1 0.3 0.5 0.7 0.1 0.4 0 0.4 0 0.4-1.3 3.6-0.6 1.2-0.4 0.4-0.3 0-0.3-0.4-0.2-0.5-0.3-0.7-0.3-0.2-0.4 0-0.6 0-0.6 0.1-0.5 0.1-2 1-0.5 0.1-1.3-0.3-0.6 0-1.9 0.3-0.6 0.3-0.2 0.3-0.2 0.3-0.1 0.7 0 0.7-0.1 0.2-0.1 0.3-0.3 0.5-0.1 0.3 0 0.4 0.1 1.9 0 0.3-0.2 0.4-0.3 0.7-0.1 0.2-0.1 0.3 0 2.3 0 0.4-0.4 1.5-0.3 0.9-0.9 1.7 0.4 1.5 2.5 3.7 0.5 1 0.2 0.7 0.9 1 1 5.3 0.1 1.3-0.1 2.6 0 1.2 1.2 4.6 0.6 4.4 0 0.1-0.6-0.3-0.3-0.3-0.4-0.2-0.4 0-0.5 0.4-1.1 0.6-0.4 0-0.4 0.3-0.3 0.3-1.2 1.9-0.2 0.4-0.5 0.2-0.5 0.1-0.3 0-0.3-0.1-0.7-0.4-0.3-0.1-0.4 0-0.4 0.1-0.3 0.2-0.4 0.4-0.1 0.7 0.1 0.4 0.2 0.3 0 0.2 0 0.3-1.9 2.6-0.3 0.6-0.2 0.6-0.2 0.6-0.2 0.3-0.3 0.3-1.4 0.6-1 0.7-1.9 0.8-1.5 1.3-1.5 1-2.9-0.2-1.2 0.5-0.5 0.6-0.5 0.5-1.3 0.6-2.3 0.3-0.5 0.1-0.7 0.3-1 0.7-0.5 0.6-0.7 0.7-1.3 0.7-2.9 0.6-0.1-0.9 0.1-0.3 0.1-0.2-0.2-0.2-0.4-0.1-0.8 0.1-0.4 0-0.3-0.1-0.7-0.5-0.3-0.1-1.4 0.2-0.4 0-0.3-0.1-0.2-0.4-0.1-0.5 0.2-1.2 0.2-0.5 0.4-0.3 0.3-0.2 0.5-0.2 0.2-0.2 0.3-0.5 0.1-0.2 0-0.3-0.1-0.3-0.5-0.3-0.5-0.2-0.4 0-0.6 0.3-0.3 0-0.5-0.2-0.3-0.2 0-0.3 0.3-0.4 0.5-0.4 0.2-0.2 0.1-0.2 0-0.3 0.1-1-0.1-0.7-0.3-0.4-0.2-0.2-1.4 0.1-1.1-1.2-0.2-0.3-0.1-0.3 0.2-0.6 0.4-0.8-0.1-0.3-0.1-0.3-0.6-0.7-0.4-0.3-0.3-0.1-0.4 0.2-0.4 0.3-1.3 1.3-0.2 0.5 0.1 0.7 0 0.2-0.1 0.2-0.3 0.1-0.7 0.2-0.3 0.2-0.2 0.4-0.5 1.1-0.4 0.5-0.2 0.3-0.2 0.3-0.3 0.1-0.8 0.2-0.8 0.2-0.4-0.1-0.5-0.3-1.4-1.2-0.3-0.3-0.1-0.3 0-0.5 0.1-0.3 0.2-0.3 0.7-0.8 0.4-0.3 0.5-0.3 0.2-0.2 0.2-0.2 0.1-0.3-0.2-0.3-0.4-0.3-0.8-0.4-1.1-0.3-2.7-0.3-0.3-0.1-0.5-0.5-0.4-0.6-0.6-1.7-1-2.4-1-0.1-2.5 0.1-2.3 0.7-2 1.3-1.9 1.8-1.2 0.6-5.7 1.3-0.9 0.5-0.9 2.7 0.9 7.1-0.4 2.9-0.7-0.6-0.8-0.2-0.7 0.3-0.8 0.5-0.9-0.5-1.1-0.3-2.4-0.2-1.7-0.8-0.2 0.2-1.3 1.6-0.6 0.4-1.3 0.5-0.6 0.6-0.7 2.2-0.3 0.4-0.4 0.5-1.2 2.9-0.3 1.1-0.2 3.8-1.1 2.1 0 0.8 0.1 0.9-0.1 1.6-0.5 0.7-2.7 2-0.3 0.6-0.3 1-0.2 0.5-0.6 0.7-0.3 0.6-0.1 0.6 0.3 0.9-0.6 0.1-0.3 0.5-0.2 0.4-0.5 0.4-0.6 0.1-1.8-0.1-1 0.3-3.4 1.8-1.1 1.5 0 1.4 0.1 1.3-0.5 1.1-0.7 1-0.4 1.3 0.3 1.2 1.1 0.8-0.5 0 0.8 1 0.9 0.9 0.6 1 0.2 1.6-0.3 1.5-0.5 1-0.7 0.8-0.5 0.8-0.5 1.3-0.1 1.2 0 1.6-0.7 0.8-3-1.3-0.6-0.4-0.6-0.7-1.1-1.4-0.5-0.8-0.4-0.9-0.1-0.4-0.1-0.5-0.1-2.3-0.1-0.5-0.2-0.4-0.4-0.6-0.8-0.7-1.6-1-0.4-0.1-2.5 0.9-0.5 0-0.5-0.2-1.7-0.8-0.5-0.3-0.4-0.4-0.2-0.5-0.5-0.3-0.5 0.4-0.2 0.6-0.3 1.6 0.1 0.9 0.3 0.6 0.4 0.5 0.2 0.2 0 0.4 0 0.9 0.1 0.2 0.5 1 0.5 0.8 0.1 0.3-0.6 3.2 0 0.7 0.1 0.3 0.4 0 0.5 0 0.3 0.1 0.3 0.3 0.1 0.4 0.1 0.3 0 0.4-0.1 0.5-0.2 0.5-0.8 1.3-0.4 0.3-0.4 0.3-0.8 0.2-0.7 0-0.6 0.2-0.8 0.4-0.5 0.1-0.5-0.1-0.4 0.1-0.5 0.2-0.7 0.3-0.5-0.1-0.3-0.1-0.2-0.2-0.2-0.1-0.7-0.2-0.3-0.1-0.4-0.4-0.4 0-4 1.6-0.6 0.4-1 0.5-0.7 0.3-0.5 0.4-0.5 0.5-1.5 2.4-0.4 1-0.2 1.2-0.5 5.4-0.2 1.1-0.7 0.7-0.6 0.3-0.2 0.1-0.2 0.4 0.2 0.7 2.1 4.6 0.3 1.4 0 1.5 0 0.6 0.7 2.6 0.3 2.1 0.2 0.6 0.4 0.5 0.7 0.3 0.5 0.1 0.5 0 2.7-0.5 0.2 0 0.4 0 0.2 0.2 0.2 0.4-0.1 1.3-0.9 3.1 0.2 1 0.3 0.7 0.4 0.4 0.2 0.2 0.3 0 0.3-0.1 0.2-0.4 0.2-0.3 0.2-0.5 0.2-0.2 0.2-0.2 0.3-0.1 0.5-0.3 0.4-0.9 0.2-0.2 0.3-0.1 0.5 0.1 0.5 0.2 0.2 0.2 0.1 0.4 0 0.5 0.1 0.3 0.2 0.1 0.4 0.9-0.2 5-0.4 1.3-0.5 1.1-2.3 3.2-0.7 1.2-0.3 1.3 0 1.4-0.1 0.7-0.3 0.7-1.2 2.1-0.3 0.8-0.7 3-0.4 1.5-0.8 1.2-0.6 0.4-1.8 0.9-0.6 0.5-2.2 2.5-0.5 0.9-0.4 0.9-0.2 1.1 0 1.4-0.1 0.6-0.3 0.6-2.3 2.3-1 1.2-1.1 3.1-0.8 1-1 0.9-0.9 1.1-0.6 1.4-0.5 2.9-0.5 1.5-2.6 5.4-1.1 1.6-0.4 0.9 0 1 0.3 1.2 0 0.4-0.1 0.7-3 8.1 0.6 1.1 0.3 0.5 0.8 0.9 0.2 0.4 0 0.3-0.3 0.2-0.5 0.2-0.3 0.4-0.1 0.5 0.6 1.6 0 0.5-0.1 1.7-0.2 0.9-0.2 0.4-0.4 0.4-0.8 0.4-1 0.3-0.4 0.6-0.6 2.2 0.3 0.6 0 0.3-0.1 0.4-0.2 0.5-1.4 1.5-0.9 1.8-1.2-0.6-0.5-0.3-0.7-0.8-0.3-0.2-0.3-0.2-0.4 0-0.5 0-0.9 0.2-2.7 1.2-0.6 0.1-0.9-0.1-0.6-0.2-2.1-1-1.1-0.3-0.7 0-0.6 0.3-1.5 1.2-0.5 0.3-0.5 0.2-0.9 0.1-0.5 0-1-0.2-0.5 0.2-0.5 0.4-0.7 0.9-0.3 0.6-0.2 0.5-0.2 0.4-0.2 0.5-0.6 0.4-1.1-0.2-10.1-34.4-1-1.6-0.1-0.5-0.6-4.1 0-0.3 0.2-0.9 0.2-1.1 0-0.6-0.1-1.9-0.1-0.8-2.4-7.8-2.4-2.1-0.6-1.3-0.6-2.7-0.9-2.5-1.7-2.6-0.2-0.4 0-0.4 0.2-1.1 0.1-0.6 0.8-1 0.6-0.7 1.5-1.3 2.4-1.5 0.3-0.3 0.4-0.6 0.8-1.1 0.6-1.5 0.4-0.4 0.3-0.3 0.4-0.2 0.4-0.1 1.9-0.2 0.3 0 0.7 0.3 0.6 0 0.5-0.1 0.7-0.3 1.3-0.9 1.6-1.4 0.3-0.4 1.3-2.1 0.3-0.3 2-1.8 1.3-1.6 0.4-0.7 0.3-0.8 0.3-1.1 0.6-1.6 0.4-0.9 0.3-0.5 0.3-0.1 0.4-0.1 0.7 0 0.5 0.2 4.1 2.4 0.3 0 0.5 0 0.6-0.4 0.3-0.3 0.1-0.3-0.2-0.8-0.5-1.4-10.5-13.3-1-1.6-0.3-0.1-0.6-0.1-0.1-0.1-0.1-0.2 0.3-1.1 0-0.5 0.1-0.5-0.2-2.1 0-3.5 0.1-0.4 0.2-0.5 0.2-0.1 0.5 0 0.4-0.5 0.6-0.8 1.8-3.6 1.7-2.4 0.4-0.8 1.4-4.8 0.2-0.2 0.5-0.3 0.5-0.3 0.8-0.8 0.9-0.7 0.4-0.1 0.3-0.1 1.5 0.5 0.7 0.1 0.5-0.1 1.3 0.2 0.8 0 0.7-0.1 0.3-0.1 1-0.2 1.2-0.5 1.4-0.2 0.6-0.2 0.8-0.4 0.5-0.5 0.9-1.2 0.5-0.4 0.5-0.2 1.4-0.3 4-4.5 0.9-1.5 0.1-0.4-0.1-0.3-0.2-0.4-0.2-0.3-0.3-0.1-1.5-0.6-1.3-0.3-0.8-0.3-0.3-0.1-0.4 0-0.6 0-0.2 0-0.8-0.3-0.2 0-1.4 0-2-0.2-0.6-0.2-0.3-0.3 0-0.4 0.3-1.2-0.1-0.2-0.3-0.1-0.4-0.1-0.7 0-0.4-0.1-1.9-0.8-0.4 0-0.7 0-0.5-0.1-0.5-0.2-0.9-0.4-1.5-2.2-0.6-2.7-0.4-0.7-0.7-0.3-2-1.2-0.8-0.7-0.3-0.4-0.1-0.3 0-0.3 0.2-0.8 0.3-0.5 0.8-0.6 0.3-0.1 1-0.3 0.9-0.1 0.7-0.1 0.7-0.1 0.9 0.1 0.6-0.1 0.4-0.2 0.6-0.4 1.7-2.1 0.5-0.4 0.5-0.1 1.3-0.1 1.1-0.1 1.8-0.7 0.6-0.1 0.5-0.1 0.2-0.2 0.2-0.4 0-0.4 0-0.6-0.2-0.7 0-0.5 0.1-0.3 0.2-1.1 0.9-2.1 0.3-0.4 0.4-0.3 1.1-0.1 2 1.3 1 0.4 9.9 1 0.5-0.1 1.3-0.6 0.6-0.5 0.6-0.5 0.5-0.3 0.7-0.3 2.4-0.6 0.3-0.1 0.1-0.2-0.1-0.3-0.2-0.2-0.8-0.4-0.2-0.1-0.1-0.5 0.2-0.4 0.3-0.4 0.3-0.2 0.7-0.5 2.3-0.8-0.1-0.9-0.8-2.1-0.1-0.4 0-3 0.1-0.4 0.3-0.1 0.3 0 1.1 0.4 0.4 0.2 1 0.7 0.2 0.1 0.4 0 0.3 0 0.3 0.1 0.3 0.2 0.1 0.3 0.3 0.8 0.2 0.2 1 1.1 1.4 1 3 1.5 1 0.7 0.5 0.5 0.4 0.3 0.7 0.4 0.4 0 0.4-0.1 0.4-0.5 0.5-0.3 0.7-0.2 2.6-0.1 1.3-0.4 0.5 0 0.3 0 0.9 0.2 7.9 0.5 0.6-0.2 0.7-0.2 0.4 0 0.3 0.1 0.4 0.4 0.3 0.5 0 0.7-0.1 0.2-0.1 0.3-0.3 0.2-0.6 0.4-0.6 0.3-2.1 0.7-0.7 0.4-0.3 0.2-0.2 0.3-0.1 0.3 0.1 0.2 0.4 0.5 0.4 0.3 0.6 0.3 1.4 0.5 2.6 0.4 1.3-0.2 1.6-0.8 3.6-2.1 0.8-0.7 0.7-0.3 2.1-0.8 0.6-0.2 0.5-0.4 0.2-0.2 0.1-0.5-0.2-0.4-0.7-0.5-2.1-1.5-0.2-0.1-0.1-0.4 0.2-0.6 1.3-1.5 0.4-0.6 0.3-0.6 1.9-2.7 0.2-0.5 0.2-0.6-0.2-0.7-0.2-0.2-0.2-0.1-1.6 0-2.1-0.4-0.4-0.2-0.5-0.2-0.7-0.6-0.3-0.4-0.3-0.6-0.5-1.6-0.3-0.4-0.3-0.2-0.2 0.1-0.2 0.1-0.3 0.6-0.3 0.8-1.3 2.3-0.8 0.8-1.9 1.4-3.5 1.8-2.9 0.5-0.5 0-0.7 0-0.7-0.2-0.2-0.1-0.1-0.3-0.4-0.8-0.5-2-0.1-0.4 0-0.6 0.1-1.2 0-0.4-0.1-0.4-0.4-0.5-0.6-0.6-2.3-1.7-0.8-0.8-0.2-0.3-0.1-0.2 0-0.5 0.1-1.5 0-0.4-0.3-1.7-0.5-0.9-0.4-0.7-0.5-0.5-0.5-0.4-0.4-0.4-0.5-1-0.1-0.6-0.1-0.3 0.1-0.7 0-0.8 0.1-0.3 0.3-0.7 0.2-0.4-0.1-0.8-0.3-1.5-0.1-0.3-0.7-1-0.1-0.1 0.1-0.5 0.4-0.4 0.3-0.2 0-0.2 0-0.4 0-0.7-0.2-0.5-0.3-0.2-0.5-0.4-0.1-0.1-0.5-0.1-0.4-0.2-0.3-0.2-0.1-0.2 0.2-0.4 0-0.3-0.1-0.5 0.1-0.3 0.3-0.3 4.7-1.3 0.3-0.4 0-0.1 0.3-0.3 1.1-0.7 0.2-0.2 0.3-0.2 2-1.6 0.6-1.1 1.7-1.5 0.3-0.2 0.2-0.8-0.1-0.3-0.3-0.2 0-0.2 0.3-1.3-0.2-0.6 0-0.3 0.1-0.1 1.2-1 0.3-0.4-0.1-0.5 0.1-0.3 0.4-0.3 0.5-0.4 0.8-0.9 0.2-0.1 0.3 0.2 0.3 0 0.3 0.2 0.3 0.4 0.2 0.1 0.4 0.1 0.2-0.2 0-0.2-0.1-0.6 0-0.3 0.1-0.7 0.1-0.2 0.5-0.2 0.4 0.1 0.4-0.2 0.4-0.3 0.3-0.2-0.2-0.4-0.1-0.3 0.2-0.3 0.1-0.8 0.6-0.7 0.5-0.1 0.6-0.5 0.5-0.2-0.5-1.6-0.3-0.3-0.2 0.1-0.4 0-0.4-0.1-0.3-0.1 0-0.5 0-0.4 0-0.5-0.3-0.7 0.1-0.4-0.9-2.9 1.2-1.4 0.3-0.3-0.1-0.8 0.1-0.5 0.5-2.3 0.2-0.6 0.2-0.4 0.2 0 0.3-0.3 0.2 0 0.3-0.3 1-1.1 0.6-0.5 0.2 0 0.3 0.2 0.4 0.1 1.3-1 0.4-2.3 0-0.9-0.1-0.6-0.1-0.5-0.2-0.4-0.1-0.5 0.1-0.1 0.2-0.2 0.4 0 0.2-0.1 0.2-0.2 0.6-0.9 0.2-0.2 0.4-0.1 0.3-0.2 0-0.2-0.3-0.5-0.3-0.4-0.3-0.8-0.3-0.2-0.2-0.2-0.6 0.1-0.4 0-0.8-0.3-0.4-0.2-0.4-0.1-2.2-0.4-0.4 0.1-0.3 0-1 0.4-2.6 1.5-0.5 0-0.4-0.1-0.8-0.4-1.1-1-0.2-0.2 0.1-0.6 0-0.4-0.2-0.6-0.2-0.4-0.2-0.5 0-0.5-0.2-0.4-0.2-0.5-0.1-0.7-0.2-0.3-0.5-0.1-0.7-0.3-1.3-0.2-1.2-0.7-0.2-0.1-2.1-2.7-0.9-1.5-0.1-0.2 0.9-0.4 0.6-0.5 0.4-0.8 0.6-1.8 0.4-0.8 0.7-0.5 0.5-0.6 0.1-0.7-0.4-0.7 0.1-3.3 1.6-2 4.3-3 1.5-2.4 0.5-1.5-0.2-1-1.9-1.6-3.4-3.9-1.1-1.9 0.1-2 1.9-2.5 3-2.7 0.6-1.1 0.1-1.4-0.5-1.1-0.8-0.9-0.8-1.2-0.4-1.6 0.3-1.5 0.4-1.3 0-1.5-0.6-1.1-1-0.8-3.4-1.7-1.2-1-0.6-1.2 0.8-1.6 1.1-1.4 0.4-1.4-0.3-1.3-0.8-1.4-0.4-0.4-0.9-0.7-0.4-0.5-0.2-0.9 0-0.7 0-0.6 0-0.8-0.4-1.1-2.1-3.7-0.9-1.2-2.8-2-0.6-1.1-0.3-2.5-0.9-1.1-1.8-0.8-1.7-0.4-1.7-0.7-1.6-1.7-0.8-0.6-2.2-1.3-0.7-0.6-0.3-1.4 0.6-1.2 1.9-2 0.4-0.7 0.3-1.6 0.3-0.6 2.4-1.6 1.9-0.9 0.6-0.4 0.4-0.7 0.3-1.6 0.3-0.5 3.9-1.4 1.3-1 4.7-5.3 1-0.7 1.2-0.4 1.4-0.3 1.2-0.7-0.3-1-0.6-1.1 0.3-1.2 1.5-1.5 0.5-0.9 0.5-1.2 0.8-2.4 0.6-0.6 1.1-0.1 1.2 0.5 3.6 2.4 1.8 1.9 0.9 0.4 1-0.1 1-0.3 0.7-0.9-0.2-1-1-2.1-0.1-2.4 1.2-0.8 4-0.3 1-0.4 0.8-0.7 0.8-0.7 0.8-0.8 2.9-1.6 1-1.1 1.3-0.7 2.5-0.6 1-1 0.1-0.7-0.2-0.6-0.1-0.6 0.5-0.7 0.7-0.4 1.6-0.5 3.5-0.5 1.1-0.6-0.4-1.3-0.9-1.5 0.2-1 1-0.7 2.7-1.1 5.4-1.3 2.8-0.1 2.5-0.9 2.8 0.2 1.3-0.3 3.9-3.3 3-1.6 3.9-0.9 4.1-0.3 5.1 0.8 5.5-0.3 1.8-0.5 1.5-0.8 1.5-0.4 1.9 0.8 0.8 0 0.8-0.3 1.5-1.1 1-0.3 9.1-1 2 0.2 1.8 0.5 0.9 0.1 0.9-0.1 3.1-1.1 2.9 0.2 4.1-0.5 1.9 0.2 2 0.4 8.1-1.4 4.4 0.2z" title="N.W.F.P." data-confirmed="172,766" data-deaths="5,488" data-recovered="0" data-active="167,278" data-index="8"/></svg>