<svg xmlns:svg="http://www.w3.org/2000/svg" xmlns="http://www.w3.org/2000/svg" preserveAspectRatio="xMidYMid meet" version="1.1" xmlns:xlink="http://www.w3.org/1999/xlink" xmlns:ev="http://www.w3.org/2001/xml-events" viewBox="0 0 1000 597" max-index="500"><path d="M894.4 192.8l-0.2 0.5-0.4-0.3 0.1-0.4 0.3 0 0.2 0.2z m11.5-14.5l1.6 0.3 0.3 0.2 0.1 0.5-0.5 0.8 0.1 0.3-0.1 0.7-0.3 0.5-0.7 0.7-3.3 2.4-1.4 1.8 0 0.9 0.2 0.3 0.1 0.4 0.2 1.3 1.2 0.1 1.5 0.9 1.2 0.2 1 0.3 0.2-0.1 0.1-0.3-0.2-0.6 0.2-0.1 0.3 0 0.3 0.2 0.1 0.3 0.6 0.5 0.5 0.1 1.2 0 0.5-0.2 1-0.6 0.7-0.2 0.3 0.2 0.8 1 0.5 0.5 0.2 0.3 0.1 0.5 0.5 1.4 0 0.3-0.1 0.2 0 0.3 0.2 0.3 0.5 0.2 0.3 0.2 0.2 0.4-0.1 0.9-0.7 1.2 0 0.4 0.3 0.1 0.8 0.3 0.6 0.5 0.8 0.5 0.8 0.2 0.3-0.1 0.8 0.3 1.5 1.2 0.9 2.1 0.3 1.3 0 0.8-0.2 0.6-1.4 0.4-0.7 0.3-1.4 0.4-0.3 0.1-0.1 0.6-0.3 0.4-1.4-0.1-0.3 0.3-0.2 0.3 0 0.4-0.3 0.9-0.2 0.1-0.4-0.1-0.2-0.2-0.4-0.2-0.3 0.1-0.3 0.2-0.2 0.1-0.1 0.3-0.1 0.7-0.2 0.5-0.2 0.3-0.2 0.1-0.5-0.2-0.2 0-0.3 0.4-0.4 1.3 0.1 0.6 0.2 0.5 0.8 0.6 0.6 0.7 0.5 0.3 0.5 0.1 0.5 0 0.5 0.4 0.3 0.5 0.3 1.1 0.1 1.5-0.3 2.2-0.5 1.4-0.1 0.3-0.6 1.4-1.1-0.6-0.2-0.1-1.1 0-1.7-0.3-3.6 0.7-0.6 0.3-0.4 0.4-0.3 0.7-0.7 0.7-0.2 0.4-0.4 1.1-0.1 0.8-0.2 0.3-0.7 0.3-0.4-0.1-0.7-0.3-0.6-0.4-0.3 0-0.3 0.1-0.3 0.5-0.2 0-0.2-0.2-0.4-0.7-1-1.3-0.4-0.6-0.7-0.3-0.6 0.3-0.3 0.2-0.3 0-0.2-0.2-0.2-0.3-0.4-0.4 0.2-0.9-0.1-1.7-0.2-1.2-0.7-1.3-1.3-0.2-1.6-1 0.2-0.5 0.6-0.3 0.3-0.3 2-4.5 0.8-3.6 0.9-2.7-0.2-2.7-0.3-3.2-0.3-2.8-1.1-2-1-1.1-1.2-1.5-1.5-1.2-1.1-0.4 0.6-0.7 0.9 0.4 1.5 1.3 1.8 0.6 0.9 0.5 0 0.7 1.7-0.1 4 1.1 2-0.6-1.2-0.1-1.1-0.2-2.9-1.4-0.3-0.5-0.3-0.7 0-0.7 0-0.6 0.2-0.5 0.4-0.2 0-0.4-0.6-0.2-0.4-0.6-0.1-0.7 0.3-0.6-0.7-0.1-0.7 1.6-0.8 0.3 0 0.3 0.8 0.1 0.5 0.7 0 0.9-0.4 0.4-0.9-0.1-0.8-0.2-1.4-0.8-1.5-0.5-2 0.4-1.8 2 0.3 0.3-2.2 0.9-3.9 0.5-0.8 0.3-0.6 0.5-0.8 0.2-1-0.3-0.2 0-0.1-0.3 0-0.4 0.1-0.3 0.5-0.6 1.2-1.2 0.2-1.6 0-2.4-1-2.3-1.2-2-0.5-1.5 0.7-0.4 1.8-0.2 1.7-0.2 0.9 0.5 0.4 0.6 0.2 0-0.2-1 0.6-0.3 1.2-0.4 0.6 0 0-0.4 0.6-0.7 0.7-0.6 1.1-0.9 1.4-1.2 0.4-0.4 0.2 0 0.4-0.2 0.4 0.1-0.1 0.6 0.2 0.8 0.4 0.3 0.3 0.2 0.5-0.1 0.8-0.3 0.4-0.3 0.7-0.1 0.4 0 0.3 0.2 0.4 0.5 1.1 0.4 0.3 0 0.7-0.2 0.6-0.8 0.1-0.4 0.5-1.4 1.1-2.3 0.3-0.1 1 0.6 1.1 0.4 0.7-0.4 0.7-0.3 0.2 0.1-0.1 1.4 0 0.4 0 0.5 0.5 0.5 0.5 0.1 0.3 0 1.1 0.2z" title="Setúbal" data-confirmed="0" data-deaths="0" data-recovered="0" data-active="0" data-index="0"/><path d="M250.4 268.9l0.2 1.1-0.6 0.7-1.3-0.1-2.3-0.8-1.3 0.4-0.7 0-0.3-0.5-0.3-0.7-0.5-0.5-0.2-0.6 0.4-0.5 0.8-0.7 1.5-0.4 1.5-0.1 1.1 0.2 0.8 0.5 0.7 0.9 0.5 1.1z m-26.4-43.7l5.1 0.7 0.6-0.2 1-0.7 0.6-0.2 0.3 0.1 0.8 0.7 0.5 0.3 0.6-0.4 4.1-1.2 5.6-0.2 1.6 0.6 0.9 1.5 0.1 1.9-0.9 1.6-1.5 0.7-5.3 0.6-1.8 0.5-1.9 0.2-1.8-0.1-0.9 0.1-0.7 0.4-1.1-0.7-1-0.5-2.3-0.6-3.5-0.1-4.8-3.6-1.4-2 0.7-2.6 3.1-0.3 1 0.3 1.4 1.2 0.2 0.4 0.1 0.6 0.1 0.5 0.2 0.4 0.3 0.1z m-94.2-29.8l0.3 1.1-0.5 0.6-1.3 0-3.1-0.5-0.8 0.1-0.8 0.3-1.5 1.1-0.5-0.2-0.3-0.6-0.5-0.6-0.9-0.3-5.7-0.1-0.8 0.4-2.6-2.4-0.9-1.6 0-2.2 1.2-1.1 1.3-0.4 2.8 0 1.6 0.4 4 2.4 1.4 0.6 0.1 0.2 0.4 0.1 0.8 0.7 0.4 0.2 0.9 0.1 2.6 0.9 1.8 0.2 0.6 0.6z m-22.9-4.6l-0.5 0.3-0.5 0-0.9-0.3-0.5 0-1.2 0.3-0.5 0.1-0.9-0.5-1-1.5-0.8-0.8-1.9-1.1 0-0.4 1.3-0.3 1.2 0 0.5-0.1 0.5-0.3 0.4-0.4 0.6-1 0.4-0.3 3.4 1.6 1 0.9 0.5 2.2-0.3 0.1-1.2 0.6-0.4 0.2 0.5 0.6 0.3 0.1z m15.6-10.4l7.9 3 5.7 3.2 2.9 1.1 1.5 0.8 0.7 0.9-0.6 0.3-0.8 0.1-1.5-0.1-0.7-0.2-1.3-0.7-1.2-0.2-0.7-0.3-0.6-0.3-0.6-0.5-0.6-0.3-1 0.2-0.7-0.4-0.6 0.3-0.3-0.2-0.7-0.9-0.5-0.3-4.2-1.4-0.7-0.5-0.8-1.4-0.3-0.2-0.6 0.2-0.3-0.2-0.1-0.2 0-0.4-0.6-0.2-1.9-1.7-0.1-0.3 0-0.7 0.7 0.3 1.3 0.9 0.6 0.2 0.7 0.1z m47 3.7l-0.1 0.4-0.3 0.2-1.1 0.5-1-0.4-2.7 0-0.9-0.7-0.5 0.6-0.5 0-0.9-0.6-1.1-0.2-1-0.1-0.9-0.4-1-0.9-0.8-1.1-0.4-1.1-0.4-1.6 0.9-1.2 1.5-0.8 1.3-0.3 6.2 0.4 1.1 0.5 1.6 1 1.3 1.2 0.2 1-0.1 0.5 0.7 0.6 0.1 0.5-0.2 0.1-0.9 0.4-0.2 0.2-0.1 0.4 0.2 0.9z m-38.7-23l0.4 0.3 0.2-0.4 0.7 0.9 1.3 1.1 0.6 0.7 0.3 0.8-0.5 0.6-0.7 0.4-0.7 0.1-0.8 0-0.9-0.2-0.8-0.3-0.6-0.6-0.5-0.8 0.1-0.8 0.6-1.5 0.4-0.3 0.5-0.1 0.4 0.1z m-125.9-20.2l0.6 0 0.5-0.3 0.7 1 0.4 0.9 0 2.2-0.3 1.1-0.7 1.4-0.8 0.9-0.7-0.4-0.7 0.3-0.9 0.1-0.8-0.1-0.6-0.3-0.3-0.8-0.3-1 0-0.9 0.4-0.5-0.2-0.9 0.2-0.7 0.3-0.8 0.2-1 0.3-0.8 0.6-0.5 0.8-0.3 0.8 0-0.3 0.7 0.3 0.4 0.5 0.3z m3.5-8.7l-1.3 0.3-0.1-0.4-0.6-1.6-0.1-0.2 0.1-0.6 0.3-0.4 0.5-0.4 0.5 0 1.3 0.3 0.1 1.5-0.7 1.5z" title="Azores" data-confirmed="0" data-deaths="0" data-recovered="0" data-active="0" data-index="0"/><path d="M615 595.7l-0.2 0.3-0.6-0.2 0.1-0.3 0.3-0.4 0.4 0.3 0 0.3z m-25.3-110.8l0.2 1.2-1.4-2.3-0.4-0.4-0.2-0.5-0.2-0.5 0-0.5 0.7 0.6 0.7 1.1 0.6 1.3z m-22.9-14.1l1 0.1 1.1-0.2 0.8-0.5 0.6-0.3 0.8-0.2 1.6-0.2 0.6 0.3 1.2 0.9 0.5 0.2 2.1 1.5 0.4 0.3 0.5 0.1 1.5 0.1 0.7 0.2 0.7 0.3 0.3-0.2 0.5-0.1 0.4 0.1 0.4 0.2-0.7 0.2-1.4 0.7-0.5 0.1-0.5 0.4-1.3 1.6-0.2 0.4-0.7 1.5-1.7 0.6-1.9 0.1-3.2-0.3-6.6-2.7-1.5-1-1.4-1.2-1-1.3-0.4-0.9-0.1-0.8 0.3-0.7 0.6-0.2 0.2-0.3 1-1.4 0.3-0.2 0.3 0 0.3 0 0.4 0.2 0.5 0.4 0.9 1 0.4 0.3 0.3 0 0.8 0.3 1.1 0.6z m29.8-14.1l0.9 0.5 0.2-0.4 0 1.4 0.2 0.6 0.4 0.3-1.4-0.2-0.6 0-0.6 0.4-0.5 0.6-0.4 0.5-0.6 0.1-0.8-0.4 0-0.3 0.4-0.1 0.3-0.1 0.3-0.4 0.5-1.5 0.8-0.7 0.9-0.3z" title="Madeira" data-confirmed="0" data-deaths="0" data-recovered="0" data-active="0" data-index="0"/><path d="M913.7 95.4l-0.4 0.4 0 0.4-0.4 0.6-0.9 0-0.3 0.1-0.3 0.4-0.2 0.4-0.9 1.1-0.2 0.5-0.7 0.6-2.3-0.2-0.3-0.4 0-0.3 0-0.5 0.1-0.5 0.3-0.8 0.2-0.3 0.5-0.5 0.1-0.1 0.2-0.8 0-0.3 0-0.4-0.5-0.9-0.2-1-0.4 0-0.7 0.3-0.6 0.4-0.4 0.2-0.3-0.1-0.3-0.4-0.1-0.9 0-0.5 0.2-1.3-1.5-1.1-0.9 1.4-0.1 0.8-0.3 0.6-1.4-0.2-4.4-4.5 0-0.1 0.1-0.7 0.7-2.4 0.5-3.1 0.4-0.3 0 1.1 0 0.4 0.8-1.4 0.5-0.5 0.6 0.4 0.2 0 0-0.3-0.2-0.5-0.1-0.3 0.1-0.3 0.4-0.2 0.2 0.1 0.2 0.3 0.2 0.1 0.4-0.1 0.3-0.4 0.5-0.9-0.7-0.4-0.3-0.6 0.1-0.6 0.7-0.2 1-0.1 0.7-0.3 0.6-0.4 0.6-0.6-0.7 0-1 0.5-1.2 0.3-0.9-0.4-0.3-0.4-0.3-1.5 1.5-2.1-0.4-1.1 0 0.8-0.3 0.8-0.3 0.2-0.2-0.7-0.5 1-0.5 1.4-0.2 1.5-0.1 1.3-0.2 0.8-0.4 1.2-0.6 1.2-0.5 0.6 3.8-18 0-1.2 0.4-0.1 1.8-0.2 0.6 0.4 1.3-0.4 0.6-0.5 0.5 0 0.3 0.2 0.4 0.3 0.5 0.3 0.4 0 0.3-0.2 0.3-0.7 0.2-0.3 0.7-0.8 0.8 0.8 0.5 0.9 0.7 0.6 0.3 0 0.1-0.2 0-0.4-0.2-0.3 0-0.6 1-0.5 0.8 0.3 2-1.4 0.1-0.1 0.2-0.6 2.4 1.6 0.2 0.8 0 0.4 0 1.1 3 1.5 0.4 0 0.6-0.1 0.3-0.7 0.2-0.3 0.5-0.4 0.3 0 0.1 0.2 0 0.4 0 0.3-1.3 1.8-0.2 0.6-0.1 0.6 0 0.3 0.2 0.7 0.2 1.4 0.3 1 0 0.6-0.2 0.3-0.3 0.1-0.4 0-0.6-0.4-0.4-0.1-0.4 0-0.7 0.3-0.5 0.1-0.5 0-0.3-0.2-1.2 0.1 0.4 1.7 0 0.3-0.4 0.6-0.8 1.7-0.9 1-1 0.8-0.3 0.7 0 0.4 0 0.4 0.2 0.3 0.6 0.6 0.2 0.4 0.1 0.4 0.1 1.5 0.2 0.7 0.2 0.1 0.7 0.3 0.7 0.6-1.6 0.6-0.3 0.3-0.2 0.4 0 0.3 0.5 1.2 0.2 0.9 0.2 0.4 0.6 0.5 0.4 0.8-2.2 0.9-0.9 0.7 0 0.3 0 0.4 0.4 0.7 0 0.7-0.2 0.4-1.1 1.8 0.2 1.6z" title="Aveiro" data-confirmed="0" data-deaths="0" data-recovered="0" data-active="0" data-index="0"/><path d="M922.6 118.9l-0.8 1.5-0.4 0.4-0.4 0.2-0.7 0.3-0.3 0.4-0.3 0.4-0.3 0.3-0.4-0.1-1.7 0.5-0.5 0.6 0 0.5-0.2 0.2-0.3 0.5 0 0.3 0.2 0.5-1.7-0.1-0.3-0.1 0 0.2 0.1 0.4 0.1 1-0.2 0.1-0.8-0.1-0.8 0.4-0.5 0.1-1.7 0.6-0.7 0.3-0.2-0.6 0-0.4-0.3-1.2-0.1-0.6-0.5-2.2-0.6 0.2-0.6 0.4-0.3 0.1-0.6 0.1-1.9 1.5-0.8 0.3-0.4 0.1-0.8-0.2-1.8 0.8-0.4 0.8 0 0.4 0.1 1 0 0.6 0.1 0.4 0.6 0.5 0.3 0.4 0.2 0.8-0.2 0.5-0.3 0.3-0.7 0.5-0.8 0.7 0.3 1.6 0.1 0.9 0.5 1.4-0.3 0.4-1 1.4-0.3 0-0.4 0.1-0.4-0.2-0.3 0-0.1 0.2-0.1 0.4 0.1 0.4 0.3 0.7-0.1 0.6-0.6 0.4-1.9-0.2-2.6 0.2-1.2 0.5-0.5 0.6-1.3 2.6-0.4 0.5-0.3 0.2-0.8 0.2-0.8 1.5-0.2 0.6 0.2 1 0.1 1.6-1.1-0.2-0.7-0.4-0.6-0.1-0.5 0.1-0.6 0.4-0.9 1-0.9 1.6-0.8 1-0.8 0.6-0.7-0.6-0.9-3.1-0.3-0.6-0.3-0.4-0.3-0.2-0.2 0.1-0.5-0.1-0.3 0.2-1.7 1-1.5 0-0.4 0.1-0.3-1.2-0.4-1.1-1.5-1.5-0.3-0.5 0.5-0.1 1.8 0.5 2.9-2 0.7-0.6 0.8-0.1 0.5 0.6 0.5 0.1 0.4-0.5-0.3-0.6-0.6-0.7 0.6-1 0.9-1.1 0.3-0.5 1.9-1.3 0.6-0.9 0.4-0.8 0.8-1.5 0.1-0.9-0.1-1 0.5-1.4 0.3-1.9 3.1-8.5 3.6-10.6 1.3 0.6 0.3 0.2 0.6 0.3 1.3 0.3 0.4-0.1 0.4-0.3 1-0.5 2 0.2 0.8 0.1 0.9 0.2 0.4 0.3 0.7 0.6 0.4 0.6 0.4 0.2 0.4-0.1 0.3-0.2 0.6-1 0.6-0.4 0.5 0 0.3 0.1 0.3 0.3 0.2 1.2 0.1 0.5 0 0.8 0.1 0.4 0.3 0.5 0.3-0.3 0.7-0.9 1.1-0.6 1.3-1.1 0.8 0 0-0.2 0.4 0 0.3 0.2 0.5 1.2 0.4 1 0.2 0.6-0.1 0.5-0.2 0.3-0.5 0.4 0.6 0.1 1.6-0.6 1.4-1.6 0.4-0.1 0.7 0.3 0.3 0 0.2-0.3 0.1-0.4-0.1-0.3-0.7-0.7-0.1-0.6 0.7-1 1.7-1.5 1.1 0.4 1.3-1.6 0.7 0.5 0.4 0.7-0.3 1.5 0.2 0.9 1.6 2.7-0.4 0.3-0.2 0.3-0.2 0.5 0.2 0.5-0.1 0.7z" title="Leiria" data-confirmed="0" data-deaths="0" data-recovered="0" data-active="0" data-index="0"/><path d="M920.5 19.3l-0.2 0-0.5 0-3.8 2.1-0.9 0.4-3.5 0.1-0.6 0.2-0.6 0.2-0.3 0.2-0.7 0.6-0.6 0.3-0.7-0.1-0.5 0.2-0.3 0.3-0.2 0.8-0.1 0.8-0.2 0.8-0.4 0.4-0.2 0.6 0.1 0.6-0.7 1.3-0.6-0.2-0.4-0.2-0.8-0.1-1.2-0.5-0.3-0.2-0.7 0.6-0.3 0.1-2.1 0.1-2.9 1.1-0.3 0-1-0.1 0-0.7-0.4-1 0-1.2 0.1-0.6 0.9-0.3 2.4-0.5 0.7-0.3 0.7-0.5 0.5-0.5-4.4 1.3-0.9 0.2-0.5-0.1-0.8-0.5-0.7-1.7 0-1.5 0.3-2.4-0.3-1.5 0.2-0.6 0.3-0.5 2.8-2.4 1.4-1.5 0.4-2 0.5-0.3 0.9-0.5 1-0.3 0.8-0.5 0.3-0.6 0.4-1.1 0.4-0.6 0.7-0.5 0.7-0.1 1.4-0.1 0.7-0.3 1.4-0.9 0.8-0.3 6.1-1 0.7-0.4 1-0.9 0.4-0.2 0.3-0.1 0.6 0 0.8-0.3 1.2-0.9 0.3 0.5 0.4 0.8-0.1 2.3 0.1 0.9 0.5 0.4 0.6-0.2 0.7-0.3 0.8-0.1 0.8 0.4 0.6 0.6 0.3 0.7-0.1 1-0.4 0.7-0.6 0.5-1.2 0.7-1.1 1.2-1.6 2.3-0.4 0.9 0 1 0.4 1 1.5 0.6 0.3 0.4 0 0.7-0.1 1.3z" title="Viana do Castelo" data-confirmed="0" data-deaths="0" data-recovered="0" data-active="0" data-index="0"/><path d="M962.7 208l0.6 0.5 0.6 0 1-0.2 1-0.4 0.5-0.7 0.3 0.1 1-0.4 1.1-0.1 0.7 0.5-0.4 1.5-0.3 0.7-0.6 1.7-0.7 1.5-0.4 1.6-0.3 0.6-0.4 1.2-1 0.2-2.2-1-0.7 0-0.4 0.3-0.3 1.1-0.5 0.5-0.3 0.2-0.5 0.2-0.5 0.2-0.5 0-0.5-0.2-0.5 0-0.4 0.3-1.3 0.2-0.3 0.3 0.1 0.4 0.1 0.5 0 0.5-0.2 0.9-0.9 2.4-0.4 1.7-1.1 2-3.7 3.1-0.7 1-0.5 1.5-0.4 2.4-0.2 0.8-0.2 0.4-1.1 1.1-0.4 0.3 0.1 0.3-0.1 0.7-0.6 0.7 0 0.5 0.3 0.1 0.2 0.6 0.1 0.7-1 0.2-1.1 0-0.8 0.5-0.8 0.7-0.5 0.3-0.3 0.1-0.3-0.1-0.5-0.1-0.3-0.1-2-0.1-3.2 1.4-1.2 0.8-0.2 0-0.7 0.4-0.6 0.2-0.1 0.3-0.6 0.1-0.6 0.5-0.1 0.3-0.2 0.3-0.6 0.3-1.1 0.2-0.5 0-1.3 0.2-0.5 0.4-0.2 0.3 0 0.3 0.4 0.7 0 0.2-0.3 0.1-1.4 0.8-0.9 0.7-0.6 0.2-0.4 0-1.5-0.1-0.8 0-1.3-0.4-2.8-2.1-0.6-0.3-0.5-0.5-0.1-0.3-0.1-0.8-0.3-0.5-1-0.3-0.7 0.1-0.3 0.2-0.4-0.1-0.5 0-0.8 0.2-1.6 0.6-0.4 0.5-0.1 0.3-0.2 0.5-1.3 0.6-1.8-0.3-0.5-0.2-1.6-1-0.4 0-1.6 0.2-0.3 0.2-0.4 0.5-0.2 0.2-0.4-0.1-0.2-0.2-1.1-0.5-1.6 0-0.3-0.2-0.7-0.8-0.7-0.5-0.6-0.2-0.8-0.5-0.4-0.3 0.4-2 0.1-2.3-0.3-1.2-0.4-0.8-0.5-0.6-0.1-0.7 0.6-2.2 0.1-1.4 0.4-1.3 0.5-0.2 1.2-0.2 0.2-1.2-0.4 0.1-0.9 0.2-1 0.1-0.3-0.9 0.3-2.6 0.3-1.8 0.4 0.4 0.2 0.3 0.2 0.2 0.3 0 0.3-0.2 0.6-0.3 0.7 0.3 0.4 0.6 1 1.3 0.4 0.7 0.2 0.2 0.2 0 0.3-0.5 0.3-0.1 0.3 0 0.6 0.4 0.7 0.3 0.4 0.1 0.7-0.3 0.2-0.3 0.1-0.8 0.4-1.1 0.2-0.4 0.7-0.7 0.3-0.7 0.4-0.4 0.6-0.3 3.6-0.7 1.7 0.3 1.1 0 0.2 0.1 1.1 0.6 0.6-1.4 0.1-0.3 0.5-1.4 0.3-2.2-0.1-1.5-0.3-1.1-0.3-0.5-0.5-0.4-0.5 0-0.5-0.1-0.5-0.3-0.6-0.7-0.8-0.6-0.2-0.5-0.1-0.6 0.4-1.3 0.3-0.4 0.2 0 0.5 0.2 0.2-0.1 0.2-0.3 0.2-0.5 0.1-0.7 0.1-0.3 0.2-0.1 0.3-0.2 0.3-0.1 0.4 0.2 0.2 0.2 0.4 0.1 0.2-0.1 0.3-0.9 0-0.4 0.2-0.3 0.3-0.3 1.4 0.1 0.3-0.4 0.1-0.6 0.3-0.1 1.4-0.4 0.7-0.3 1.4-0.4 0.2-0.6 0-0.8-0.3-1.3-0.9-2.1 0.1-0.5 3 0.1 0.8-0.1 0.6 0.1 0.2 0.1 0.5 0.5 0.4 0.3 0.4 0.1 0.3 0 0.9-0.5 0.8 0.2 1.1 0.5 0.9 1 3.4 1.6 2 0.2 1.1 0.4 2.5 1.4 0.6 0.2 2.6 0 0.7 0.2 0.9 0.3 1.8 0 0.5-0.1 0-0.3 0.6-0.9 0.6-0.7 1.2-0.5 0-0.2 0.7-0.3 0.1-0.3 0.4-0.3 0.3-0.4 0.2-0.5 0.1-0.7 1.2-0.4 1.3-0.7 0.6-0.1 1-0.4 0.6 0 0.2 0.6 0.5 0.7 0.1 0.4 0.2 0.7 0.2 0.4 0.8 0.8 1 0.5 0.2 0.2 0.2 0.7 0.5 1.1 0.1 0.3 0.3 0.7 0.4 0.4 0.4 0.3 0.6 0.1 0.4-0.1 0.4-0.3z" title="Beja" data-confirmed="0" data-deaths="0" data-recovered="0" data-active="0" data-index="0"/><path d="M958.4 178.4l-1.8 1.4-0.4 0.9-0.1 0.4-0.3 1.7-0.1 1.2 0.1 0.9 0.2 0.3 0.5 0.3 0.1 0.4-0.2 0.7-1.6 2.5-0.8 2.5-0.4 0.6 0.5 0.7 0 0.6-0.4 0.5-0.6 0.6 0.6 0.3 1.1 0.9 4.2 5.4 0.2 0.3 0.2 0.7 0.2 0.3 0.3 0.3 0.6 0.5 0.2 0.2 1.7 4.1 0.3 0.4-0.4 0.3-0.4 0.1-0.6-0.1-0.4-0.3-0.4-0.4-0.3-0.7-0.1-0.3-0.5-1.1-0.2-0.7-0.2-0.2-1-0.5-0.8-0.8-0.2-0.4-0.2-0.7-0.1-0.4-0.5-0.7-0.2-0.6-0.6 0-1 0.4-0.6 0.1-1.3 0.7-1.2 0.4-0.1 0.7-0.2 0.5-0.3 0.4-0.4 0.3-0.1 0.3-0.7 0.3 0 0.2-1.2 0.5-0.6 0.7-0.6 0.9 0 0.3-0.5 0.1-1.8 0-0.9-0.3-0.7-0.2-2.6 0-0.6-0.2-2.5-1.4-1.1-0.4-2-0.2-3.4-1.6-0.9-1-1.1-0.5-0.8-0.2-0.9 0.5-0.3 0-0.4-0.1-0.4-0.3-0.5-0.5-0.2-0.1-0.6-0.1-0.8 0.1-3-0.1-0.1 0.5-1.5-1.2-0.8-0.3-0.3 0.1-0.8-0.2-0.8-0.5-0.6-0.5-0.8-0.3-0.3-0.1 0-0.4 0.7-1.2 0.1-0.9-0.2-0.4-0.3-0.2-0.5-0.2-0.2-0.3 0-0.3 0.1-0.2 0-0.3-0.5-1.4-0.1-0.5-0.2-0.3-0.5-0.5-0.8-1-0.3-0.2-0.7 0.2-1 0.6-0.5 0.2-1.2 0-0.5-0.1-0.6-0.5-0.1-0.3-0.3-0.2-0.3 0-0.2 0.1 0.2 0.6-0.1 0.3-0.2 0.1-1-0.3-1.2-0.2-1.5-0.9-1.2-0.1-0.2-1.3-0.1-0.4-0.2-0.3 0-0.9 1.4-1.8 3.3-2.4 0.7-0.7 0.3-0.5 0.1-0.7-0.1-0.3 0.5-0.8-0.1-0.5-0.3-0.2-1.6-0.3 1.9-1.6 1.7-0.4 0.4-0.3 0.9-0.8 0.4-0.1 0.4 0 0.5-0.2 0.4-0.4 0.2-0.6 0.2 0 0.7 0.3 0.6 0 0.4-0.2 0.6 0.1 0.3-0.1 0.2-0.5 0.3 0 0.2 0.2 1.1 1.1 0.4 0.3 1.2 0.2 0.4 0.2 0.3 0.3 0.3 0.8 0.4 0 0.2 0.1 0.3 0.6 0.1 0.3 0.7 0.3 0.7-0.6 0.2-0.7-0.1-0.5-0.2-0.3-0.7-0.2-0.6-0.7-0.3-0.4 0-0.4 0.2-0.9-0.2-0.4-0.1-0.1-0.5-0.1-2.1-0.9-0.6-0.5 0-0.4 0.1-0.3 0.5-0.6 0.1-0.5 0.1-0.5 0-0.9 0.2-0.4 0.1-0.3 0.8-0.1 0.2-0.2 0.4-0.7 0.8-0.7 0.6-0.2 0.3-0.2 0.3-0.1 1.1-0.1 0.6 0.3 0 0.2-0.1 0.4-0.1 0.6 0.1 0.7 0.3 0.3 0.2-0.1 0.1-0.3 0-0.3 0.2-0.4 0.5-0.2 0.6-0.1 0.3 0.1 0.3 0.2 0.9 0.9 0.1 0.4 0 0.8 0 0.6 0.1 0.1 1 0.1 0.3-0.1 0.6-0.4 0.3-0.3 0.6-0.4 0.9-0.2 0.4 0.4 1.8 2.4 1.1 0.8 0.5 0.1 0.7-0.1 0.9 0.1 1.3-0.5 0.3-0.4 0.7-0.8 0.3 0 0.6 0.4 0.3 0.1 0.4-0.2 0.4 0 0.4 0 0.9 0.4 0.5-0.2 0.2-0.2 0.5-0.7 0.5-0.5 0.6-0.2 0.8-0.2 0.6-0.2 0.4-0.3 0.2-0.3 0-0.4-0.5-0.6 0.6-0.4 0.3 0 0.2 0.5 1.6 0.6 0.7 0.7 0.2 0.5 0.1 0.8 0.1 0.3 0 0.6 0.9 0.8 0.3 1 0.1 0.7 0.6 0.8-0.2 0.8 0.2 0.4 0.6 1 0.3 0.3 0.6 0.3 0.7 0 0.2 0.1 0.6-0.2 0.8-0.8 0.9-0.8 1.1-0.4 0.8 0 0.4 0.2 0.5 0.4 0.1 0.3 0.1 0.7-0.1 0.3-0.6 1-0.1 0.2 0 0.5 0.3 0.4z" title="Évora" data-confirmed="0" data-deaths="0" data-recovered="0" data-active="0" data-index="0"/><path d="M933.2 268.4l-0.8 0.5-1 0.3-1.1-0.1-0.9-0.3 0-0.4 2 0.3 0.8-0.3 1-1 0.2 0.7-0.2 0.3z m-0.8-0.6l-0.6 0.2-0.4-0.5 0.3 0 0.4-0.1 0.3 0.4z m-36.9-22.8l0.4 0.3 0.8 0.5 0.6 0.2 0.7 0.5 0.7 0.8 0.3 0.2 1.6 0 1.1 0.5 0.2 0.2 0.4 0.1 0.2-0.2 0.4-0.5 0.3-0.2 1.6-0.2 0.4 0 1.6 1 0.5 0.2 1.8 0.3 1.3-0.6 0.2-0.5 0.1-0.3 0.4-0.5 1.6-0.6 0.8-0.2 0.5 0 0.4 0.1 0.3-0.2 0.7-0.1 1 0.3 0.3 0.5 0.1 0.8 0.1 0.3 0.5 0.5 0.6 0.3 2.8 2.1 1.3 0.4 0.8 0 1.5 0.1 0.4 0 0.6-0.2 0.9-0.7 1.4-0.8 0.3-0.1 0-0.2-0.4-0.7 0-0.3 0.2-0.3 0.5-0.4 1.3-0.2 0.5 0 1.1-0.2 0.6-0.3 0.2-0.3 0.1-0.3 0.6-0.5 0.6-0.1 0.1-0.3 0.6-0.2 0.7-0.4 0.2 0 1.2-0.8 3.2-1.4 2 0.1 0.3 0.1 0.5 0.1 0.3 0.1 0.3-0.1 0.5-0.3 0.8-0.7 0.8-0.5 1.1 0 1-0.2 0.4 0.5 0.3 0.4 0.6 0.5 0.3 0.3 0.2 1 0.3 1.2 0.1 1.1-0.1 0.6 0.7 1.5 0.3 4 0.4 1.7-0.3 0.7 0.2 1.1 0.6 2.2 0.3 0.7 0.3 0.1 0 0.3-0.3 0.3-0.7-0.5-0.8-0.2-0.9 0-0.9 0.1-0.9 0.3-1.6 1.1-0.6 0.3-2.4 1.5-0.3 0.4-6 4.1-1.3 1.2-0.6 0-0.6-0.3-0.8-0.1-2.5-0.1-0.7-0.2-0.3 0.5-0.5 0-0.8-0.5 0.3 0.6 0.2 0.3 0 0.4-0.9-1.3-1.4-1.2-2.8-1.6-1.7-0.3-1.2-0.6-1.4 0-3.2 0.5-2.8-1-1.2 0.5-1.8 0.2-1.7-0.6-0.1 0.1-2.1-1.2-1.7-0.3-1.8 0.1-0.6 0.2-0.5 0.4-1.3 1.3-2.4 0-0.5 0.2-1.1 0.6-0.5 0.3-0.6 0-0.9 0.2-0.9 0.8-0.8-0.3-0.7 0.7-0.3 0.3-0.4 0.1-0.8 0.7-0.4 0.2-0.6-0.2-0.5-0.5-0.4-0.3-0.6 0.3 0.3-1.4 0.2-0.7 1.7-2.8 1.2-2.5-0.4-1.5 0.7-0.7 0.9-0.9 0.6-2.3-0.6-1.6 0.6-1.3 1.1-1.2 0.2-1.3 0.7-1.6 0.4-1.6z" title="Faro" data-confirmed="0" data-deaths="0" data-recovered="0" data-active="0" data-index="0"/><path d="M885.6 174.9l-0.7 0.8-0.3-0.1 0.4-0.9 0.4-0.7 0.4-0.5 0.6-0.5 0 0.3-0.2 0.8-0.6 0.8z m2.1-1.4l-0.6 0.2-0.3-0.4 0.2-0.7 0.3-0.2 0.3 0.2 0.2 0.4-0.1 0.5z m-0.7-1.7l-0.3 0.3 0.1-0.8 0.3-0.8 0.2 0.3-0.3 1z m3.9 6l-0.4-0.1-0.4 0.2 0-0.3-0.4-0.7-0.5-1-0.2-1.1 0.3-0.8-0.9 0.1-0.5-0.8-0.2-1.3-0.3-1.2 1.6-3.6 1.1-1.6 1.4-1.1 0.8-0.2 1.7-0.1 0.7-0.3 1.5-1.1 0 0.3-0.3 0.3-0.8 1-1.5 0.4 0.1 0.4 0.5 0.4-0.8 1.1-0.2 0.6-0.4 0.5-0.4 0.8-1.4 3.8-0.6 1.1-0.2 0.4-0.6 0.6 0 0.7 0.7 0.8 0.3 0.6 0.3 1.2z m-2.9-26.8l0.5 1.3-0.1 0.7 2.8 0.8 1.6-0.5 0.3 0.8 2 2-0.5 0.5-0.7 0.2-1.2-0.1-0.4 0.2-0.6 0.4 0 0.3 0.2 0.3 0.6 0.3 0.3 0.7 0.2 0.3 1.1 1.1 0.3 0.2 0.8 0.3 0.2 0.2 0.4 0.5 0.3 0.7-1.8 1.3-3.4 0.4-0.5 0.4-0.8 1.5-1.9 2.8-2.2 4.4-1.3 1.4-0.4 0.7-0.2 0.8 0.1 1 0 1.7 0.2 1.2-0.6 1.2-2 0.6-2.2 0.4-2.6-0.2-0.8 0.6-0.7 0.8-1.5-0.9-1.8-0.8-1-0.1-1.7 0.2-0.8-0.3 0.1-1 0.2-0.9-0.5-2.2 0-1.1 0.2-0.5 0.5-0.5 1-1.1 1.3-4.1-0.1-3.1-0.5-1.9 0.4-1.2 0.2-1.3 1.5-2.9 0.5-1.4 0.9-1.8 0.1-2 0.3-1.6-0.3-1.3 0.4-0.1 1.5 0 1.7-1 0.3-0.2 0.5 0.1 0.2-0.1 0.3 0.2 0.3 0.4 0.3 0.6 0.9 3.1 0.7 0.6 0.8-0.6 0.8-1 0.9-1.6 0.9-1 0.6-0.4 0.5-0.1 0.6 0.1 0.7 0.4 1.1 0.2z" title="Lisboa" data-confirmed="0" data-deaths="0" data-recovered="0" data-active="0" data-index="0"/><path d="M945.3 131.5l0.3 0.7 1.3 3.6 0.7 0.7 1.2 1.6 0.6 0.6 1.4 0.7 0.3 0.5 0.4 1.1 0.6 0.5 0.9 0.4 1.6 0.5 0.3 0.5 0 1.1-0.2 1.2-0.3 0.7-0.2 0.7 0 1.2 0.2 1.1 0.3 0.6 0.7 0.6 2 2.4-0.5 0.9-0.1 1.1 0.3 1 0.6 0.9 1 0.5 1.1 0.3 0.9 0.4 0.5 1-0.1 0.5-0.4 1 0 0.5 0.4 0.4 0.6 0.3 0.6 0.1 0.5-0.2 1-0.6 1-0.1 1.1 0.3 0.9 0.6 0.6 0.6 0.6 1 0.2 1-0.3 0.8 0.5 0.4 0.1 0.5-0.3 0.5-0.3 0.5-1.4 2.6-0.9 1.3-0.8 0.7 0.5 1-0.2 0.8 0.1 0.7-0.4 0.2-0.4 0.4-0.5 0.5-0.7 0.3-1.8 0.4-0.4 0.4-0.2 0.4-0.6 0.7-0.6 0.5-0.6 0.3-0.6 0.5-0.3-0.4 0-0.5 0.1-0.2 0.6-1 0.1-0.3-0.1-0.7-0.1-0.3-0.5-0.4-0.4-0.2-0.8 0-1.1 0.4-0.9 0.8-0.8 0.8-0.6 0.2-0.2-0.1-0.7 0-0.6-0.3-0.3-0.3-0.6-1-0.2-0.4 0.2-0.8-0.6-0.8-0.1-0.7-0.3-1-0.9-0.8 0-0.6-0.1-0.3-0.1-0.8-0.2-0.5-0.7-0.7-1.6-0.6-0.2-0.5-0.3 0-0.6 0.4 0.5 0.6 0 0.4-0.2 0.3-0.4 0.3-0.6 0.2-0.8 0.2-0.6 0.2-0.5 0.5-0.5 0.7-0.2 0.2-0.5 0.2-0.9-0.4-0.4 0-0.4 0-0.4 0.2-0.3-0.1-0.6-0.4-0.3 0-0.7 0.8-0.3 0.4-1.3 0.5-0.9-0.1-0.7 0.1-0.5-0.1-1.1-0.8-1.8-2.4-0.4-0.4-0.9 0.2-0.6 0.4-0.3 0.3-0.6 0.4-0.3 0.1-1-0.1-0.1-0.1 0-0.6 0-0.8-0.1-0.4-0.9-0.9-0.3-0.2-0.3-0.1-0.6 0.1-0.5 0.2-0.2 0.4 0 0.3-0.1 0.3-0.2 0.1-0.3-0.3-0.1-0.7 0.1-0.6 0.1-0.4 0-0.2-0.6-0.3-1.1 0.1-0.3 0.1-0.3 0.2-0.6 0.2-0.8 0.7-1.8-0.5-0.5-0.5-0.3-0.8-0.2-0.5-0.5-0.4-0.2-0.4-0.3-0.9-0.3-0.4-0.5-0.2-0.9-0.5 0-0.8 1.2-1.9 0.5-0.5 2.2-1.6 2.4-2.2 0.9-0.8 0.5-1 0.5-0.5 0.4-0.2 0.7 0.2 0.6-0.2 0.3-0.2 0.3-0.5 1-1.1 0.5-0.9 0.2-0.4 0.2-0.7 0.2-0.3 1.9-1.3 0.8-1.2 0-0.3-0.2-0.4-0.6-0.5-1.6-1.6 0.8-2.3 0.9-1.2 0.7-0.7 0.5-0.2 0.8 0.2 1.6 0.9 0.6 0.6 0.4-0.2 0.8-1 0.2-0.2 0.9-0.5 0.6-0.6 0.5-0.8 0.7-0.7 0.7-0.3 0.3-0.4 0.4-0.8 0.5-0.8 0.6-0.5 0.9 0.1 0.7 0.3 0.7 0.1 0.9-0.7 0.5-0.5 0.7-0.5 0.8-0.2 0.4 0.1z" title="Portalegre" data-confirmed="0" data-deaths="0" data-recovered="0" data-active="0" data-index="0"/><path d="M916.5 125.4l0.2 0.8 0.4 0.3 0.6 0.1 0.4 0.2 0.3 0.3 0.1 0.6 0 0.5 0.1 0.9-0.3 0.5 0 1 0.2 1.8 0.3 0.7 2.3 0.9 1 0.7 0.8 0 1.4-0.1 0.9-0.3-0.1-0.6-0.3-0.9 0-0.5 0.2-0.7 0.3-0.5 0.4-2.6 0.2-0.4 0.9-0.2 1.2 0.5 1 0 0.2 0.2 0.2 0.7 0.1 0.8 0 0.8 0 0.8 0.1 0.4 0.3 0.1 0.4 0.2 0.5 0 0.8 0.3 0.6 0.5 0.7 0.5 0.8 0.9 0.9 1.3 0.1 0.4 0.3 0.9 0.4 0.5-0.9 0.5-0.2 0.2-0.8 1-0.4 0.2-0.6-0.6-1.6-0.9-0.8-0.2-0.5 0.2-0.7 0.7-0.9 1.2-0.8 2.3 1.6 1.6 0.6 0.5 0.2 0.4 0 0.3-0.8 1.2-1.9 1.3-0.2 0.3-0.2 0.7-0.2 0.4-0.5 0.9-1 1.1-0.3 0.5-0.3 0.2-0.6 0.2-0.7-0.2-0.4 0.2-0.5 0.5-0.5 1-0.9 0.8-2.4 2.2-2.2 1.6-0.5 0.5-1.2 1.9 0 0.8 0.9 0.5 0.5 0.2 0.3 0.4 0.3 0.9 0.2 0.4 0.5 0.4 0.2 0.5 0.3 0.8 0.5 0.5 1.8 0.5-0.4 0.7-0.2 0.2-0.8 0.1-0.1 0.3-0.2 0.4 0 0.9-0.1 0.5-0.1 0.5-0.5 0.6-0.1 0.3 0 0.4 0.6 0.5 2.1 0.9 0.5 0.1 0.1 0.1 0.2 0.4-0.2 0.9 0 0.4 0.3 0.4 0.6 0.7 0.7 0.2 0.2 0.3 0.1 0.5-0.2 0.7-0.7 0.6-0.7-0.3-0.1-0.3-0.3-0.6-0.2-0.1-0.4 0-0.3-0.8-0.3-0.3-0.4-0.2-1.2-0.2-0.4-0.3-1.1-1.1-0.2-0.2-0.3 0-0.2 0.5-0.3 0.1-0.6-0.1-0.4 0.2-0.6 0-0.7-0.3-0.2 0-0.2 0.6-0.4 0.4-0.5 0.2-0.4 0-0.4 0.1-0.9 0.8-0.4 0.3-1.7 0.4-1.9 1.6-1.1-0.2-0.3 0-0.5-0.1-0.5-0.5 0-0.5 0-0.4 0.1-1.4-0.2-0.1-0.7 0.3-0.7 0.4-1.1-0.4-1-0.6-0.3 0.1-1.1 2.3-0.5 1.4-0.1 0.4-0.6 0.8-0.7 0.2-0.3 0-1.1-0.4-0.4-0.5-0.3-0.2-0.4 0-0.7 0.1-0.4 0.3-0.8 0.3-0.5 0.1-0.3-0.2-0.4-0.3-0.2-0.8 0.1-0.6-0.3-1.2-0.3-0.6-0.7-0.8 0-0.7 0.6-0.6 0.2-0.4 0.6-1.1 1.4-3.8 0.4-0.8 0.4-0.5 0.2-0.6 0.8-1.1-0.5-0.4-0.1-0.4 1.5-0.4 0.8-1 0.3-0.3 0-0.3 0.6-0.7 0.4-0.7-1.1 0.8-0.3-0.7-0.4-0.5-0.2-0.2-0.8-0.3-0.3-0.2-1.1-1.1-0.2-0.3-0.3-0.7-0.6-0.3-0.2-0.3 0-0.3 0.6-0.4 0.4-0.2 1.2 0.1 0.7-0.2 0.5-0.5-2-2-0.3-0.8-1.6 0.5-2.8-0.8 0.1-0.7-0.5-1.3-0.1-1.6-0.2-1 0.2-0.6 0.8-1.5 0.8-0.2 0.3-0.2 0.4-0.5 1.3-2.6 0.5-0.6 1.2-0.5 2.6-0.2 1.9 0.2 0.6-0.4 0.1-0.6-0.3-0.7-0.1-0.4 0.1-0.4 0.1-0.2 0.3 0 0.4 0.2 0.4-0.1 0.3 0 1-1.4 0.3-0.4-0.5-1.4-0.1-0.9-0.3-1.6 0.8-0.7 0.7-0.5 0.3-0.3 0.2-0.5-0.2-0.8-0.3-0.4-0.6-0.5-0.1-0.4 0-0.6-0.1-1 0-0.4 0.4-0.8 1.8-0.8 0.8 0.2 0.4-0.1 0.8-0.3 1.9-1.5 0.6-0.1 0.3-0.1 0.6-0.4 0.6-0.2 0.5 2.2 0.1 0.6 0.3 1.2 0 0.4 0.2 0.6 0.7-0.3 1.7-0.6 0.5-0.1 0.8-0.4 0.8 0.1 0.2-0.1-0.1-1-0.1-0.4 0-0.2 0.3 0.1 1.7 0.1z" title="Santarém" data-confirmed="0" data-deaths="0" data-recovered="0" data-active="0" data-index="0"/><path d="M928.6 42.8l-0.2 0.8-0.4 0.4-0.5 0.4-0.3 0.4-0.3 0.3-0.3 0.1-0.4 0-0.5-0.3-0.8-0.5-0.5 0.1-1.2-0.6-1.5-1.1 0.1-0.4-0.1-0.4-0.8-0.8-2-0.7-0.6 0.9-0.8 0.6-1.2 0.6-0.3 0-1 0.4-0.2 0-0.6-0.4-0.3-0.1-1.6 0.2-1.2 0.3-1-0.1-0.6-0.4-0.5 0-0.7 0.2-0.7 0.4-0.6 0.6-0.7 0.1-2.2 0-0.5 0.1-0.3-0.1-0.2-0.4-0.3-1.1 0.3-0.4 0.6-0.3 0.2-0.3-0.2-0.3-0.4-0.3-0.4-0.2-0.6-0.3-1.2-1.3-0.4-0.1-1-0.1-1.1-0.5-0.9-0.5-0.9 0 0-0.1-0.5-1.2-0.1-1.1-0.1-0.7-0.1-0.9-0.6-1.7-0.1-1.1-0.3-0.9 0-0.3 1 0.1 0.3 0 2.9-1.1 2.1-0.1 0.3-0.1 0.7-0.6 0.3 0.2 1.2 0.5 0.8 0.1 0.4 0.2 0.6 0.2 0.7-1.3-0.1-0.6 0.2-0.6 0.4-0.4 0.2-0.8 0.1-0.8 0.2-0.8 0.3-0.3 0.5-0.2 0.7 0.1 0.6-0.3 0.7-0.6 0.3-0.2 0.6-0.2 0.6-0.2 3.5-0.1 0.9-0.4 3.8-2.1 0.5 0 0.2 0 0 0.1 3.4 0.2 1.7-0.5 0.1 0.1-0.1 0.6-0.4 0.7-0.2 1.5-0.4 0.7-0.4 1.1-0.4 0.8-0.9 1.1 0.6 0 0.5-0.1 0.5-0.1 0.7 0 0.3 0 0.7-0.3 0.5 0.1 1.1 0.7 0.2 0.1 0.1 0.4-0.3 1.1-0.1 2.4 0.8 0.4 0.4 0.1 0.8 0.3 1.5 0.3 0.5 0.1 1.2-0.4 0.8-0.9 0.4 0.2 0.3 0.2 0.6 1.2-0.1 0.7-1.6 2.4-0.4 0.5-0.8 0.3-0.1 0.2-0.2 0.6-0.4 0.4-0.4-0.1-0.4 0.2-0.3 0.5-0.4 1.3 0.2 0.4-0.2 0.6-0.6 1-0.1 0.4-0.3 0.2-0.1 0.1 0.1 0.7-0.3 0.9z" title="Braga" data-confirmed="0" data-deaths="0" data-recovered="0" data-active="0" data-index="0"/><path d="M970.3 59.9l-0.7-0.2-1.7-0.1-3.5-1.8-0.4-0.5-0.3-0.7-0.2-0.7 0-0.5 0.2-0.5 0-0.4-0.7-0.2-0.2-0.1-0.4-0.5 0.2-0.3 0.3-1.1-0.4 0.2-1.5 1-0.4 0.6-0.8 0-1.3-0.4-3.1 0.3-1 0.1-1.3-0.5-0.5-0.4-1.2-1.8-0.6-0.4-0.6 0 0.3-1 0.2-0.3 0.4-0.1 0.5-0.1 0.2-0.1-0.1-0.6 0-0.5 0.2-0.7 0.3-0.5 0.4-0.4 0.1-0.2-0.1-0.3 0.1-0.6 0.7-0.7 1.4-0.5-1-0.6-0.3-0.4-0.3-0.7-0.2-1.1 0-2.6 1.3-1 0.3-0.1 0.4-0.2 0.3-0.5 0.3-0.8 0.5-0.9 0.4-0.5 0.4-0.1 0.3-0.1 0.7-0.2 0.1-0.3-0.1-0.3-0.1-0.4-0.4-0.7-0.2-0.4 0-0.7 0.2-1.4 1.2-4.5 1-2.1 0.4-0.3 0.2-0.1 0.2-0.3 0.1-0.3 0-1.2-0.7-1-0.4-1-0.1-0.5-0.1-1 0.1-1 0.1-0.6-0.3-1.3 0.4-0.7 0.1-0.8-0.2-1.8 0-0.7 0.3-0.3 0.6-0.5 0.7-0.4 0.6-0.1 1.3 0.8 1.2 1.1 1.3 0.5 1.4-0.6 0.9-0.7 0.9 0.5 1 0.8 1.1 0.2 2.5-0.2 0.9-0.6 0.3-1.6 1.2 0.2 1.4 2.3 1.2 0.3 2.9-0.1 1.3-0.4 0.5-1.1 1 0.4 0.5 0.6 0.2 0.9-0.3 2.3 0.3 0.4 0.7 0.1 1 0.3-0.4 1-1 4.4-0.2 0.5-0.2 0.5-0.3 0.5 0.1 0.4 0.3 0.5 0.2 0.5 0.1 1 0.2 1 0.5 0.9 1.2 0.4 0.4-0.1 0.6-0.3 0.5-0.4 0.6-0.6 0.5 0 3.2 0.7 2 0.7 1.8 1.2 1.6 1.8 0.6 0.8 0.4 0.5-1.9 2.8-1 1.1-0.3 0.5 0 0.4 0.2 0.4-0.1 0.4-1.5 2.4 0 0.5-1.2 0.1-0.6 0.2-0.4 0.4 0 0.7-0.1 0.3-0.2 0.1-0.4-0.1-0.2 0-1.3 2.1-1.2 1.3-1.3 1-2.4 1-0.3 0.3-2.6 0-0.7 0.2-0.5 0.5-1.4 2.1-0.3 0.8-0.2 0.4-1.4 1.3-0.6 0.6-0.1 0.4 0.1 1.3-0.3 1-1.6 2.3-0.6 0.6-1 0.1-2.5-0.2-0.8 0.4z" title="Bragança" data-confirmed="0" data-deaths="0" data-recovered="0" data-active="0" data-index="0"/><path d="M969.7 101.5l-0.5 0.1-1.7 1.1-0.7 0.3-0.4 0.5-0.4 1.2-0.3 0.6 0.3 0.8 0.3 1.8 0.5 0.7 0.5 0.1 1 0.2 0.4 0.1 0.5 0.4 0.5 0.9 0.9 1.1 1.6 2.9-0.7 1.2-0.2 0.5 0.1 0.6-0.2 0.4-0.2 1.3-0.1 0.2-0.4 0.3-0.1 0.2 0 0.3 0.1 0.6-0.1 0.7 0 0.9-0.1 0.5-1 1.5-0.4 0.2-0.9 0.4-0.3 0.2-0.3 0.7 0 0.6 0.2 0.5 0.1 0.4-0.2 0.5-0.4 0.8-0.2 0.5 0 0.5 0.1 0.4 0 0.3-0.4 1.2-0.6 0.2-5.9 0.7-1.2 0-0.9-0.6-0.7 0.3-1.5-0.1-0.8 0.2-0.6 0.2-0.6 0.2-8.6-0.4 0.1 0.1-0.4-0.1-0.8 0.2-0.7 0.5-0.5 0.5-0.9 0.7-0.7-0.1-0.7-0.3-0.9-0.1-0.6 0.5-0.5 0.8-0.4 0.8-0.3 0.4-0.7 0.3-0.7 0.7-0.5 0.8-0.6 0.6-0.4-0.5-0.3-0.9-0.1-0.4-0.9-1.3-0.8-0.9-0.7-0.5-0.6-0.5-0.8-0.3-0.5 0-0.4-0.2-0.3-0.1-0.1-0.4 0-0.8 0-0.8-0.1-0.8-0.2-0.7-0.2-0.2-1 0-1.2-0.5-0.9 0.2-0.2 0.4-0.4 2.6-0.3 0.5-0.2 0.7 0 0.5 0.3 0.9 0.1 0.6-0.9 0.3-1.4 0.1-0.8 0-1-0.7-2.3-0.9-0.3-0.7-0.2-1.8 0-1 0.3-0.5-0.1-0.9 0-0.5-0.1-0.6-0.3-0.3-0.4-0.2-0.6-0.1-0.4-0.3-0.2-0.8-0.2-0.5 0-0.3 0.3-0.5 0.2-0.2 0-0.5 0.5-0.6 1.7-0.5 0.4 0.1 0.3-0.3 0.3-0.4 0.3-0.4 0.7-0.3 0.4-0.2 0.4-0.4 0.8-1.5 0.6-0.7 0.1-0.3 0.5-0.3 0.5-0.1 0.5-0.5 0.9-0.2 0.6 0 0.2-0.2 0.1-0.5 0.8-0.2 0.2-0.2 0.5-0.2 0.3 0 0.4 0.2 0.2-0.1 0.5-0.8 0.3-0.2 0.3 0 0.8-0.1 0.4-0.2 0-0.3-0.1-0.7 0.1-0.4 0.5-0.6 0.9-0.4 0.6-0.1 0.5 0 0.7 0.2 0.8 0.7 0.1-1.1-0.1-0.8 0.2-0.3 0.2-0.2 0.2 0.1 0.2 0.3 0.3 0.1 0.4 0 0.8-0.6 0.3-0.3 0.2-0.3 0-0.3 0-0.7-0.2-0.5-1.1-0.8-0.7-0.8-0.4-0.3-0.2-0.4-0.2-0.6 0.1-0.5 0.9-2 0.7-0.3 0.7-0.1 0.5-0.2 1.5-1.2 1.1-0.4 1-0.7 0.9-0.9 0.8-1.1 0.9 0.3 1.4-0.2 0.4-0.4 0.2-0.3 0.3-0.7 0.1-0.4 0.5-0.9 2.1-2 1.5 1.3 0.9 0.3 0.5 0 1.3-0.4 0.8-1 0.8-0.1 0.6-0.1 0.3 0 0.5 0.2-0.3 3.1-0.5 1.4-0.7 0.8-0.4 0.5-0.1 0.4 0.1 0.3 0.4 0.3 0.6 0.3 1.9 0.4 1.8-0.7 1.9 0 0.5-0.2 0.3-0.3 0.1-0.4 0.1-0.4 0.3-0.4 0.4-0.4 0.3 0.1 0.2 0.3 0.5 1 0.4 0.4 0.9 0.1 0.9 0 0.7-0.2 0.6 0.1 1 0.5 0.6 0.4 0.6 0.7z" title="Castelo Branco" data-confirmed="0" data-deaths="0" data-recovered="0" data-active="0" data-index="0"/><path d="M894.2 107.1l0.5 0.2 1.2 0.7-0.8 0.4-0.4-0.1-0.6-0.5-0.1-0.6 0.2-0.1z m19.5-11.7l0.4 0.2 0.4 0.3 1.2 0.3 1 0.7 0.6 0.6 0.6 0.3 0.3 0.3 0.3 0 0.2-0.4 0.1-0.5 0.2-0.1 1.7-0.3 2.3 0.3 3-2.2 2.2-0.9 1.7-1.3 0.7-0.3 1-1.5 1.3-1.1 0.5-0.5 0.4-0.3 0.8-0.2 0.4 1.2 0.3 0.2 0.2 0.4 0 0.3-0.1 0.5-0.3 0.4-0.6 0.3-0.3 0.2-0.1 0.4 0.2 0.5 0.4 0.2 0.7 0.2 0.2 0.2 0 0.5 0.3 1.9 0.3 0.4 0.5 0.5 0.2 0.3-0.1 0.3-0.9 0.7-0.4 0.4-0.3 0.5-0.2 0.8-0.4 1.1 1.1 0.6 0.6 0.9-0.9 2-0.1 0.5 0.2 0.6 0.2 0.4 0.4 0.3 0.7 0.8 1.1 0.8 0.2 0.5 0 0.7 0 0.3-0.2 0.3-0.3 0.3-0.8 0.6-0.4 0-0.3-0.1-0.2-0.3-0.2-0.1-0.2 0.2-0.2 0.3 0.1 0.8-0.1 1.1-0.8-0.7-0.7-0.2-0.5 0-0.6 0.1-0.9 0.4-0.5 0.6-0.1 0.4 0.1 0.7 0 0.3-0.4 0.2-0.8 0.1-0.3 0-0.3 0.2-0.5 0.8-0.2 0.1-0.4-0.2-0.3 0-0.5 0.2-0.2 0.2-0.8 0.2-0.1 0.5-0.2 0.2-0.6 0-0.9 0.2-0.5 0.5-0.5 0.1-0.5 0.3-0.1 0.3-0.6 0.7 0.1-0.7-0.2-0.5 0.2-0.5 0.2-0.3 0.4-0.3-1.6-2.7-0.2-0.9 0.3-1.5-0.4-0.7-0.7-0.5-1.3 1.6-1.1-0.4-1.7 1.5-0.7 1 0.1 0.6 0.7 0.7 0.1 0.3-0.1 0.4-0.2 0.3-0.3 0-0.7-0.3-0.4 0.1-1.4 1.6-1.6 0.6-0.6-0.1 0.5-0.4 0.2-0.3 0.1-0.5-0.2-0.6-0.4-1-0.5-1.2-0.3-0.2-0.4 0 0 0.2-0.8 0-1.3 1.1-1.1 0.6-0.7 0.9-0.3 0.3-0.3-0.5-0.1-0.4 0-0.8-0.1-0.5-0.2-1.2-0.3-0.3-0.3-0.1-0.5 0-0.6 0.4-0.6 1-0.3 0.2-0.4 0.1-0.4-0.2-0.4-0.6-0.7-0.6-0.4-0.3-0.9-0.2-0.8-0.1-2-0.2-1 0.5-0.4 0.3-0.4 0.1-1.3-0.3-0.6-0.3-0.3-0.2-1.3-0.6 1.4-4 0.6-0.8 0.4 0.7 0.7 0.3 1.6 0.1 0-0.4-0.7-0.6-0.6-0.4-0.7-0.3-1.8-0.2-0.7-0.5-0.4-0.8 0-1.1 0.5-1.4 1.2-2.5 2.6-10.4 0.5-2.5 0 0.1 4.4 4.5 1.4 0.2 0.3-0.6 0.1-0.8 0.9-1.4 1.5 1.1-0.2 1.3 0 0.5 0.1 0.9 0.3 0.4 0.3 0.1 0.4-0.2 0.6-0.4 0.7-0.3 0.4 0 0.2 1 0.5 0.9 0 0.4 0 0.3-0.2 0.8-0.1 0.1-0.5 0.5-0.2 0.3-0.3 0.8-0.1 0.5 0 0.5 0 0.3 0.3 0.4 2.3 0.2 0.7-0.6 0.2-0.5 0.9-1.1 0.2-0.4 0.3-0.4 0.3-0.1 0.9 0 0.4-0.6 0-0.4 0.4-0.4z" title="Coimbra" data-confirmed="0" data-deaths="0" data-recovered="0" data-active="0" data-index="0"/><path d="M970.3 59.9l-0.2 1-0.4 0.7 0.1 0.6 0.4 0.6 1.2 1.4 0.6 0.9 0.8 2.1 0.4 1.2 0.3 0.4 0.6 0.2 0.4 0.3 0.2 0.7-0.1 0.6-0.7 0.2-0.1 1.4 0.2 0.9-0.1 0.5-0.1 0.6 0 1 0.1 0.7 0.5 1.7 0.3 1.8 0.1 0.9 0 0.7-0.3 0.9-0.9 1.7-0.2 0.8 0 0.9 0.4 0.5 0.4 0.5 0.4 0.7 0.3 0.9-0.1 0.7-1 1.3-0.7 1.8 0.2 1.7 0.9 1.5 1.4 1.3-0.7 1.3-0.4 0.3-1.7 1.3-0.2 0.3-0.2 0.4 0 0.9-0.1 0.3-0.8 0.5-0.7 0-0.8 0-0.3 0-0.6-0.7-0.6-0.4-1-0.5-0.6-0.1-0.7 0.2-0.9 0-0.9-0.1-0.4-0.4-0.5-1-0.2-0.3-0.3-0.1-0.4 0.4-0.3 0.4-0.1 0.4-0.1 0.4-0.3 0.3-0.5 0.2-1.9 0-1.8 0.7-1.9-0.4-0.6-0.3-0.4-0.3-0.1-0.3 0.1-0.4 0.4-0.5 0.7-0.8 0.5-1.4 0.3-3.1-0.5-0.2-0.3 0-0.6 0.1-0.8 0.1-0.8 1-1.3 0.4-0.5 0-0.9-0.3-1.5-1.3-2.1 2-0.5 0.9-0.1 0.4-0.3 0.7-0.2 0.3-0.4 0.4-1.4 0.2-0.9-0.3-0.8 1.1-0.9 0.9-1 0.7-1.1 0.4-1.5 1.2-0.5 0.2-0.7 0.1-0.7 0.3-0.6-0.9-1.1-0.6 0.4-1.1 0.2-0.8 0.3-0.5 0.4-0.4 0.9-0.7 0.1-0.3-0.2-0.3-0.5-0.5-0.3-0.4-0.3-1.9 0-0.5-0.2-0.2-0.7-0.2-0.4-0.2-0.2-0.5 0.1-0.4 0.3-0.2 0.6-0.3 0.3-0.4 0.1-0.5 0-0.3-0.2-0.4-0.3-0.2-0.4-1.2 0.4-0.4 1.2-0.2 0.4-0.1 1-0.8 1.2-0.4 1.3-0.9 1.7-0.6 2.6-0.5-0.1-1.1 0.9-2.9 0.5-0.6 0.2-1.3-0.7-1-0.8-0.5-0.5-0.8 0.5-0.6 0.1-0.3 0-0.3-0.3-0.7-1-0.8-0.4-0.4 0-0.4 0.1-0.4 0.5-0.6 0.4-0.8 0.5-1.4 0.4-0.6 0.5-0.2 1 0.1 0.4 0.1 0.6 0.5 1.8 2 0.7 0 0.4-0.6 0.9-2.1 0-0.5-0.1-0.6-0.2-0.3-0.1-1 0.4-0.3 1.6 0.4 1.2-1.2 0.4-0.9 0-0.6-0.1-0.4-0.2-0.3-0.7-0.4-0.3-0.3-0.3-0.6-0.1-0.3 0.2-0.2 0.9 0 0.5-0.3-0.2-1.4 0.2-1 0.3-1.6 1-3.4 3.1-0.3 1.3 0.4 0.8 0 0.4-0.6 1.5-1 0.4-0.2-0.3 1.1-0.2 0.3 0.4 0.5 0.2 0.1 0.7 0.2 0 0.4-0.2 0.5 0 0.5 0.2 0.7 0.3 0.7 0.4 0.5 3.5 1.8 1.7 0.1 0.7 0.2z" title="Guarda" data-confirmed="0" data-deaths="0" data-recovered="0" data-active="0" data-index="0"/><path d="M928.6 42.8l0.6 0.9 0 0.4 0.1 0.5 0.2 0.4 0.6 0.4 1.1 0.8-0.2 0.7 0.2 0.8 0.7 1.2 0.7 0.5-0.6 2.1-0.1 1.3-0.2 1.2-1.7 1.1-4.9 1.7-1.1 0.1-4-0.3-1.3 0.3-2.6 1.1-0.2 0.6-0.1 0.1-2 1.4-0.8-0.3-1 0.5 0 0.6 0.2 0.3 0 0.4-0.1 0.2-0.3 0-0.7-0.6-0.5-0.9-0.8-0.8-0.7 0.8-0.2 0.3-0.3 0.7-0.3 0.2-0.4 0-0.5-0.3-0.4-0.3-0.3-0.2-0.5 0-0.6 0.5-1.3 0.4-0.6-0.4-1.8 0.2-0.4 0.1 0-0.7-0.4-3.5 0-1.9 0.7-0.7 0-0.4-1.5-0.3-0.8-1.5-0.5-1.8-0.7-1.5 0.2-0.7-0.1-0.6-0.2-0.6-0.2-0.6 0-1.6-0.2-0.6-0.3-0.1-0.3-1.1-0.6-1-0.2-0.7 0-0.7-0.1-1.5 0.5-1.7 0.9 0 0.9 0.5 1.1 0.5 1 0.1 0.4 0.1 1.2 1.3 0.6 0.3 0.4 0.2 0.4 0.3 0.2 0.3-0.2 0.3-0.6 0.3-0.3 0.4 0.3 1.1 0.2 0.4 0.3 0.1 0.5-0.1 2.2 0 0.7-0.1 0.6-0.6 0.7-0.4 0.7-0.2 0.5 0 0.6 0.4 1 0.1 1.2-0.3 1.6-0.2 0.3 0.1 0.6 0.4 0.2 0 1-0.4 0.3 0 1.2-0.6 0.8-0.6 0.6-0.9 2 0.7 0.8 0.8 0.1 0.4-0.1 0.4 1.5 1.1 1.2 0.6 0.5-0.1 0.8 0.5 0.5 0.3 0.4 0 0.3-0.1 0.3-0.3 0.3-0.4 0.5-0.4 0.4-0.4 0.2-0.8z" title="Porto" data-confirmed="0" data-deaths="0" data-recovered="0" data-active="0" data-index="0"/><path d="M955.4 54l-1 3.4-0.3 1.6-0.2 1 0.2 1.4-0.5 0.3-0.9 0-0.2 0.2 0.1 0.3 0.3 0.6 0.3 0.3 0.7 0.4 0.2 0.3 0.1 0.4 0 0.6-0.4 0.9-1.2 1.2-1.6-0.4-0.4 0.3 0.1 1 0.2 0.3 0.1 0.6 0 0.5-0.9 2.1-0.4 0.6-0.7 0-1.8-2-0.6-0.5-0.4-0.1-1-0.1-0.5 0.2-0.4 0.6-0.5 1.4-0.4 0.8-0.5 0.6-0.1 0.4 0 0.4 0.4 0.4 1 0.8 0.3 0.7 0 0.3-0.1 0.3-0.5 0.6 0.5 0.8 0.8 0.5 0.7 1-0.2 1.3-0.5 0.6-0.9 2.9 0.1 1.1-2.6 0.5-1.7 0.6-1.3 0.9-1.2 0.4-1 0.8-0.4 0.1-1.2 0.2-0.4 0.4-0.8 0.2-0.4 0.3-0.5 0.5-1.3 1.1-1 1.5-0.7 0.3-1.7 1.3-2.2 0.9-3 2.2-2.3-0.3-1.7 0.3-0.2 0.1-0.1 0.5-0.2 0.4-0.3 0-0.3-0.3-0.6-0.3-0.6-0.6-1-0.7-1.2-0.3-0.4-0.3-0.4-0.2-0.2-1.6 1.1-1.8 0.2-0.4 0-0.7-0.4-0.7 0-0.4 0-0.3 0.9-0.7 2.2-0.9-0.4-0.8-0.6-0.5-0.2-0.4-0.2-0.9-0.5-1.2 0-0.3 0.2-0.4 0.3-0.3 1.6-0.6-0.7-0.6-0.7-0.3-0.2-0.1-0.2-0.7-0.1-1.5-0.1-0.4-0.2-0.4-0.6-0.6-0.2-0.3 0-0.4 0-0.4 0.3-0.7 1-0.8 0.9-1 0.8-1.7 0.4-0.6 0-0.3-0.4-1.7 1.2-0.1 0.3 0.2 0.5 0 0.5-0.1 0.7-0.3 0.4 0 0.4 0.1 0.6 0.4 0.4 0 0.3-0.1 0.2-0.3 0-0.6-0.3-1-0.2-1.4-0.2-0.7 0-0.3 0.1-0.6 0.2-0.6 1.3-1.8 0-0.3 0-0.4-0.1-0.2-0.3 0-0.5 0.4-0.2 0.3-0.3 0.7-0.6 0.1-0.4 0-3-1.5 0-1.1 0-0.4-0.2-0.8-2.4-1.6 2.6-1.1 1.3-0.3 4 0.3 1.1-0.1 4.9-1.7 1.7-1.1 2.1-1.3 0.8-0.1 0.6 0.2 0.9 0.9 0.5 0.4 0.7 0.2 0.7 0.1 0.8-0.2 0.7-0.2 1.1-0.8 0.6-0.3 0.8-0.1 1.7 0.2 1.8-0.2 4.7-1.8 0.6 0 0.6 0.4 1.2 1.8 0.5 0.4 1.3 0.5 1-0.1z" title="Viseu" data-confirmed="0" data-deaths="0" data-recovered="0" data-active="0" data-index="0"/><path d="M959.1 15.2l0.3 1.3-0.1 0.6-0.1 1 0.1 1 0.1 0.5 0.4 1 0.7 1 0 1.2-0.1 0.3-0.2 0.3-0.2 0.1-0.4 0.3-1 2.1-1.2 4.5-0.2 1.4 0 0.7 0.2 0.4 0.4 0.7 0.1 0.4 0.1 0.3-0.1 0.3-0.7 0.2-0.3 0.1-0.4 0.1-0.4 0.5-0.5 0.9-0.3 0.8-0.3 0.5-0.4 0.2-0.3 0.1-1.3 1 0 2.6 0.2 1.1 0.3 0.7 0.3 0.4 1 0.6-1.4 0.5-0.7 0.7-0.1 0.6 0.1 0.3-0.1 0.2-0.4 0.4-0.3 0.5-0.2 0.7 0 0.5 0.1 0.6-0.2 0.1-0.5 0.1-0.4 0.1-0.2 0.3-0.3 1-4.7 1.8-1.8 0.2-1.7-0.2-0.8 0.1-0.6 0.3-1.1 0.8-0.7 0.2-0.8 0.2-0.7-0.1-0.7-0.2-0.5-0.4-0.9-0.9-0.6-0.2-0.8 0.1-2.1 1.3 0.2-1.2 0.1-1.3 0.6-2.1-0.7-0.5-0.7-1.2-0.2-0.8 0.2-0.7-1.1-0.8-0.6-0.4-0.2-0.4-0.1-0.5 0-0.4-0.6-0.9 0.3-0.9-0.1-0.7 0.1-0.1 0.3-0.2 0.1-0.4 0.6-1 0.2-0.6-0.2-0.4 0.4-1.3 0.3-0.5 0.4-0.2 0.4 0.1 0.4-0.4 0.2-0.6 0.1-0.2 0.8-0.3 0.4-0.5 1.6-2.4 0.1-0.7-0.6-1.2-0.3-0.2-0.4-0.2-0.8 0.9-1.2 0.4-0.5-0.1-1.5-0.3-0.8-0.3-0.4-0.1-0.8-0.4 0.1-2.4 0.3-1.1-0.1-0.4-0.2-0.1-1.1-0.7-0.5-0.1-0.7 0.3-0.3 0-0.7 0-0.5 0.1-0.5 0.1-0.6 0 0.9-1.1 0.4-0.8 0.4-1.1 0.4-0.7 0.2-1.5 0.4-0.7 0.1-0.6-0.1-0.1 0.1 0 1.3-1.4 0.4-0.6 0.5-0.6 0.5-0.2 0.7 0.1 0.7 0 0.4-0.7 0.2-0.9 0.2-0.6 0.7-0.3 0.2 1.4 0.2 1.5 1.3 0 0.3-0.3 0.3-0.6 0.4-0.1 1.1 0 2.4-0.6 1.2-0.6 0.6 0.2 1.1 0.8 0.7 0.3 2.1 0.1-0.6 1.7 0 0.5 0.7 0.4 0.7 0 0.8-0.1 0.8-0.3 0.6-0.4 0.3-0.4 0.1-0.7 0.3-0.2 0.3 0 0.6 0.4 0.4 0 0.5 0.2 0.5 0.7 0.4 1 0.2 0.8 0.5-0.4 1-1.1 0.5-0.4 0.6-0.1 1.5 0 0.7-0.1 2.8-1 1.3-0.8 0.4-0.5z" title="Vila Real" data-confirmed="0" data-deaths="0" data-recovered="0" data-active="0" data-index="0"/></svg>